<?xml version="1.0" encoding="utf-8"?>
<svg xmlns="http://www.w3.org/2000/svg" xmlns:xlink="http://www.w3.org/1999/xlink" version= "1.1" width="578px" height="412px" viewBox="219 984 578 412">
<g id="layer1">
<g style="fill:rgb(0,174,199); fill-opacity:1.0; stroke-linejoin: miter">
<path d="M218.999,983.6368C218.90292,983.6368,218.81078,983.6749,218.74284,983.74286C218.67491,983.8108,218.63673,983.90295,218.63673,983.999L218.63774,1396.0C218.63774,1396.2001,218.79993,1396.3623,219.0,1396.3623L797.001,1396.3633C797.09705,1396.3633,797.1892,1396.3251,797.25714,1396.2571C797.3251,1396.1891,797.3632,1396.097,797.3632,1396.001L797.36224,984.0C797.36224,983.7999,797.2001,983.63776,797.0,983.63776L218.999,983.6368 Z"/>
</g>
<g style="fill:rgb(0,0,0); fill-opacity:0.44313726; stroke-linejoin: miter">
<path d="M763.80084,1343.5529L761.6017,1343.8734Q745.9666,1344.8422,670.1054,1345.423Q593.71924,1346.0035,490.20554,1345.8937Q391.4152,1345.7404,332.18497,1344.9965Q273.00247,1344.2474,284.1884,1343.2323Q299.82327,1342.2633,375.6846,1341.6825Q452.07083,1341.1019,555.58453,1341.2118Q654.37476,1341.3651,713.60504,1342.109Q732.58307,1342.3495,744.8693,1342.6332L755.1955,1342.9247Q763.70514,1343.2257,763.80084,1343.5529"/>
</g>
<g style="fill:rgb(186,12,12); fill-opacity:1.0; stroke-linejoin: miter">
<path d="M399.683,1229.7711L399.11276,1245.1515Q395.0585,1291.6327,375.38724,1319.5006Q355.57986,1347.3461,328.7382,1342.0831Q303.1213,1334.7269,287.76254,1299.0338Q282.84146,1287.4965,279.65555,1273.8907L276.97794,1259.9032Q274.77133,1245.466,274.7465,1229.7711Q275.41635,1181.6056,293.043,1149.6227Q310.6697,1117.6395,337.21475,1116.4242Q363.7598,1117.6395,381.38644,1149.6227Q399.01315,1181.6056,399.683,1229.7711"/>
</g>
<g style="fill:rgb(255,0,0); fill-opacity:1.0; stroke-linejoin: miter">
<path d="M400.45132,1230.3668L399.95425,1245.7848Q396.42026,1292.3788,379.27316,1320.3146Q362.00742,1348.2279,338.60995,1342.952Q316.28012,1335.5778,302.89218,1299.7982Q298.6025,1288.2325,295.82547,1274.5939L293.49142,1260.5721Q291.56796,1246.1,291.5463,1230.3668Q292.13022,1182.0844,307.4951,1150.0236Q322.85995,1117.9625,345.9988,1116.7443Q369.13773,1117.9625,384.5026,1150.0236Q399.86746,1182.0844,400.45132,1230.3668"/>
</g>
<g style="fill:rgb(255,255,255); fill-opacity:1.0; stroke-linejoin: miter">
<path d="M391.36343,1230.767L390.85623,1243.5114Q389.45572,1260.622,385.94083,1274.6669Q381.0845,1291.5526,379.4789,1294.0099Q376.92838,1299.8824,373.84933,1304.9891Q367.64908,1315.1925,360.53183,1319.9679Q351.4346,1324.7489,349.34006,1324.0763Q345.43753,1324.4281,341.30576,1323.4227Q339.1099,1323.451,330.30112,1316.6517Q326.9042,1313.527,323.8691,1309.246Q317.79886,1300.6835,313.17557,1287.494Q302.87497,1255.5929,304.96738,1221.3058Q305.9045,1204.2325,309.14346,1189.829Q310.7629,1182.6273,312.95786,1176.0931Q313.7308,1172.3346,320.76718,1158.1403Q332.43808,1137.1967,348.82407,1136.4442Q357.0092,1136.9635,363.92758,1142.5092Q367.3868,1145.2823,370.5292,1149.3119Q378.10825,1160.4852,379.24405,1164.2277Q384.57883,1176.0565,387.56552,1190.5145Q389.05887,1197.7433,389.96524,1205.6295Q390.7853,1209.162,391.36343,1230.767"/>
</g>
<g style="fill:rgb(255,0,0); fill-opacity:1.0; stroke-linejoin: miter">
<path d="M383.1675,1230.5206L382.85025,1240.8632Q381.4125,1257.5514,379.09305,1266.1742Q376.77072,1274.7455,374.68973,1280.4435Q372.11612,1286.434,369.5082,1290.8622Q363.36075,1300.5194,358.81522,1303.1119Q351.28732,1308.036,344.72714,1306.3514Q330.37936,1302.4452,321.92422,1281.6725Q320.16708,1277.7203,318.37222,1271.3588Q314.6519,1256.8112,314.50253,1253.7811Q312.6663,1241.9127,312.81235,1229.6434Q313.29037,1197.848,323.11642,1176.8448Q333.3077,1154.767,347.96017,1154.316Q361.70493,1154.6102,372.16104,1174.9894Q382.99118,1198.289,383.1675,1230.5206"/>
</g>
<g style="fill:rgb(255,255,255); fill-opacity:1.0; stroke-linejoin: miter">
<path d="M373.33426,1231.4667L372.8702,1238.9103Q371.81656,1248.8475,369.5872,1257.059Q366.1066,1268.9891,362.56015,1273.9166Q357.76804,1281.0406,354.89493,1282.753Q348.83914,1286.4357,344.96713,1285.465Q338.83456,1283.7025,335.72073,1280.0553Q333.90073,1278.1705,332.3093,1275.6923Q331.37082,1274.8241,328.0496,1266.9225Q325.69162,1261.339,323.46927,1248.046Q322.30283,1239.3107,322.67,1229.233Q323.1448,1219.0575,324.90134,1210.4598Q325.77957,1206.161,326.9783,1202.2567Q327.37735,1200.058,331.29532,1191.431Q334.78183,1184.4652,338.80588,1180.597Q340.8179,1178.663,342.96432,1177.5033Q343.95352,1176.4396,349.70596,1175.7667Q351.90488,1175.8834,353.96414,1176.7108Q355.0811,1176.6803,359.8281,1180.7926Q363.52805,1184.58,366.66965,1191.211Q369.9014,1198.7806,371.577,1207.5736Q373.3311,1218.8324,373.21494,1221.4508Q373.4692,1226.3058,373.33426,1231.4667"/>
</g>
<g style="fill:rgb(255,0,0); fill-opacity:1.0; stroke-linejoin: miter">
<path d="M365.01883,1230.0992L365.0546,1235.1254Q364.74692,1248.2421,360.23264,1258.3107Q358.23746,1261.7858,357.39536,1262.8619Q356.3163,1264.3539,355.4421,1265.1093Q351.64163,1268.0914,348.47006,1267.7279Q340.705,1266.5018,335.8163,1255.1783Q333.38162,1249.0504,332.0156,1242.2701Q330.79605,1234.9081,330.8292,1229.4515Q330.65134,1214.5917,335.34,1204.0956Q340.05112,1193.8229,346.86008,1193.7562Q347.9415,1193.734,349.9012,1194.2882Q351.47995,1195.039,353.57114,1196.6615Q355.66898,1198.3043,358.65744,1203.3463Q360.72617,1207.0931,362.72116,1214.1176Q363.80185,1218.7367,364.369,1222.3036Q364.85684,1226.4105,365.01883,1230.0992"/>
</g>
<g style="fill:rgb(15,59,82); fill-opacity:0.99607843; stroke-linejoin: miter">
<path d="M620.602,1158.2909L620.602,1158.2909L620.60205,1158.2911L620.602,1158.2909L620.602,1158.2909L620.602,1158.2909L620.60205,1158.2911Q620.602,1158.2909,620.602,1158.2909"/>
</g>
<g style="fill:rgb(15,59,82); fill-opacity:0.99607843; stroke-linejoin: miter">
<path d="M664.38947,1252.076L664.38947,1252.076L664.3895,1252.0763L664.38947,1252.076L664.38947,1252.076L664.38947,1252.076L664.3895,1252.0763Q664.38947,1252.076,664.38947,1252.076"/>
</g>
<g style="fill:rgb(0,0,0); fill-opacity:1.0; stroke-linejoin: miter">
<path d="M637.2305,1188.5072Q639.89825,1187.2987,642.09155,1187.9835Q642.383,1187.994,645.4069,1189.3346Q648.9313,1190.2587,649.2156,1190.5245Q650.57666,1191.2008,651.3887,1192.5792Q653.905,1197.1342,653.70905,1203.9884Q653.65765,1205.4423,653.46985,1207.0282L650.74396,1210.5582Q642.628,1208.486,639.39087,1206.3654Q637.73944,1205.3448,636.12305,1203.7225Q635.159,1202.8278,632.17444,1199.1263Q631.68933,1198.5719,631.213,1198.1439Q630.1163,1197.1195,628.59827,1196.7291Q628.5195,1194.8075,630.5747,1192.9403Q633.69965,1190.1068,637.2189,1188.5121"/>
</g>
<g style="fill:rgb(255,195,161); fill-opacity:1.0; stroke-linejoin: miter">
<path d="M612.311,1245.7059Q613.19653,1245.6593,614.16187,1246.1119Q615.05457,1246.4989,617.25336,1247.9559L619.44226,1247.8846L619.7631,1253.1842Q617.5433,1254.3727,616.5727,1254.475Q615.64655,1254.6373,614.41034,1253.8671Q613.35016,1255.0822,612.4984,1255.0709Q611.3397,1255.1617,609.3617,1253.247Q607.2647,1251.108,607.17505,1249.8243Q607.1602,1249.2191,607.6859,1248.8021Q608.14636,1248.4125,609.4869,1247.9764Q608.2215,1247.9896,608.06635,1247.6271Q607.8323,1246.9987,608.537,1246.3536Q608.8748,1246.0602,609.58386,1245.9393Q609.8059,1245.9012,610.1343,1245.8732L612.30994,1245.7057"/>
</g>
<g style="fill:rgb(255,255,255); fill-opacity:1.0; stroke-linejoin: miter">
<path d="M619.12805,1247.767L620.93506,1247.5907L623.05975,1255.7426Q621.5673,1256.4266,620.9371,1256.358Q620.1816,1256.3151,619.80817,1255.5504Q619.42755,1254.7909,619.27216,1252.9994Q619.12683,1251.4984,619.12805,1247.775"/>
</g>
<g style="fill:rgb(0,0,0); fill-opacity:1.0; stroke-linejoin: miter">
<path d="M682.8921,1223.4867L682.8994,1223.4952Q689.272,1230.8002,689.9697,1230.8763Q689.9769,1230.8773,689.98364,1230.8776Q690.3034,1230.8866,689.4434,1229.2501Q688.73303,1227.872,686.1979,1223.6864L682.8921,1223.4867 Z M664.1947,1201.464Q664.8278,1201.482,665.46735,1201.6742Q665.4839,1201.6732,665.50146,1201.674Q666.39453,1201.6996,669.92206,1204.6615Q671.1999,1205.4005,672.6055,1205.8221Q689.43964,1208.8387,690.31244,1209.6368Q694.5669,1211.1788,696.411,1214.4481Q697.37036,1216.0641,698.1551,1218.4271L704.54126,1238.4528Q705.35925,1241.6288,702.7848,1241.5548Q702.10254,1241.5353,701.18176,1241.2875L701.1814,1241.2875L711.8251,1252.8937L709.44714,1255.3727Q710.02277,1258.0721,710.0744,1261.2672Q709.5963,1276.2955,709.8017,1276.5245Q709.895,1279.473,710.61725,1284.0023L727.0154,1277.3466Q728.75555,1274.5323,734.45575,1271.2274Q738.4419,1274.2616,739.8233,1280.7035Q740.6936,1284.184,741.8907,1291.9667Q722.87604,1298.4261,707.63446,1305.6669Q704.6729,1306.829,702.77985,1306.9095Q702.52484,1306.9279,702.277,1306.9205Q699.3579,1306.8368,697.4174,1303.2411Q695.38763,1299.9637,689.0413,1282.7811L679.7324,1293.746L694.0073,1331.0995L693.8508,1331.1986L675.3909,1335.171L661.78,1298.433Q660.32904,1293.8256,661.72327,1289.1969Q662.88715,1284.7567,668.8831,1274.0709L668.88226,1274.0712L666.2892,1274.1837L670.87256,1253.4076L656.2506,1242.466Q647.93713,1251.7892,642.1573,1254.1849Q639.4692,1255.3986,635.6341,1256.1449Q621.56036,1257.7338,620.60565,1258.3099L619.7612,1247.1588L638.32074,1243.0275L645.77124,1232.7587Q644.03485,1226.2706,644.7817,1218.0043L653.1926,1205.8578L656.142,1207.2408Q660.17175,1202.6122,662.0548,1201.9076L662.14355,1201.868Q663.1606,1201.4342,664.1947,1201.464 Z"/>
</g>
<g style="fill:rgb(255,255,255); fill-opacity:1.0; stroke-linejoin: miter">
<path d="M648.0423,1210.6022Q649.0661,1209.1195,651.2763,1207.0458L652.0531,1207.7123Q650.7275,1209.8829,650.41534,1212.4855Q650.0252,1215.4689,650.3732,1220.3866Q650.9083,1228.858,654.10156,1235.2211Q650.10034,1232.838,648.5155,1231.12Q646.95715,1229.528,646.35034,1226.9115Q646.1848,1226.2428,646.0409,1225.4039L645.41675,1221.2252Q645.2231,1220.0348,644.7645,1217.7128Q646.59424,1212.5275,648.0276,1210.6227"/>
</g>
<g style="fill:rgb(255,195,161); fill-opacity:1.0; stroke-linejoin: miter">
<path d="M631.2791,1197.6588Q634.7797,1197.4657,635.5093,1198.2465Q636.2168,1198.7987,636.31354,1200.8038L638.5721,1202.0135L639.7158,1204.9457L641.271,1204.7264Q641.5142,1201.9974,641.87036,1201.3842Q642.26935,1200.6066,643.24036,1200.8707Q644.4138,1201.1798,645.0172,1201.9952Q645.4418,1202.495,645.5885,1204.3605Q645.7052,1204.6837,646.0529,1204.9579Q646.5267,1205.4967,651.5263,1207.6046L645.29517,1218.098L641.2322,1216.4867L638.59125,1216.3788Q636.0188,1217.7277,635.3528,1217.3129Q634.6065,1217.0563,634.64307,1214.2496Q633.5622,1213.1871,633.5249,1212.7426Q633.40967,1212.2335,634.17755,1211.4752Q632.98535,1211.6508,632.69745,1211.274Q632.3339,1210.944,632.26355,1209.3705Q630.20856,1209.7294,630.1883,1209.1171Q630.11554,1208.8253,630.3865,1208.1254L631.8176,1204.8751L631.70557,1204.0526Q631.065,1203.1437,631.0152,1202.0475Q630.9155,1201.0011,631.2777,1197.6737"/>
</g>
<g style="fill:rgb(255,195,161); fill-opacity:1.0; stroke-linejoin: miter">
<path d="M699.3642,1239.4603Q701.457,1243.4293,701.89813,1244.6818Q702.1151,1245.2609,702.1969,1245.7264Q702.2512,1245.9276,702.30396,1246.9384Q702.32605,1247.1464,702.38153,1247.3602Q702.4278,1247.5433,702.5388,1247.8241Q703.11255,1249.1473,703.1527,1249.3082Q703.3245,1249.8046,703.3441,1250.1385Q703.3797,1250.6622,703.07495,1251.0135Q702.7371,1251.3915,702.23987,1251.4176Q702.20856,1251.4181,702.17786,1251.4176Q701.3454,1251.3934,700.9327,1250.2164Q700.6832,1249.5468,700.51825,1248.5153L700.5179,1248.5157Q700.3444,1248.6595,700.1956,1248.768L700.19617,1248.7682Q700.1927,1249.0455,700.21576,1249.3395Q700.2298,1249.5175,700.252,1249.6898L700.3604,1250.4723Q700.38257,1250.6588,700.3899,1250.8036Q700.39716,1250.9474,700.3896,1251.0597L700.38995,1251.0602Q700.72107,1251.784,700.87775,1252.1835Q701.12897,1252.8102,701.243,1253.2853Q701.4747,1254.235,701.1436,1254.711Q700.8897,1255.0956,700.3843,1255.2428Q700.1412,1255.306,699.9118,1255.2992Q699.71326,1255.2938,699.52496,1255.2357L699.5246,1255.236Q699.94006,1256.1874,699.87,1256.6036Q699.8357,1256.9569,699.56586,1257.1815Q699.28796,1257.4078,698.875,1257.4205Q698.84534,1257.4208,698.8157,1257.4198Q698.12866,1257.4,697.48425,1256.7726Q697.25336,1256.5521,697.0066,1256.2491L697.0062,1256.2496Q696.375,1256.7347,695.8241,1256.7189Q695.5709,1256.7118,695.3347,1256.5985Q694.2875,1256.1156,693.43756,1254.5902Q692.36285,1252.818,692.23553,1248.5284L692.236,1248.5287Q692.0118,1248.485,691.83246,1248.3732L691.8319,1248.3737Q690.29065,1250.8634,689.4242,1251.422Q688.816,1251.8519,688.2116,1251.8346Q688.11957,1251.8322,688.02783,1251.8192Q687.27185,1251.6598,687.27747,1251.0895Q687.2968,1250.8378,687.56366,1250.5045L687.8176,1250.2079Q688.5712,1249.414,688.66675,1249.296Q688.93243,1248.9948,689.1472,1248.6976Q689.5051,1248.2001,689.7138,1247.7059Q690.3405,1246.2421,690.4232,1243.7635L690.4234,1243.7609L690.4753,1243.8534L690.4752,1243.8536Q690.5367,1243.643,690.6526,1243.4772Q691.05096,1242.8187,692.7773,1242.0416Q694.25476,1241.3407,699.36346,1239.4904L699.3668,1239.4891L699.3674,1239.4916L699.3674,1239.4921L699.36414,1239.4664L699.3638,1239.4601 Z"/>
</g>
<g style="fill:rgb(0,0,0); fill-opacity:1.0; stroke-linejoin: miter">
<path d="M693.239,1330.7484L694.8618,1332.7394L695.95154,1332.2184Q696.9517,1334.0292,697.3481,1335.068Q698.47424,1337.4308,697.98193,1342.8434L687.34576,1343.1542L687.24695,1341.0995Q681.7539,1342.8138,678.9518,1343.2953Q675.7424,1343.8844,673.0304,1343.6825Q666.8674,1343.1202,665.6413,1340.6837Q665.17377,1339.2123,667.089,1338.6007Q667.68384,1338.4154,668.781,1338.3329Q668.80133,1338.2994,672.829,1338.1869Q673.75745,1338.1407,674.5193,1338.0441Q676.2121,1337.8346,677.2856,1337.2716Q679.62354,1336.0663,680.84906,1332.733L693.1901,1330.7565"/>
</g>
<g style="fill:rgb(0,0,0); fill-opacity:1.0; stroke-linejoin: miter">
<path d="M737.608,1265.7247Q738.98694,1264.7904,741.3995,1266.1766Q742.74585,1266.8927,745.83905,1269.2164L744.98676,1270.2406Q752.21643,1272.5314,755.6247,1275.6818Q759.1224,1278.8314,761.6713,1283.2445Q763.5452,1286.5236,762.01117,1287.2015Q759.97345,1288.4696,759.0459,1288.1222Q758.5202,1288.0018,757.91644,1287.6432Q754.7005,1285.514,754.08075,1285.244Q752.9586,1284.6451,751.6898,1284.2626Q750.5627,1283.9174,749.0347,1283.6434Q741.7298,1282.6407,738.83575,1281.9523L733.27563,1271.8756Q736.19434,1266.4425,737.5926,1265.7343"/>
</g>
<g style="fill:rgb(0,0,0); fill-opacity:1.0; stroke-linejoin: miter">
<path d="M645.6396,1218.016L648.277,1220.7906L646.8448,1222.8177Q646.83813,1225.4669,647.80676,1227.1393Q648.39984,1228.2604,649.81494,1229.7633L651.0995,1231.0619L653.9672,1233.7465Q654.4933,1234.2487,654.75433,1234.5463Q655.35333,1235.2032,655.18274,1235.4884Q654.9692,1235.8466,653.37494,1235.9667Q652.31067,1235.9945,651.40155,1235.5897Q649.7084,1234.8575,648.46924,1232.5238Q646.4467,1228.6783,645.05835,1222.3612Q644.7108,1220.6385,644.80676,1219.4064L645.63684,1218.0206"/>
</g>
<g style="fill:rgb(250,87,87); fill-opacity:0.07450981; stroke-linejoin: miter">
<path d="M643.0268,1211.2059L645.4195,1217.9596L638.9054,1216.1942Q640.8222,1214.6115,641.5903,1213.6498Q642.33234,1212.7526,643.024,1211.2118"/>
</g>
<g style="fill:rgb(0,0,0); fill-opacity:0.99607843; stroke-linejoin: miter">
<path d="M629.7855,1200.7906L629.78546,1200.7906L629.7855,1200.7909L629.7855,1200.7906"/>
</g>
<g style="fill:rgb(0,0,0); fill-opacity:0.99607843; stroke-linejoin: miter">
<path d="M659.1714,1204.1852L659.1714,1204.1852L659.17145,1204.1857L659.1714,1204.1852"/>
</g>
<g style="fill:rgb(125,139,150); fill-opacity:1.0; stroke-linejoin: miter">
<path d="M368.019,1086.8153L368.019,1086.8153L368.01907,1086.8156L368.019,1086.8153L368.019,1086.8153L368.019,1086.8153L368.01907,1086.8156Q368.019,1086.8153,368.019,1086.8153"/>
</g>
<g style="fill:rgb(0,0,0); fill-opacity:1.0; stroke-linejoin: miter">
<path d="M348.8038,1230.64L393.0073,1230.6403L437.21072,1230.6405Q437.21072,1232.3885,437.21072,1234.1368Q393.0073,1234.1371,348.8038,1234.1371Q348.8038,1232.3885,348.8038,1230.64"/>
</g>
<g style="fill:rgb(255,0,0); fill-opacity:1.0; stroke-linejoin: miter">
<path d="M413.4567,1230.9147L416.4083,1227.4613L419.35983,1224.0079Q427.5494,1223.5892,435.73898,1223.1703Q435.02786,1226.9047,434.31668,1230.639L413.4567,1230.9147"/>
</g>
<g style="fill:rgb(255,0,0); fill-opacity:1.0; stroke-linejoin: miter">
<path d="M446.73428,1241.0204L446.73422,1241.0206L446.73422,1241.0206L446.73428,1241.0204"/>
</g>
<g style="fill:rgb(255,0,0); fill-opacity:1.0; stroke-linejoin: miter">
<path d="M412.7559,1233.9171L418.69052,1240.7968L435.07327,1241.5597L433.6169,1234.0973L412.7559,1233.9171"/>
</g>
</g>
</svg>