<?xml version="1.0" encoding="UTF-8"?>
<svg viewBox="0 0 793.7 1122.5" xmlns="http://www.w3.org/2000/svg">
 <defs>
  <linearGradient id="b" x1="-.00959" x2="1.0096" y1=".5" y2=".5">
   <stop stop-color="#161616" offset="0"/>
   <stop stop-color="#161616" stop-opacity="0" offset="1"/>
  </linearGradient>
  <linearGradient id="i" y1=".5" y2=".5">
   <stop stop-color="#a7a7a7" offset="0"/>
   <stop stop-color="#a7a7a7" stop-opacity="0" offset="1"/>
  </linearGradient>
  <linearGradient id="a" y1=".5" y2=".5">
   <stop stop-color="#161616" offset="0"/>
   <stop stop-color="#161616" stop-opacity="0" offset="1"/>
  </linearGradient>
  <linearGradient id="k" x1="-.009535" x2="1.0095" y1=".5" y2=".5">
   <stop stop-color="#161616" offset="0"/>
   <stop stop-color="#161616" stop-opacity="0" offset="1"/>
  </linearGradient>
  <linearGradient id="l" x1="-.009087" x2="1.0091" y1=".5" y2=".5">
   <stop stop-color="#161616" offset="0"/>
   <stop stop-color="#161616" stop-opacity="0" offset="1"/>
  </linearGradient>
  <linearGradient id="m" x1="-.01217" x2="1.0122" y1=".5" y2=".5">
   <stop offset="0"/>
   <stop stop-opacity=".498" offset="1"/>
   <stop stop-opacity="0" offset="1"/>
  </linearGradient>
  <radialGradient id="r" cx="31.715" cy="574.47" r="5.5262" gradientTransform="matrix(1 0 0 .73913 0 149.86)" gradientUnits="userSpaceOnUse">
   <stop stop-color="#d0d0d0" offset="0"/>
   <stop stop-color="#d0d0d0" stop-opacity="0" offset="1"/>
  </radialGradient>
  <radialGradient id="q" cx="43.489" cy="573.75" r="5.0651" gradientTransform="matrix(1 0 0 .90513 0 54.433)" gradientUnits="userSpaceOnUse">
   <stop stop-color="#d0d0d0" offset="0"/>
   <stop stop-color="#d0d0d0" stop-opacity="0" offset="1"/>
  </radialGradient>
  <radialGradient id="p" cx="56.972" cy="572.09" r="5.5546" gradientTransform="matrix(1 0 0 .86031 0 79.918)" gradientUnits="userSpaceOnUse">
   <stop stop-color="#d0d0d0" offset="0"/>
   <stop stop-color="#d0d0d0" stop-opacity="0" offset="1"/>
  </radialGradient>
  <radialGradient id="o" cx="69.438" cy="571.58" r="6.0262" gradientTransform="matrix(1 0 0 .80065 0 113.95)" gradientUnits="userSpaceOnUse">
   <stop stop-color="#d0d0d0" offset="0"/>
   <stop stop-color="#d0d0d0" stop-opacity="0" offset="1"/>
  </radialGradient>
  <radialGradient id="n" cx="372.51" cy="689.84" r="359.33" gradientTransform="matrix(-1.0901 -2.6855e-6 4.7874e-7 -.19862 778.59 826.86)" gradientUnits="userSpaceOnUse">
   <stop offset="0"/>
   <stop stop-opacity="0" offset="1"/>
  </radialGradient>
 </defs>
 <g fill-rule="evenodd">
  <path d="m59.346 681.63l-34.599 7.6886s-26.67 6.9678 0.96108 13.936c27.631 6.9678 178.59 140.87 178.59 140.87s-143.44-106.43-104.95-107.31c94.776-2.1673 615.57-75.653 615.57-75.653s29.672-12.694 7.5675-14.856c-22.105-2.1624-155.94-16.819-155.94-16.819l-507.21 52.138z" fill="url(#n)"/>
  <path d="m261.41 531.46l-0.7208-28.832s-4.3248-4.8054-5.7664-4.8054-107.16 3.3638-107.16 3.3638-111 18.26-116.29 23.066c-5.2859 4.8054-6.7275 6.7275-7.2081 10.572-0.48053 3.8443-6.7275 73.762-6.7275 73.762s-0.96108 11.052 0 11.052c0.96107 0 13.936-0.24023 13.936-0.24023s-1.9222-1.4416-0.48054-1.4416c1.4416 0 4.5651-1.4416 4.5651-1.4416l1.4416 3.3638 23.306-0.2403-1.4416-2.6429h6.7275v2.4027l133.11-0.9611 66.074-66.314-3.3638-20.663z" fill="#af7817"/>
  <g stroke="#000">
   <path d="m502.44 596.97c-2.8227 8.468-24.463 27.286-24.463 27.286l-63.04-5.6454-31.99 7.5272-58.336-6.5862 1.8818-28.227 175.95 5.6454z"/>
   <path d="m406.29 692.92s-18.981-12.014-18.981-24.507c0-12.494 4.3249-44.93 4.3249-44.93s8.89-14.176 16.098-14.656c7.208-0.48053 40.605-0.48053 40.605-0.48053s16.819 6.247 21.624 13.455c4.8054 7.2081 13.215 32.196 10.091 45.651-3.1235 13.455-13.215 23.546-13.215 23.546s-13.695 5.286-20.903 5.286c-7.2081 0-39.644-2.643-39.644-3.3638z"/>
  </g>
  <path d="m16.338 627.57l-0.4805-3.3638 4.0846-6.4872 17.78-2.4027 54.301 0.4805 94.666-0.2402s13.936-34.839 16.098-34.118c2.1624 0.72076 62.23 2.8832 62.23 2.8832l17.78 3.1235s11.052 9.3705 13.936 10.091c2.8832 0.72082 41.326-1.9221 41.326-1.9221l5.2859 17.54 8.1691 0.4805 3.604 3.1235 4.5651 0.9611 0.9611-3.8443 19.702 0.2402 12.254 6.247-86.737 1.2014 0.9611 5.2859 84.334-1.2013 13.455-0.4806 0.7208 37.722-0.4805 5.2859-90.822 4.8054-1.2014 4.0845-2.8832-0.9611-3.8443-4.3248-33.397-0.9611-13.455-26.189-33.157-14.656-35.32 12.254-16.338 48.534s1.4416 0-1.9222 2.6429 1.4416-0.96106 0.48053-0.96106c-0.96108 0-36.761-1.6819-36.761-1.6819l-119.89-63.191z" fill="#070500"/>
  <path d="m352.14 367.36l-73.571 17.143 40 182.14 10.714 45.714 22.143-1.4286 0.7143-243.57z" fill="#895e13" stroke="#db951c"/>
  <path d="m284.96 600.18l51.418 0.4805s4.8054-147.04 0.7208-148.01c-4.0846-0.96109-63.431-13.695-63.431-13.695l-11.293 4.3248 9.1302 9.1302-11.052 49.495-2.4027 4.5651-0.2403 50.216 27.15 43.489z" fill="#af7817"/>
  <path d="m304.18 590.08h17.059s8.6497-0.96106 8.6497-10.572c0-9.6108-2.8832-120.38-2.8832-120.38l-39.164-11.293s-4.8054-2.4027-8.1692 2.8832c-3.3637 5.2859-5.5262 17.54-6.7275 25.949-1.2014 8.4094-4.5651 27.15-4.5651 27.15l1.6819 84.334 34.118 1.9222z" fill="#00007f" stroke="#00007f"/>
  <g stroke="#000">
   <path d="m288.8 508.39s-18.981-0.2403-15.618-12.494c3.3638-12.254 7.6886-35.32 7.6886-35.32s-0.7208-6.0067 8.4094-3.604 34.599 8.8899 34.599 8.8899l-2.4027 48.294-32.677-5.7664z"/>
   <path d="m612.45 617.48l0.9611 28.832-28.592 1.2014 2.4027-27.871 17.78-4.8054 7.4483 2.6429z"/>
   <path d="m524.99 598.49l-22.345 5.5262 4.3248 14.176s15.618 12.734 17.059 14.176c1.4416 1.4416 3.3638 25.228 3.3638 25.228l17.54-7.2081-2.1625-40.125-17.78-11.773z"/>
   <path d="m664.34 655.68l23.546 1.4416s10.812-3.3638 11.773-12.014c0.96112-8.6497-0.48053-26.91-2.4026-29.793-1.9222-2.8832-11.293-18.741-16.098-16.819-4.8054 1.9221-33.157 12.254-30.274 16.098 2.8832 3.8443 7.2081 18.26 7.2081 22.585 0 4.3248-0.48059 12.494-1.4416 12.494-0.96106 0 5.286 6.247 7.6886 6.0067z"/>
   <path d="m631.43 661.44l16.098-0.4805s16.579-7.6886 13.695-26.43c-2.8832-18.741-10.332-30.995-21.144-31.716-10.812-0.72082-31.716 0-31.716 0l-6.0068 8.6497 3.1235 31.475s8.6497 18.501 13.215 18.26c4.5651-0.24023 13.215 0.72082 12.734 0.2403z"/>
  </g>
  <path d="m168.91 667.93s2.4027 36.281 15.377 45.891c12.974 9.6107 28.111 13.936 29.072 13.936 0.96108 0 27.391 0.96106 34.599-3.3638 7.2081-4.3248 19.942-17.059 21.624-22.105 1.6819-5.0456 3.8443-24.027 2.6429-34.599-1.2013-10.572-19.942-53.099-19.942-53.099l-48.775 1.2013-30.995 25.949-3.3638 27.391-0.2403-1.2014z" stroke="#000"/>
  <path d="m232.1 635.02s-30.995 5.5262-30.034 35.32c0.96108 29.793 27.871 34.358 27.871 34.358s33.157-5.2859 28.352-35.56c-4.8054-30.274-9.851-26.91-9.851-26.91s-3.8443-5.286-9.1302-6.247c-5.2859-0.96106-7.6886-0.48053-7.2081-0.96106z" fill="#b7b7b7"/>
  <g stroke="#000">
   <path d="m225.85 665.29s-1.9222 16.338 6.7275 18.26c8.6497 1.9221 12.494-10.332 12.494-11.773 0-1.4416-1.9222-15.858-9.1302-14.416-7.208 1.4416-11.052 8.1691-10.091 7.9289z"/>
   <path d="m224.89 698.21l8.6497 0.4805s4.3248-6.247 0.96108-5.7664c-3.3638 0.48053-10.091 5.2859-9.6108 5.2859z"/>
   <path d="m229.22 641.5l6.247-0.4805s4.8054 5.7664 0.48053 5.7664c-4.3248 0-8.1691-3.8443-8.1691-3.8443l1.4416-1.4416z"/>
  </g>
  <path d="m205.91 526.41l0.2403 12.974 40.846 3.1235-0.4805-12.974-40.605-3.1235z" stroke="url(#m)"/>
  <path d="m80 575.93l2.6104-46.909s3.1431-7.6168-6.5971-6.9026c-12.131 0.88965-39.585 8.0974-39.585 8.0974s-10-1.4285-11.429 8.5715c-1.4286 10-4.2857 57.143-4.2857 57.143s-4.2857 18.572 8.5714 18.572 40-0.71429 40-0.71429 10 5.7143 10-14.286 0-25.714 0.71429-23.572z" fill="#676767"/>
  <path d="m466.12 684.51l49.736 3.604s16.819-12.734 14.416-35.56c-2.4027-22.826-5.0456-32.917-22.826-50.697s-45.651 16.579-45.651 16.579l8.1691 36.281-3.8443 29.793z" stroke="#000"/>
  <g fill="#00007f">
   <path d="m578.57 589.51c6.4286 4.2857 19.286 28.571 19.286 28.571v18.571l-8.5714 15.714-60 4.2857 11.429-15.714v-25.714l-24.286-17.143 45-17.143 22.857 12.857-3.5714-0.7143"/>
   <path d="m591.78 617.96h22.105l-0.9611-3.8443-5.7664-0.4805 11.773-12.734-35.8 1.9222 8.6497 15.137z"/>
  </g>
  <path d="m352.86 613.08l-2.1429-244.29s377.14 115.71 374.29 117.14c-2.8571 1.4286 2.8702 118.85 2.8702 118.85l-375.01 8.2921z" fill="#af7817" stroke="#00007f"/>
  <path d="m670.09 606.38l-9.12 1.3922s-6.477 4.0827-5.9965 4.6832c0.48053 0.60052-6.9447-5.5392-13.665-5.3151-4.1248 0.13757 31.123-0.83057 28.781-0.76032z" fill="#d4c088"/>
  <g fill="#af7817">
   <path d="m267.14 445.22l4.2857-2.8571 12.857 2.8571 34.286 8.5714s7.1428 1.4286 12.857 1.4286c5.7143 0 8.5714-2.8572 8.5714-2.8572l-0.7143-87.857h-15.714s-7.1429-1.4286-25.714 4.2857-64.286 18.571-64.286 18.571-42.143 14.286-57.857 44.286-18.571 41.429-18.571 41.429 27.676-14.26 33.39-14.26c5.7143 0 43.766-7.6104 43.766-7.6104s14.533 3.1304 21.675 0.27286c5.4621-2.1852 10.454-6.26 11.169-6.26z" stroke="#c9891a"/>
   <path d="m284.24 591.05l-20.663-31.475s-3.8443-6.247-13.455-7.6886c-9.6108-1.4416-97.069 0.48053-97.069 0.48053s-13.936 1.9222-24.988 5.286-32.677 14.656-34.599 15.137c-1.9222 0.48053-3.8443 1.6819-4.3248 5.5262-0.48054 3.8443-1.4416 40.365-1.4416 40.365l101.15 0.7208s11.052-33.638 19.942-33.397c8.89 0.2403 64.392 2.4027 64.392 2.4027s14.416 11.773 15.377 11.773c0.96109 0 0.96109-3.8443 0-4.3248-0.96106-0.48059-3.604-4.3249-4.3248-4.8054z" stroke-width="2"/>
  </g>
  <g stroke="#af7817">
   <path d="m317.88 456.02l17.78-3e-4v40.125s-21.144 0.48053-20.183 0c0.96106-0.48053 0.24026-40.125 0.24026-40.125l2.1624 3e-4z" fill="#ffd454"/>
   <path d="m320.76 470.67l4.3248 7.6886s-0.96109-1.9222 1.9222-1.9222c2.8832 0 2.8832 2.4027 2.8832 2.4027l-4.8054-6.7275-4.3248-1.4416z" fill="#434343"/>
   <g fill="#787878">
    <path d="m282.8 512.48l23.306 5.0457 20.183-40.365s-0.7208-3.3638-0.7208-2.4027c0 0.96109-19.942 39.644-19.942 39.644s-15.858-2.8832-14.897-2.8832c0.96109 0 34.599-35.8 34.599-35.8l-0.9611-2.4027-41.566 39.164z"/>
    <path d="m321.72 472.1s-24.027-15.343-25.468-15.343c-1.4416 0-12.734-3.4645-12.734-3.4645l-0.9611-4.9492s10.572 3.4645 11.533 3.4645c0.96109 0 30.034 19.55 30.034 19.55l-2.4027 0.7424z"/>
   </g>
  </g>
  <path d="m92.984 579.27l74.483-0.4806-0.7208 32.196-74.964-1.2014-1.4416-12.734 2.8832-0.4805-0.2403-17.299z" fill="#6e6e6e"/>
  <path d="m95.867 581.92c3.3638 0 44.21-0.96112 44.21-0.96112l1.4416 3.6041-42.047 0.4805-1.9222 22.826h-3.3638l1.6819-25.949z" fill="#908d8d"/>
  <path d="m95.867 606.66c1.4416 0 45.651 1.4416 45.651 1.4416l0.7208-26.91-43.969 1.2014-2.4027 24.267z" fill="#d8d8d8"/>
  <path d="m140.8 607.14c2.8832-1.4416 24.748 0.72082 24.748 0.72082l0.4805-26.91-24.027-1.2013-1.2014 27.391z" fill="#ffaa5e"/>
  <path d="m141.04 591.05c0.96108 0 24.027 1.4416 24.027 1.4416s2.4027 4.3248-0.48054 4.3248-22.105-0.48053-22.105-0.48053l-1.4416-5.2859z" fill="#e39148"/>
  <path d="m12.013 627.09s4.8054-0.96106 6.247-0.96106 166.99 1.4416 166.99 1.4416-6.4873 47.573-13.936 49.255c-7.4484 1.6819-74.964 2.8832-74.964 2.8832s-29.072-0.48053-32.436-0.96112c-3.3638-0.48053-47.093-5.7664-47.093-5.7664l-4.0846-13.215-0.7208-32.677z" fill="#af7817"/>
  <g stroke="#000">
   <path d="m19.942 630.69l-1.4416 16.579s2.8832 9.6108 5.2859 6.247 2.8832-6.7275 2.8832-6.7275l0.7208-17.059-7.4483 0.9611z"/>
   <path d="m64.873 632.13s-0.24027 15.858 0.24027 16.819c0.48054 0.96112 2.8832 9.6108 5.2859 5.7665s3.3638-6.7275 3.3638-6.7275l0.7208-15.618-9.6108-0.2402z"/>
  </g>
  <path d="m187.17 631.89h-111.48l-58.385-1.4416-5.2859-0.9611s-1.4416-2.8832 0-2.8832 6.9678-3.3638 10.572-1.9222c3.604 1.4416 170.35 0 170.35 0l-5.7665 7.2081z" fill="#00007f"/>
  <path d="m53.82 673.22s5.0456 21.384 17.78 26.91c12.734 5.5262 24.507 8.4094 37.001 6.4872s26.67-7.6886 28.592-15.858c1.9222-8.1691 1.6819-19.462 1.6819-19.462l-85.055 1.9221z" stroke="#000"/>
  <path d="m182.12 661.2c-3.8443 0-101.63 3.3638-135.75 0-34.118-3.3638-34.358-3.604-34.358-3.604l0.9611 3.8443 3.8443 11.293s57.905 6.247 60.067 6.9678c2.1624 0.72076 99.712-2.8832 99.712-2.8832l5.5262-15.618z" fill="#00007f"/>
  <path d="m39.885 661.44s1.6819 9.6107 4.0846 9.6107h7.2081s1.6819-9.1302-0.24027-9.6107c-1.9222-0.48053-11.052-0.48053-11.052 0z" stroke="#000"/>
  <path d="m26.67 577.59l-0.4805-2.8832 2.8832 0.4805 0.4805-1.4416h-1.4416v-2.4026h3.3638l-0.9611 2.8832 2.4027 0.4805 3.8443-4.3248 0.4805 1.9221s-0.96107 6.247-1.9222 6.247c-0.96107 0-8.6497 0-8.6497-0.96112z" fill="url(#r)"/>
  <path d="m38.924 576.39l0.9611-1.9222 5.7665-0.4805v-2.4027h-0.96107v-1.9221h3.3638l-0.9611 3.8443 0.7208 2.4027-0.4805 1.4416-7.2081 0.4805-1.2014-1.4416z" fill="url(#q)"/>
  <path d="m51.658 576.87c0-0.96106 0.24027-3.3638 0.24027-3.3638l-0.4805-3.8443 0.4805-1.9222s11.533-0.96106 10.572 0c-0.96108 0.96112-0.48055 1.9222-0.48055 1.9222l-8.1691 0.9611v2.4027l8.4094 1.2014-1.4416 2.4026s-11.052 0-9.1302 0.2403z" fill="url(#p)"/>
  <path d="m63.912 575.91v-8.6497h4.3248l-1.4416 2.4027 5.7665-2.4027h2.4027v1.4416l-2.8832 0.9611 2.8832 5.2859h-3.3638l-3.8443-2.4026-0.4805 3.3638h-3.3638z" fill="url(#o)"/>
  <path d="m31.235 530.98l-0.7208 3.8443 51.658-8.1691-0.9611-3.8443-49.976 8.1691z" fill="url(#a)"/>
  <path d="m25.468 540.11c3.1235 0.72082 55.022-7.9288 55.022-7.9288v2.4026l-54.541 8.1692 0.9611-3.3638-1.4416 0.7208z" fill="url(#l)"/>
  <path d="m26.91 546.84l52.138-7.6886v1.9222l-51.177 7.6886-0.9611-1.9222z" fill="url(#a)"/>
  <path d="m26.79 554.53l52.138-7.6886v1.9222l-51.177 7.6886-0.9611-1.9222z" fill="url(#b)"/>
  <path d="m26.069 561.97l52.138-7.6886v1.9221l-51.177 7.6886-0.9611-1.9221z" fill="url(#a)"/>
  <path d="m25.29 583.5l52.439-5.2614-0.0892 1.9201-51.479 5.306-0.8709-1.9647z" fill="url(#k)"/>
  <path d="m24.387 592.73l52.138-7.6886v1.9222l-51.177 7.6886-0.9611-1.9222z" fill="url(#b)"/>
  <path d="m24.628 604.78l52.138-3.2163v1.9221l-51.177 3.2988-0.9611-2.0046z" fill="url(#b)"/>
  <g fill="#00007f">
   <path d="m305.86 620.84l0.4805 7.2081 96.828-1.4416-0.4805-5.7665h-96.828z"/>
   <path d="m312.11 668.85l-0.4805 6.7275 98.75-7.2081v-6.247l-98.27 6.7275z"/>
  </g>
  <path d="m303.7 607.62l-0.2403 2.1624 29.313 1.6819 0.7208-10.812s-19.462-2.4027-17.54 0c1.9222 2.4026 0.7208 6.7275 0.7208 6.7275l-12.974 0.2402z" fill="#7a5412"/>
  <path d="m314.51 569.9c0.48056 0.96112 0 9.1302 0 9.1302s0.96109 3.604 5.7664 3.1235c4.8054-0.48053 3.8443-11.533 3.8443-11.533l-9.6107-0.7208z" stroke="#000"/>
  <path d="m450.02 627.33s18.741 9.1302 15.618 28.111c-3.1235 18.981-9.6108 23.787-13.455 23.787-3.8443 0-18.501-6.4873-16.098-27.15 2.4027-20.663 6.9678-23.066 13.936-24.748z" fill="#c1c1c1"/>
  <path d="m442.08 668.18s14.266-2.0074 14.668-15.39c0.40186-13.383-14.467-22.305-15.27-21.859-0.80371 0.44611-4.9388 12.491-4.1351 12.937 0.80371 0.44611 17.597 5.1302 15.588 10.93-2.0093 5.7993-5.2241 9.3682-12.859 10.706-7.6352 1.3383 2.0093 3.1227 2.0093 2.6766z" fill="#555252"/>
  <path d="m502.4 648.23s0.48053-22.585 10.572-21.624c10.091 0.96106 13.695 20.903 13.695 24.267 0 3.3638-5.0456 24.988-10.572 22.345-5.5262-2.6429-13.455-10.091-13.695-24.988z" fill="#bcbcbc"/>
  <path d="m506.36 630.1s15.019 4.4372 11.175 16.931c-3.8443 12.494-5.3139 12.033-6.8115 16.486-2.6753 7.9545-5.5289-1.5438-5.5289-1.5438s8.0155-3.89 8.9766-11.338c0.96106-7.4483-11.116-11.781-11.116-11.781l3.3047-8.7545z" fill="#706d6d"/>
  <path d="m587.7 650.63l29.313-1.2014 0.4805-4.3248s-30.274 0.48053-30.274 1.4416c0 0.96106 1.4416 3.8443 0.48053 4.0845z" fill="#00007f"/>
  <path d="m644.88 618.92s14.897 6.9678 12.014 19.462c-2.8832 12.494-7.4484 17.78-10.812 16.819-3.3638-0.96106-11.052-2.4027-10.812-17.54 0.2403-15.137 6.4872-18.501 9.6107-18.741z" fill="#bcbcbc"/>
  <path d="m639.29 621.98s14.171 3.8743 11.114 12.315c-2.6328 7.2694-2.0856 11.016-8.854 12.836-7.4393 2.0004-5.3268-3.195-5.3268-3.195s8.8873 0.27405 9.3754-5.0763c0.41925-4.5958 1.0637-6.275-5.6638-8.6777s0.076355-7.7219-0.64447-8.2024z" fill="#737373"/>
  <path d="m682.12 634.05s-0.48053-17.059 5.2859-17.059c5.7665 0 10.572 11.052 10.572 15.858 0 4.8054-0.72076 18.981-6.4872 18.981s-10.572-12.734-9.3705-17.78z" fill="#969696"/>
  <path d="m684.6 618.67s9.7742 6.2572 8.8132 14.907c-0.96112 8.6497-7.7677 13.902-7.7677 13.902s-4.1434-5.7516-1.0761-5.5084c3.7336 0.29602 6.6296-1.2465 4.2787-5.7407-1.277-2.4412-0.86706-4.1437-4.7259-7.7881-3.6755-3.4712 0.71814-9.2914 0.47784-9.772z" fill="#5f5f5f"/>
  <path d="m265.26 441.12s5.7665-3.8443 15.377-5.7664c9.6108-1.9222 31.716-11.533 33.638-15.377 1.9222-3.8443 24.988-17.299 24.988-13.455v46.132l-65.353-13.455-8.6497 1.9221z" fill="#895e13" stroke-width="NaN"/>
  <path d="m157.62 470.19s8.1691-10.091 37.722-16.819c29.553-6.7275 56.703-9.851 62.95-9.851s15.858 1.9222 15.377 13.936l-0.48053 12.014s-4.0846 24.748-5.5262 28.111c-1.4416 3.3638-6.9678 9.3705-9.3705 9.3705s-1.9222-5.2859-8.6497-6.247c-6.7275-0.96109-97.549 2.1624-97.549 2.1624s-4.3248 2.1624-3.3638-4.3249c0.96108-6.4872 9.1302-28.352 8.8899-28.352z" stroke="#000"/>
  <path d="m59.59 516.22l-0.347-3.4696s0.52044 0.86737-0.8674-0.8674-2.2552-0.17349-2.9492-1.9083c-0.69391-1.7348 0.17348-2.6022 0-2.9491-0.17348-0.34695-2.2552-0.69391-2.2552-0.69391s0.52044-1.2144 0.8674-1.9083c0.34696-0.69394 2.5154-0.60721 2.6889-1.3011 0.17348-0.69391 1.995-1.5613 3.0359-0.69391 1.0409 0.8674 1.0409 1.995 2.9492 1.8215 1.9083-0.17349 2.9492-2.0818 3.2961-0.8674 0.34696 1.2144-0.95413 1.995-0.52044 3.4696 0.4337 1.4746 2.4287 0.78067 3.1226 1.8215 0.69392 1.0409 0 1.5613 0 2.7757s0.69392 2.342-1.1276 2.6022c-1.8215 0.26019-2.6889 0.26019-2.5155 0.78064 0.17348 0.52045 1.0409 1.2144-0.34695 0.86743-1.3878-0.34698-3.6431-0.86743-3.2961-0.34698 0.34696 0.52045 0.34696 0.86743 0.34696 0.86743h-2.0818z" fill="url(#i)"/>
 </g>
</svg>
