<?xml version="1.0" encoding="UTF-8"?>
<svg viewBox="0 0 681.15009 1300.8778" xmlns="http://www.w3.org/2000/svg">
 <path d="m235.35 125.67c-7.7088-3.5013-12.418-11.506-12.418-21.107 0-10.121 3.5913-16.128 12.209-20.422 9.3541-4.6614 21.599-2.3358 28.046 5.3267 2.7076 3.2178 5.7338 11.525 5.7338 15.74 0 3.6596-3.7451 12.619-6.524 15.607-6.225 6.6936-18.249 8.8526-27.047 4.8566zm217.07 0.284c-11.105-6.0504-15.839-18.193-11.539-29.6 6.8615-18.203 32.606-19.985 41.289-2.8573 5.5873 11.021 2.3748 24.315-7.4464 30.815-3.4733 2.2986-5.4035 2.7945-11.73 3.0141-5.5171 0.1915-8.3875-0.1808-10.573-1.3716zm145.27-1.1494c-5.5178-3.2017-9.3783-8.0577-10.904-13.716-1.255-4.6554-0.4615-13.497 1.5584-17.362 3.4949-6.689 12.796-12.105 20.852-12.142 19.834-0.0911 30.156 24.783 16.278 39.229-7.0411 7.3292-19.058 9.0554-27.786 3.9912zm-400.52-22.768c-2.1709-1.5318-2.25-2.1413-2.25-17.34 0-11.076 0.371-16.23 1.25-17.362 0.9278-1.195 12.593-3.561 45.25-9.178l44-7.5679 20-20.376c11-11.207 20.983-20.888 22.184-21.513 1.5602-0.8119 19.272-1.1359 62-1.1342l59.816 0.0025 28 22.572c15.4 12.415 29.012 23.436 30.25 24.491 2.2041 1.8797 2.25 2.3575 2.25 23.426 0 20.343-0.1108 21.617-2.0485 23.555-1.671 1.671-3.0857 1.9934-7.6784 1.75l-5.6301-0.2985-1.1572-5.1565c-2.3028-10.26-11.314-20.255-21.504-23.85-9.7496-3.4399-22.019-0.7334-30.494 6.7267-4.7653 4.1945-7.7312 9.5078-9.9248 17.78l-1.1933 4.5h-152.72l-1.1523-5.1165c-3.4704-15.409-17.224-26.068-32.499-25.188-14.454 0.8327-25.551 10.55-29.469 25.805l-1.1557 4.5-6.9378 0.2809c-5.0829 0.2058-7.5395-0.1435-9.1879-1.3067zm186.42-45.805c1.3204-1.3175 1.646-34.215 0.3625-36.613-1.0697-1.9988-1.8721-2.056-28.826-2.056h-27.726l-16.328 16.35c-13.244 13.262-16.264 16.799-15.989 18.725 0.6828 4.7801 2.3546 4.9482 46.507 4.6773 22.642-0.1389 41.542-0.6264 42-1.0833zm80.753-1.5936c5.1458-4.8368 4.0944-6.8925-11.644-22.766l-14.223-14.345-23.527 0.2675-23.527 0.2676-0.2735 18.496c-0.2476 16.742-0.1053 18.62 1.5 19.796 1.3918 1.0203 9.0196 1.2363 35.444 1.0038l33.671-0.2962 2.5791-2.4243zm54.579 47.439c0-1.2555 1.7664-1.5151 10.309-1.5151 10.805 0 13.225-0.7849 13.87-4.5 0.3292-1.8968 1.2391-2.0141 17.64-2.2739l17.293-0.2738-0.3057 4.7738-0.3058 4.7739-29.25 0.2651c-25.58 0.2318-29.25 0.075-29.25-1.25zm121.31-2.9924c-0.5635-2.4625-0.7893-4.7125-0.5018-5s8.1053-0.5227 17.373-0.5227h16.85l-2.5337 5-2.5337 5h-27.629l-1.0246-4.4773zm-97.312-42.055c0-29.246 0.5244-33.073 4.8496-35.387 2.7385-1.4656 119.47-1.5142 122.21-0.0509 4.5612 2.4412 4.9446 5.1486 4.9446 34.921v28.05h-41.206l-4.7507-4.2713c-5.257-4.7265-13.043-7.7287-20.043-7.7287s-14.786 3.0022-20.043 7.7287l-4.7507 4.2713h-41.206v-27.532z" fill="#010101"/>
 <path d="m448.3 989.55c-8.6392-2.2522-13.704-9.1026-13.704-18.536 0-6.3568 1.8469-10.852 5.8386-14.211 9.635-8.1073 24.807-5.3494 30.04 5.4605 3.2686 6.7521 2.8824 13.385-1.1289 19.387-4.9464 7.4014-12.328 10.172-21.046 7.8991zm156.8-1.4131c-6.6748-4.1596-10.505-10.16-10.494-16.438 0.0209-11.927 8.9906-20.356 20.684-19.438 12.334 0.96838 20.99 13.103 17.307 24.264-1.5572 4.7184-6.5805 10.417-10.699 12.138-4.7416 1.9812-13.2 1.7163-16.798-0.52599zm-183.75-19.205c-1.5759-0.91624-1.75-3.0398-1.75-21.347v-20.33l6.5486-17.37c3.6017-9.5538 7.1983-18.362 7.9924-19.574 0.7987-1.219 2.8994-2.452 4.7014-2.7595 4.7041-0.80277 47.805-3.1571 48.322-2.6396 0.2395 0.23945 0.4354 15.162 0.4354 33.162 0 28.92 0.184 32.797 1.5818 33.333 0.87 0.33385 24.495 0.60699 52.5 0.60699 28.542 0 50.918 0.38564 50.918 0.87756 0 0.48265-0.6638 1.4285-1.4751 2.1018s-2.4762 4.3324-3.6997 8.1313l-2.2246 6.9071-51.55-0.2589-51.55-0.25889-1.6767-5.2345c-3.615-11.285-12.962-19.363-24.184-20.902-7.9188-1.0854-19.951 4.0975-24.854 10.706-1.0485 1.4133-2.9473 5.4443-4.2195 8.9579-2.4778 6.843-3.0976 7.4708-5.8157 5.8906zm27.726-42.473c8.8133-0.85542 17.037-1.9708 18.274-2.4786 2.1928-0.89978 2.25-1.306 2.25-15.976 0-12.524-0.2545-15.15-1.5151-15.634-2.7639-1.0606-30.66 1.3898-32.069 2.817-2.3986 2.4297-11.591 27.994-10.964 30.492 0.7228 2.8799 1.9732 2.9205 24.024 0.78023zm193.19 42.889c-0.3667-0.36666-0.6667-1.6215-0.6667-2.7886 0-2.1826-2.1857-6.9546-5.4024-11.795l-1.8276-2.75h37.325l-0.2977 6.25-0.2977 6.25-8 2.6846c-7.6133 2.5549-19.229 3.7529-20.833 2.1487z" fill="#010101"/>
 <path d="m242.35 238.49c-0.9212-0.53752-2.1722-2.484-2.78-4.3256-2.5889-7.8444 4.6523-14.01 12.34-10.507 5.0447 2.2985 5.8568 11.186 1.3129 14.369-2.4124 1.6898-8.3384 1.9422-10.873 0.46312zm-21.825-9.9619c0-0.5641 2.8333-1 6.5-1s6.5 0.4359 6.5 1-2.8333 1-6.5 1-6.5-0.4359-6.5-1zm41 0c0-0.55664 2.6863-1 6.059-1 3.7847 0 5.8271 0.37536 5.441 1-0.3399 0.55-3.0665 1-6.059 1s-5.441-0.45-5.441-1zm-41-18.3c0-7.4556 0.4083-11.708 1.2-12.5 0.8698-0.86982 8.1318-1.2 26.393-1.2 22.05 0 25.269 0.19732 25.8 1.5818 0.3339 0.86998 0.607 6.495 0.607 12.5v10.918h-8.0405c-6.7699 0-8.5214-0.35555-11.084-2.25-2.1683-1.6031-4.4327-2.25-7.8757-2.25s-5.7074 0.64691-7.8757 2.25c-2.5624 1.8944-4.3139 2.25-11.084 2.25h-8.0405v-11.3z" fill="#010101"/>
 <path d="m107.51 391.58c-5.5178-3.2017-9.3783-8.0578-10.904-13.716-1.255-4.6555-0.4615-13.497 1.5584-17.362 3.4949-6.689 12.796-12.105 20.853-12.142 19.834-0.09109 30.156 24.783 16.278 39.229-7.0411 7.3292-19.058 9.0554-27.786 3.9912zm-78.775-22.727c0-1.2555 1.7664-1.5151 10.309-1.5151 10.805 0 13.225-0.78493 13.87-4.5 0.3293-1.8968 1.2392-2.0141 17.64-2.2738l17.293-0.27386-0.3057 4.7739-0.3058 4.7738-29.25 0.2651c-25.58 0.23184-29.25 0.07499-29.25-1.25zm121.31-2.9924c-0.5635-2.4625-0.7893-4.7125-0.5018-5s8.1053-0.52273 17.373-0.52273h16.85l-2.5337 5-2.5337 5h-27.629l-1.0246-4.4773zm-97.312-42.055c0-29.246 0.5244-33.073 4.8496-35.387 2.7385-1.4656 119.47-1.5142 122.21-0.05085 4.5612 2.4411 4.9446 5.1486 4.9446 34.921v28.05h-41.206l-4.7507-4.2713c-5.257-4.7265-13.043-7.7287-20.043-7.7287s-14.786 3.0022-20.043 7.7287l-4.7507 4.2713h-41.206v-27.532z" fill="#010101"/>
 <path d="m388.35 265.22c-7.3288-1.9002-14.181-7.6938-16.949-14.33-2.1338-5.1158-1.9654-15.286 0.3357-20.282 4.1024-8.906 12.258-13.876 22.645-13.799 6.3621 0.04698 14.289 3.1729 17.602 6.9413 2.9335 3.3368 5.9658 10.398 6.5172 15.176 1.046 9.0638-5.9645 21.326-14.147 24.745-4.1694 1.7421-12.245 2.5239-16.003 1.5494zm228.67-0.96784c-5.9186-2.0993-12.226-7.6304-14.738-12.923-1.2086-2.547-1.5409-5.5458-1.2829-11.579 0.3168-7.4082 0.6573-8.5714 3.7781-12.906 10.46-14.53 33.748-13.171 41.654 2.4302 3.6716 7.2456 4.0815 13.075 1.4166 20.146-4.9438 13.117-17.98 19.39-30.828 14.833zm-273.17-24.839c-3.5607-1.2726-4-3.4477-4-19.806 0-11.32 0.3721-16.624 1.25-17.819 0.9775-1.3305 11.477-3.4313 48.169-9.6382l46.919-7.9369 22.631-22.553 22.631-22.553h130.39l29.753 23.587c16.364 12.973 30.765 24.698 32.003 26.056 2.192 2.4055 2.25 3.0434 2.25 24.722 0 26.772 0.2329 26.135-9.5575 26.135h-6.7188l-1.6772-6c-2.3764-8.501-4.2357-11.584-10.255-17.007-7.6975-6.934-12.512-8.7913-22.792-8.7913-10.172 0-15.576 2.0306-22.62 8.4994-4.9007 4.5002-10.366 14.384-10.394 18.799-0.034 5.2726 4.1678 5.0302-82.446 4.756l-80.835-0.25596-1.6675-6c-2.3596-8.4904-4.2206-11.58-10.245-17.007-7.5373-6.7898-12.546-8.7642-22.292-8.7872-9.891-0.02333-15.034 1.7981-22.085 7.8223-5.6356 4.8146-11.415 14.653-11.415 19.431 0 1.4522-0.54 3.1803-1.2 3.8403-1.1973 1.1973-12.824 1.5697-15.8 0.50602zm196-49.283c1.2226-0.77142 1.5578-4.2735 1.8126-18.934 0.2039-11.734-0.0691-18.7-0.7852-20.038-1.0681-1.9958-1.8803-2.0511-30.085-2.0511h-28.987l-17.477 16.734c-14.217 13.613-17.478 17.24-17.478 19.443 0 5.8011 0.1881 5.8238 47.972 5.807 25.626-0.00902 44.144-0.40458 45.028-0.9618zm87.421-1.9472c1.6752-1.5745 2.5794-3.4899 2.5794-5.4643 0-2.5874-2.2757-5.3157-15.286-18.326l-15.286-15.286h-23.632c-12.998 0-24.344 0.27315-25.214 0.60699-1.3664 0.52432-1.5818 3.221-1.5818 19.8 0 13.893 0.3409 19.534 1.2345 20.428 0.9451 0.94508 9.8355 1.1678 37.921 0.95l36.686-0.2845 2.5795-2.4243z" fill="#010101"/>
 <path d="m29.11 128.66c-4.8611-1.2925-12.597-8.1766-14.91-13.268-3.7019-8.1496-1.6438-20.863 4.4336-27.388 8.6541-9.2911 26.119-9.5689 35.038-0.55724 9.6461 9.7458 9.7722 25.336 0.2818 34.827-6.6331 6.6331-15.42 8.8918-24.844 6.386zm15.115-7.4452c8.5326-4.252 12.206-12.263 9.6192-20.975-3.2186-10.838-14.04-16.121-24.268-11.848-4.7503 1.9848-7.022 4.0893-9.3609 8.672-4.7477 9.3022-0.5445 20.194 9.6064 24.894 5.4122 2.5058 8.1688 2.3635 14.403-0.74299zm90.464 7.212c-8.5643-2.6794-15.295-10.785-16.843-20.286-1.5776-9.6773 5.7305-22.309 14.942-25.827 7.0078-2.6763 17.268-1.7284 22.713 2.0983 2.3458 1.6487 5.6141 4.917 7.2628 7.2628 3.8167 5.4304 4.7742 15.706 2.1129 22.675-4.5054 11.797-17.744 17.97-30.188 14.077zm14.133-6.469c13.531-6.2647 15.535-22.873 3.8371-31.796-3.1823-2.4272-4.5838-2.8079-10.337-2.8079s-7.1548 0.38069-10.337 2.8079c-9.7588 7.4435-10.196 22.606-0.838 29.058 7.278 5.0179 11.379 5.6533 17.675 2.7385zm-65.1-10.125c-11.235-1.185-15.468-4.2219-17.951-12.878-2.2835-7.9622-5.7955-13.511-11.129-17.584-4.6911-3.5819-12.503-6.5182-17.341-6.5182-3.256 0-4.979-3.236-4.979-9.3509 0-5.4462 3.7558-9.3077 13.228-13.6 7.5829-3.4363 9.3082-3.7 10.134-1.5489 0.3166 0.825 0.9631 1.5 1.4367 1.5s7.7644-5.175 16.202-11.5c20.652-15.482 22.267-15.473 34.043 0.19388 3.8755 5.156 7.2772 9.9761 7.5594 10.711 0.4819 1.2559-11.347 10.653-13.281 10.551-0.4514-0.02376-4.0724-4.5238-8.0465-10-4.4801-6.1734-7.8999-9.9545-9-9.9506-2.0592 0.00722-25.136 17.471-25.975 19.657-0.6484 1.6897 4.8179 7.783 8.9013 9.9222 3.8433 2.0135 6.3299 1.7554 8.0477-0.83532 1.4033-2.1162 2.2876-2.2695 14.872-2.5776l13.38-0.32764 7.2184-5.4224c3.9701-2.9823 7.5914-5.4224 8.0473-5.4224s2.3826 2.4534 4.2816 5.452l3.4527 5.452 12.128 0.04805c12.897 0.0511 15.202 0.85858 13.926 4.8791-0.5271 1.6607-1.8171 1.9876-9.3326 2.3653-10.497 0.52742-16.316 2.8386-22.066 8.7632-6.3725 6.5664-8.6431 12.155-8.6496 21.289l-0.0056 7.7487-11-0.13449c-6.05-0.07397-14.195-0.47148-18.1-0.88336zm-8.0255-83.447c-1.0083-2.6276 0.1682-3.8737 4.6856-4.9626 4.223-1.018 4.4557-1.261 4.7593-4.9686 0.3777-4.6124-0.9696-5.8157-5.5692-4.974-3.6458 0.66719-4.0095-0.13533-1.4778-3.2608 2.488-3.0715 5.5175-4.367 10.212-4.367 8.3283 0 13.405 5.2688 12.821 13.306l-0.3048 4.1938h-6.5197c-5.6494 0-7.1963 0.43386-11.588 3.25-5.7542 3.6902-6.2393 3.8134-7.0184 1.783z" fill="#010101"/>
 <path d="m27.829 258.16c-4.861-1.2925-12.597-8.1766-14.91-13.268-3.7019-8.1496-1.6438-20.863 4.4336-27.388 8.6541-9.2911 26.119-9.5689 35.038-0.55724 9.646 9.7458 9.7721 25.336 0.2818 34.827-6.6332 6.6331-15.42 8.8918-24.844 6.386zm105.58-0.23324c-8.5644-2.6794-15.295-10.785-16.843-20.286-1.5776-9.6773 5.7306-22.309 14.942-25.827 7.0078-2.6763 17.268-1.7284 22.713 2.0983 2.3459 1.6487 5.6141 4.917 7.2629 7.2628 3.8166 5.4304 4.7741 15.706 2.1128 22.675-4.5054 11.797-17.744 17.97-30.188 14.077zm-50.967-16.594c-11.235-1.185-15.468-4.2219-17.951-12.878-2.2835-7.9622-5.7956-13.511-11.129-17.584-4.691-3.5819-12.503-6.5182-17.341-6.5182-3.256 0-4.9791-3.236-4.9791-9.3509 0-5.4462 3.7559-9.3077 13.228-13.6 7.5828-3.4363 9.3081-3.7 10.134-1.5489 0.3166 0.825 0.9631 1.5 1.4367 1.5s7.7643-5.175 16.202-11.5c20.652-15.482 22.267-15.473 34.043 0.19388 3.8755 5.156 7.2772 9.9761 7.5594 10.711 0.4819 1.2559-11.347 10.653-13.281 10.551-0.4514-0.02376-4.0723-4.5238-8.0465-10-4.48-6.1734-7.8999-9.9545-9-9.9506-2.0591 0.00722-25.137 17.471-25.975 19.657-0.6484 1.6897 4.8179 7.783 8.9013 9.9222 3.8433 2.0135 6.3298 1.7554 8.0477-0.83532 1.4032-2.1162 2.2876-2.2695 14.872-2.5776l13.38-0.32764 7.2184-5.4224c3.9701-2.9823 7.5914-5.4224 8.0473-5.4224s2.3826 2.4534 4.2816 5.452l3.4527 5.452 12.128 0.04805c12.897 0.0511 15.202 0.85858 13.926 4.8791-0.527 1.6607-1.8171 1.9876-9.3326 2.3653-10.497 0.52742-16.316 2.8386-22.066 8.7632-6.3725 6.5664-8.643 12.155-8.6496 21.289l-0.0056 7.7487-11-0.13449c-6.05-0.07397-14.195-0.47148-18.1-0.88336zm-8.0255-83.447c-1.0083-2.6276 0.1683-3.8737 4.6856-4.9626 4.223-1.018 4.4557-1.261 4.7593-4.9686 0.3777-4.6124-0.9695-5.8157-5.5692-4.974-3.6457 0.66719-4.0094-0.13533-1.4777-3.2608 2.488-3.0715 5.5174-4.367 10.212-4.367 8.3282 0 13.405 5.2688 12.821 13.306l-0.3048 4.1938h-6.5197c-5.6493 0-7.1962 0.43386-11.588 3.25-5.7543 3.6902-6.2393 3.8134-7.0185 1.783z" fill="#010101"/>
 <path d="m92.988 1291.8c-5.0697-1.581-10.745-6.5799-12.735-11.217-1.7934-4.1795-1.7738-14.631 0.0339-18.082 1.6782-3.2034 7.0773-8.4364 10.585-10.26 3.4949-1.8165 13.835-1.6387 17.5 0.3009 3.9634 2.0977 9.115 7.5627 10.439 11.074 1.4927 3.9595 1.3198 13.147-0.3195 16.967-1.9873 4.6315-7.3802 9.2796-12.904 11.122-5.6564 1.8865-6.8259 1.8953-12.6 0.0948zm175.88-0.4315c-14.871-5.1745-18.874-23.745-7.4843-34.716 7.4517-7.1773 18.866-8.0117 26.755-1.9559 6.5986 5.0655 8.1196 7.8192 8.5527 15.484 0.286 5.0626-0.0577 7.6913-1.3361 10.218-5.2478 10.372-15.729 14.713-26.487 10.969zm171.87-0.5707c-13.059-6.8021-15.87-26.586-5.2122-36.688 6.4285-6.0929 17.39-8.4861 24.761-5.4062 18.595 7.7696 19.367 34.352 1.2476 42.95-5.307 2.5184-15.091 2.1157-20.796-0.8559zm-412.88-22.519c-0.7304-1.3647-0.9999-8.7335-0.7962-21.77l0.3079-19.708 8.25-22.87c4.5375-12.578 8.25-24.15 8.25-25.715 0-1.8215-0.7195-3.23-2-3.9153-1.5415-0.825-2-2.0938-2-5.5352v-4.4648h148.55c164.8 0 152.83-0.5157 155.71 6.7116 0.8299 2.0836 4.2607 13.532 7.6239 25.44l6.1151 21.651v22.194c0 25.15-0.4917 27.198-6.9832 29.084-2.0525 0.5962-12.052 0.8961-24.017 0.7203l-20.5-0.3011-0.3519-2.4966c-0.1935-1.3732-1.6046-5.2596-3.1358-8.6365-4.4468-9.8074-15.971-17.367-26.476-17.367-14.047 0-27.433 11.272-30.069 25.32l-0.6934 3.6962-58.11-0.258-58.11-0.258-0.7094-4.1563c-1.4974-8.7728-7.7203-16.622-17.051-21.505-6.0825-3.1837-18.473-3.2025-24.517-0.0372-9.1324 4.7822-15.654 12.928-17.089 21.346l-0.7425 4.3532-20.177 0.2706c-19.499 0.2614-20.214 0.2012-21.281-1.7925zm56.401-48.51c2.3657-2.3658 2.7737-6.6183 2.4294-25.323-0.2904-15.774-0.491-17.436-2.2598-18.727-1.4741-1.0763-5.5648-1.4137-17-1.4021-8.2824 0.0084-15.654 0.3927-16.382 0.8539-1.4922 0.9461-15.177 37.183-15.177 40.188 0 1.0684 0.9 2.8425 2 3.9425 1.8756 1.8756 3.3333 2 23.429 2 17.914 0 21.68-0.2513 22.961-1.5321zm51.782-0.1229c1.0368-0.9383 1.8179-2.9953 1.8039-4.75-0.0354-4.406-10.499-38.678-12.123-39.708-0.7438-0.4713-7.6788-0.8638-15.411-0.8722-10.583-0.0115-14.539 0.3356-16 1.4041-1.8093 1.323-1.9411 2.7755-1.9411 21.395 0 18.24 0.1655 20.158 1.905 22.081 1.8094 1.9994 2.8588 2.105 20.921 2.105 16.292 0 19.278-0.2371 20.845-1.655zm51 0c1.0058-0.9102 1.8287-2.52 1.8287-3.5773 0-3.5685-10.19-38.252-11.756-40.018-1.3739-1.5477-3.6937-1.75-20.07-1.75-20.527 0-22.174 0.4669-22.174 6.2855 0 4.2031 9.8324 36.852 11.734 38.964 1.3928 1.5469 3.7243 1.75 20.092 1.75 15.826 0 18.782-0.2404 20.345-1.655zm50.829-0.345c1.1-1.1 2-2.3744 2-2.832s-2.4804-9.5702-5.5119-20.25c-3.3685-11.867-6.165-19.904-7.1912-20.668-1.1995-0.8929-6.8889-1.25-19.917-1.25-20.166 0-21.38 0.3512-21.38 6.1831 0 4.9049 9.161 36.613 11.215 38.817 1.7327 1.8598 3.1522 1.9995 20.324 1.9995 17.128 0 18.606-0.1444 20.461-2zm50.429 0.4286c0.8643-0.8643 1.5714-2.8716 1.5714-4.4606 0-4.9252-9.837-38.351-11.689-39.718-1.2133-0.8955-7.0206-1.25-20.479-1.25h-18.786l-1.6331 2.4925c-1.5585 2.3785-1.3881 3.3724 3.7269 21.747 3.0123 10.821 6.1266 20.023 7.1101 21.008 1.5412 1.5435 3.9492 1.7527 20.179 1.7527 15.42 0 18.685-0.2566 20-1.5714zm50.743-0.0836c2.687-2.4317 2.3147-5.6024-2.7684-23.58-4.6785-16.547-5.8479-19.694-7.8026-20.999-0.6052-0.4041-9.3899-0.7416-19.522-0.75-15.752-0.0131-18.686 0.2245-20.25 1.6397-1.0058 0.9102-1.8225 2.5977-1.815 3.75 0.0287 4.3899 10.868 39.035 12.612 40.31 1.2764 0.9334 6.6729 1.2846 19.737 1.2846 15.327 0 18.25-0.2442 19.809-1.655zm22.829 48.17c0-1.2555 1.7664-1.5151 10.309-1.5151 10.805 0 13.225-0.7849 13.87-4.5 0.3292-1.8968 1.2391-2.0141 17.64-2.2739l17.293-0.2738-0.3057 4.7738-0.3058 4.7739-29.25 0.2651c-25.58 0.2318-29.25 0.075-29.25-1.25zm121.32-2.966c-0.56682-2.477-0.79535-4.7389-0.50785-5.0264 0.85655-0.8565 33.029-0.592 33.565 0.276 0.27149 0.4393-0.50308 2.5768-1.7213 4.75l-2.2149 3.9513-14.045 0.2764-14.045 0.2764-1.0306-4.5037zm-97.318-41.9c0-17.438 0.4017-28.503 1.1084-30.53 2.1769-6.2445 0.8327-6.1188 65.408-6.1188 38.29 0 59.283 0.357 60.539 1.0296 4.5612 2.4412 4.9446 5.1486 4.9446 34.921v28.05h-41.608l-3.3279-3.4335c-10.501-10.834-31.628-10.834-42.129 0l-3.3279 3.4335h-41.608v-27.351z" fill="#010101"/>
 <path d="m331.2 993.79c-6.433-2.0507-12.997-8.7518-14.528-14.831-4.1641-16.537 5.6151-29.98 21.871-30.064 5.276-0.0273 7.3474 0.4662 11 2.6211 5.9593 3.5158 8.6118 6.4935 10.466 11.749 6.6239 18.774-10.097 36.49-28.809 30.525zm-284.03-0.89819c-4.2934-1.5303-10.032-6.5742-12.21-10.731-1.6635-3.1754-1.8713-13.458-0.3534-17.485 1.4631-3.8805 6.7567-9.2613 10.828-11.006 3.9112-1.676 12.406-1.9098 16.25-0.4472 3.9536 1.5041 9.9811 7.1807 11.51 10.84 1.7347 4.1517 1.7367 13.441 0.0039 17.58-1.8308 4.3731-8.6766 10.353-13.332 11.646-4.9832 1.3837-7.9615 1.2906-12.696-0.39699zm147.25-0.0956c-12.236-3.7675-17.741-20.477-10.401-31.569 3.1044-4.691 6.261-6.8301 12.447-8.4348 12.537-3.2521 24.865 4.8914 25.877 17.094 0.68566 8.2685-0.4449 12.14-4.9821 17.063-2.9031 3.1496-5.508 4.8378-9.1193 5.9103-6.0662 1.8014-7.7906 1.7935-13.821-0.0635zm-181.81-23.319c-0.6397-1.1952-1.062-9.3485-1.062-20.502v-18.518l8.5-24.155c4.675-13.285 8.5-25.162 8.5-26.393s-0.9215-3.0725-2.0478-4.0918c-1.5494-1.4022-1.9753-2.8393-1.75-5.905l0.2978-4.0517 99-0.2608c72.936-0.1922 99.736 0.0423 101.8 0.8908 1.5384 0.63346 3.425 2.3659 4.1924 3.8498s4.3461 13.135 7.9528 25.892l6.5576 23.194v22.017c0 24.283-0.4775 26.63-5.8737 28.865-4.7526 1.9686-6.19 1.0873-8.0701-4.9477-2.6218-8.4158-4.5411-11.42-10.149-15.885-6.0406-4.8095-11.09-6.4842-19.531-6.4774-7.039 0.0056-14.635 3.1958-20.248 8.5037-3.5822 3.3875-7.7022 11.226-8.7297 16.609l-0.6204 3.25h-43.42c-33.888 0-43.495-0.2744-43.761-1.25-3.2445-11.91-3.9703-13.402-8.8071-18.101-6.7441-6.5526-12.463-8.9662-21.29-8.9852-8.0671-0.0173-12.776 1.6827-19.167 6.92-5.2237 4.2804-9.1422 10.681-10.141 16.563l-0.7388 4.3532-5.1647 0.3001c-4.3086 0.2504-5.3406-0.0288-6.2266-1.6842zm57.066-48.767c1.0118-1.2174 1.4608-6.1129 1.7088-18.633 0.1851-9.3397 0.0549-18.482-0.2893-20.317-1.1393-6.0734-2.0827-6.3996-18.508-6.3996-12.657 0-15.12 0.2552-16.888 1.75-2.0547 1.7367-15.151 36.138-15.151 39.798 0 0.9869 0.7447 2.6174 1.655 3.6232 1.5087 1.6671 3.6187 1.8287 23.878 1.8287 19.437 0 22.395-0.207 23.595-1.6512zm51.044-0.0038c2.703-2.4462 2.3316-5.2534-3.2308-24.415-3.4493-11.882-5.7124-17.987-7.1108-19.18-1.7299-1.4758-4.1317-1.75-15.33-1.75-19.112 0-18-1.4816-18 23.994 0 18.811 0.1307 20.264 1.9411 21.588 1.5146 1.1071 6.1116 1.4188 20.921 1.4188 16.258 0 19.242-0.2374 20.809-1.655zm54.629 0.455c0.66-0.66 1.2-2.7031 1.2-4.5403 0-5.1047-9.805-38.56-11.726-40.01-1.1848-0.8942-6.868-1.25-19.965-1.25-16.976 0-18.454 0.1457-20.309 2-1.1 1.1-2 2.4439-2 2.9864 0 2.3912 10.323 37.739 11.613 39.764 1.4051 2.206 1.8106 2.25 20.71 2.25 13.66 0 19.627-0.3497 20.477-1.2zm50.629-0.3714c2.4488-2.4489 1.8829-6.6449-3.3569-24.888-3.5798-12.464-5.4572-17.434-7.0822-18.75-1.9407-1.5715-4.3989-1.7905-20.1-1.7905-16.556 0-18.038 0.1491-19.889 2-1.1 1.1-2 2.8192-2 3.8204 0 2.8723 10.003 36.43 11.605 38.93 1.4113 2.2032 1.8348 2.25 20.347 2.25 15.854 0 19.159-0.2537 20.477-1.5714zm22.571 48.104c0-1.185 2.1438-1.5217 11.143-1.75 11.555-0.2932 11.816-0.3927 13.262-5.0565 0.503-1.6228 2.0192-1.7504 17.819-1.5l17.27 0.2737-0.3443 4c-0.1894 2.2-0.5523 4.3375-0.8063 4.75s-13.485 0.75-29.403 0.75c-24.772 0-28.941-0.2114-28.941-1.4672zm121.22-2.7828c-0.4913-2.3375-0.7162-4.5875-0.4999-5 0.4651-0.8867 32.665-1.0274 33.546-0.1466 0.3319 0.3319-0.3578 2.5819-1.5326 5l-2.136 4.3966h-28.484l-0.8932-4.25zm-96.801-15.089c-0.2827-0.7366-0.3811-14.049-0.2187-29.583l0.2954-28.244 3.2658-2.9166 3.2658-2.9166h58.534c65.488 0 63.422-0.2133 65.445 6.7558 0.69938 2.409 0.98052 13.373 0.78837 30.744l-0.29867 27-19.665 0.2709-19.665 0.2708-4.6623-4.0352c-5.86-5.0718-8.5629-6.4524-15.758-8.0489-9.665-2.1446-20.772 1.2459-27.696 8.4548l-3.4461 3.5876h-19.835c-15.652 0-19.944-0.2825-20.349-1.3394z" fill="#010101"/>
 <path d="m39.173 835.03c-7.7435-3.1015-12.145-9.6522-12.145-18.075 0-11.288 6.5105-18.069 17.891-18.634 7.8457-0.3891 11.928 1.3522 16.455 7.0184 3.4322 4.2962 4.6509 12.21 2.7617 17.934-3.1267 9.4741-15.781 15.433-24.962 11.756zm159.35-0.826c-4.6557-2.1555-8.9242-6.417-10.436-10.419-2.277-6.0267-0.5558-15.271 3.7245-20.005 4.7203-5.2197 15.443-7.2819 22.51-4.3292 4.4065 1.8412 9.3849 7.7566 10.729 12.748 4.1181 15.293-12.052 28.706-26.527 22.005zm76 0c-4.6557-2.1555-8.9242-6.417-10.436-10.419-2.277-6.0267-0.5558-15.271 3.7245-20.005 4.7203-5.2197 15.443-7.2819 22.51-4.3292 4.4065 1.8412 9.3849 7.7566 10.729 12.748 4.1181 15.293-12.052 28.706-26.527 22.005zm115.51 0.3029c-12.155-5.271-15.884-21.145-7.219-30.727 7.5639-8.3643 23.741-7.4187 30.027 1.755 5.2697 7.6907 5.1496 15.704-0.3434 22.898-5.3861 7.0539-14.514 9.5218-22.465 6.0738zm101 0c-12.155-5.271-15.884-21.145-7.219-30.727 5.2166-5.7686 17.134-7.5383 24.162-3.5881 4.441 2.496 8.658 8.6289 9.5456 13.883 2.3946 14.174-13.194 26.198-26.489 20.432zm-478.34-20.074c-0.3667-0.3667-0.6667-9.8076-0.6667-20.98v-20.313l7.157-19.113c5.4002-14.422 7.6707-19.33 9.25-19.996 2.2588-0.9527 49.602-3.9825 50.843-3.2537 0.4125 0.2423 0.75 15.023 0.75 32.846 0 31.015 0.083 32.45 1.9343 33.441 1.2602 0.6745 19.569 1.0352 52.542 1.0352h50.608l-2.4604 4.25c-1.3533 2.3375-2.9646 6.1625-3.5807 8.5l-1.1203 4.25h-103.56l-1.7279-5.4817c-2.3568-7.4766-7.143-13.434-13.673-17.018-4.7196-2.5903-6.4867-2.9958-12.964-2.9748-6.1654 0.02-8.4143 0.5021-12.638 2.7092-6.8351 3.5717-11.777 9.5321-13.968 16.848-1.4474 4.832-2.1657 5.9173-3.9166 5.9173-1.1792 0-2.4441-0.3-2.8107-0.6667zm29.272-42.338c10.141-1.0848 18.816-2.3501 19.278-2.8118s0.7145-7.5544 0.5617-15.762l-0.2777-14.922-6.6222-0.2928c-9.5334-0.4215-24.8 1.2865-26.476 2.962-1.5609 1.5609-11.372 26.437-11.39 28.881-0.0165 2.1608 2.0054 3.953 4.4382 3.934 1.1275-0.0088 10.347-0.9035 20.488-1.9883zm191.72 39.241c-0.331-2.0697-1.9536-5.8947-3.6058-8.5l-3.004-4.7368h34.04l-2.4604 4.25c-1.3533 2.3375-2.9646 6.1625-3.5807 8.5l-1.1203 4.25h-19.667l-0.6017-3.7632zm76 0c-0.331-2.0697-1.9536-5.8947-3.6058-8.5l-3.004-4.7368h37.051l-0.2977 6.2132-0.2977 6.2131-7 2.2365c-4.6065 1.4717-9.6063 2.2536-14.622 2.2868l-7.6222 0.0504-0.6017-3.7632zm42.013-1.9035c-0.3667-0.3667-0.6667-3.0667-0.6667-6v-5.3333h12.5c6.875 0 12.5 0.268 12.5 0.5956s-0.8888 1.8438-1.9751 3.3694-2.4252 3.9575-2.9752 5.4044c-0.9762 2.5675-1.2125 2.6306-9.8583 2.6306-4.8719 0-9.1581-0.3-9.5247-0.6667zm71.468-2.3776c-0.58363-1.6743-2.0083-4.3743-3.1659-6l-2.1047-2.9557h29.568c16.262 0 29.568 0.268 29.568 0.5956s-0.88879 1.8438-1.9751 3.3694-2.4252 3.9575-2.9752 5.4044l-1.0002 2.6306h-46.854l-1.0612-3.0443zm101 0c-0.58368-1.6743-2.0083-4.3743-3.1659-6l-2.1047-2.9557h25.136v12h-18.804l-1.0612-3.0443zm-429.13-57.452v-39.504h245.02l-0.2616 39.25-0.2616 39.25-122.25 0.2539-122.25 0.254v-39.504zm268.67 38.829c-0.3667-0.3667-0.6667-18.142-0.6667-39.5v-38.833h181v79h-89.833c-49.408 0-90.133-0.3-90.5-0.6667z" fill="#010101"/>
 <path d="m435.05 695.68c-9.8914-3.3728-14.196-9.5689-14.196-20.434 0-5.5921 0.4187-7.0366 3.25-11.212 4.2562-6.2774 9.3688-8.91 17.328-8.9228 12.132-0.0196 20.422 8.3966 20.422 20.734 0 11.832-5.818 18.296-19 21.11-1.375 0.2936-4.8868-0.2801-7.804-1.2748zm148.48 0.4651c-5.8812-1.5517-13.244-8.3284-14.685-13.517-2.1058-7.5801-0.55246-15.18 4.2118-20.606 3.7999-4.3278 6.9604-6.0237 12.881-6.9116 6.299-0.9446 12.251 0.8952 17.125 5.2938 5.0818 4.5856 6.7904 8.537 6.7904 15.704 0 9.1006-5.3557 16.923-13.225 19.316-6.1657 1.8752-8.2806 1.9914-13.099 0.7202zm-183.13-23.137c-1.507-1.507-1.6491-3.9462-1.2987-22.3l0.3933-20.608 8.1775-22.404c4.4976-12.322 8.1775-23.669 8.1775-25.215 0-1.7877-0.7281-3.2008-2-3.8815-1.5415-0.825-2-2.0938-2-5.5352v-4.4648h100.07c66.719 0 100.71 0.3431 101.99 1.0296 3.1155 1.6674 4.8018 6.0336 11.537 29.871l6.3854 22.6 0.01112 22.734 0.01113 22.734-2.7632 3.0926c-1.9604 2.1941-3.7567 3.1429-6.183 3.2658-3.2078 0.1624-3.4711-0.0675-4.2486-3.7091-3.2412-15.181-16.982-25.6-32.154-24.382-6.9185 0.5553-11.231 2.4201-17.021 7.3595-5.2104 4.4453-6.5351 6.5124-9.1515 14.281l-2.2308 6.6237h-86.693l-0.70953-4.1563c-2.8051-16.432-20.004-27.384-36.71-23.376-4.682 1.1232-12.805 6.2237-15.909 9.9888-2.687 3.26-5.622 9.7099-6.163 13.544-0.5579 3.9534-0.6183 4.0035-5.1932 4.2998-3.3177 0.2149-5.108-0.1794-6.3209-1.3923zm55.839-48.94c2.3619-2.3619 2.774-6.6186 2.4294-25.09-0.23554-12.623-0.67658-17.507-1.6911-18.727-1.1694-1.4062-3.6845-1.6482-17-1.6351-8.5952 0.0084-16.173 0.3617-16.839 0.785-1.498 0.952-2.8338 4.1299-9.7852 23.279-3.027 8.3385-5.5036 16.007-5.5036 17.041s0.9 2.7798 2 3.8798c1.8756 1.8755 3.3333 2 23.429 2 17.914 0 21.68-0.2513 22.961-1.5322zm51.782-0.1228c1.0258-0.9283 1.8256-3.0139 1.8215-4.75-0.0101-4.3357-10.518-38.679-12.151-39.714-0.7378-0.4676-7.668-0.8571-15.4-0.8655-10.583-0.0115-14.539 0.3356-16 1.4041-1.8094 1.323-1.9411 2.7754-1.9411 21.395 0 18.24 0.1655 20.158 1.905 22.081 1.8094 1.9994 2.8588 2.105 20.921 2.105 16.292 0 19.278-0.2372 20.845-1.655zm54.257 0.0835c0.86429-0.8642 1.5714-3.0023 1.5714-4.7512 0-3.8479-9.4339-37.29-11.078-39.272-0.92859-1.1189-5.1147-1.4056-20.521-1.4056h-19.355l-1.6223 2.476c-1.5456 2.3589-1.3579 3.4106 3.9717 22.25 3.4817 12.307 6.2346 20.246 7.2904 21.024 1.2109 0.8923 6.9152 1.25 19.934 1.25 15.246 0 18.495-0.2578 19.809-1.5715zm50.743-0.0835c2.7303-2.4709 2.2915-6.2826-2.7419-23.818-4.6551-16.217-5.8776-19.459-7.8291-20.762-0.60517-0.4041-9.3899-0.7416-19.522-0.75-15.752-0.0131-18.686 0.2245-20.25 1.6397-1.0058 0.9102-1.8213 2.5977-1.8122 3.75 0.03419 4.3344 10.918 39.074 12.636 40.33 1.2431 0.9089 6.7906 1.265 19.71 1.265 15.327 0 18.25-0.2442 19.809-1.655z" fill="#010101"/>
 <path d="m48 691.68c-2.2638-1.0281-5.4027-3.5561-6.9752-5.6177-2.351-3.0824-2.9174-4.9232-3.187-10.359-0.3899-7.8629 1.3517-11.929 7.0655-16.494 3.1041-2.4802 4.9227-3.0984 10.082-3.4269 8.2566-0.5258 13.547 2.0335 17.682 8.5532 10.338 16.301-6.9025 35.412-24.668 27.344zm161.12 0.4918c-3.7649-1.6854-9.0441-7.1948-10.439-10.894-1.6068-4.262-1.2372-10.701 0.8822-15.369 3.9989-8.8079 16.827-13.025 25.759-8.4678 11.075 5.6499 14.294 18.335 7.1539 28.191-5.0544 6.9775-15.712 9.9616-23.357 6.5396zm76 0c-3.7649-1.6854-9.0441-7.1948-10.439-10.894-1.6068-4.262-1.2372-10.701 0.8822-15.369 3.9989-8.8079 16.827-13.025 25.759-8.4678 11.075 5.6499 14.294 18.335 7.1539 28.191-5.0544 6.9775-15.712 9.9616-23.357 6.5396zm-199.81-19.329c-0.2343-0.4125-1.172-3-2.0839-5.75s-3.2554-7.1778-5.2078-9.8395c-9.3402-12.734-30.624-13.76-41.54-2.0038-3.1375 3.3792-6.3386 9.5588-7.3301 14.151-0.6155 2.8508-1.0812 3.2651-3.372 3l-2.6579-0.3075-0.2701-20.676-0.27-20.676 7.1733-19.157c5.6142-14.993 7.6427-19.335 9.3331-19.978 2.3701-0.9011 49.574-3.9768 50.784-3.3089 0.4125 0.2278 0.75 14.923 0.75 32.655 0 23.743 0.3163 32.557 1.2 33.441 0.9021 0.9021 13.933 1.2 52.5 1.2 28.215 0 51.3 0.205 51.3 0.4556s-1.0789 2.0454-2.3975 3.9885-2.9385 5.7881-3.5997 8.5444l-1.2023 5.0115h-51.341c-28.238 0-51.533-0.3375-51.767-0.75zm-32.498-43.173c9.7316-1.0392 18.169-2.1832 18.75-2.5422 0.6656-0.4114 1.0563-6.1904 1.0563-15.625 0-12.617-0.2445-15.066-1.5538-15.569-0.8547-0.3279-8.0608-0.179-16.014 0.3309-10.485 0.6722-14.869 1.3359-15.947 2.4143-1.6204 1.6204-11.454 26.445-11.474 28.964-0.0175 2.3006 2.056 3.9522 4.9382 3.9332 1.4025-0.0092 10.512-0.867 20.244-1.9062zm192.5 43.173c-0.2353-0.4125-0.7173-2.3581-1.0712-4.3235s-1.9782-5.6779-3.6094-8.25l-2.9657-4.6765h16.978c9.3379 0 16.978 0.205 16.978 0.4556s-1.0789 2.0454-2.3975 3.9885-2.9385 5.7881-3.5997 8.5444l-1.2023 5.0115h-9.3412c-5.1377 0-9.5337-0.3375-9.7689-0.75zm76.082 0.1336c-0.2806-0.486-0.7998-2.4917-1.1537-4.4571s-1.9782-5.6779-3.6094-8.25l-2.9657-4.6765h37.051l-0.2977 6.1613-0.2977 6.1613-7 2.398c-7.3489 2.5175-20.855 4.1729-21.727 2.663zm-215.77-65.884v-39.5h245v79h-245v-39.5z" fill="#010101"/>
 <path d="m55.821 548.27c-7.2396-3.7653-10.5-9.1465-10.5-17.33 0-5.8231 1.2896-9.6903 4.3166-12.944 8.2623-8.8827 23.842-7.9141 30.327 1.8853 2.0897 3.1578 2.8678 5.7117 3.1468 10.328 0.3366 5.5711 0.0716 6.5809-2.8901 11.013-2.1381 3.1996-4.6617 5.5158-7.3306 6.728-4.9881 2.2656-13.039 2.4164-17.07 0.3199zm161 0.1849c-4.3847-1.9137-10.275-8.8944-11.067-13.116-1.6958-9.0396 2.2977-17.735 9.8164-21.375 18.325-8.871 36.456 11.561 24.682 27.814-5.2163 7.2009-15.51 10.134-23.432 6.6769zm118-0.1817c-5.113-2.6538-8.4549-6.6117-10.166-12.04-1.4225-4.5127-1.4664-5.8463-0.3262-9.9186 2.4748-8.8389 9.79-14.491 18.702-14.45 10.832 0.0497 18.307 7.0616 19.091 17.908 0.4473 6.1839-0.6844 9.2685-5.2715 14.368-4.9177 5.4673-15.598 7.4706-22.03 4.1323zm101 0c-5.113-2.6538-8.4549-6.6117-10.166-12.04-1.4225-4.5127-1.4663-5.8463-0.3262-9.9186 2.4748-8.8389 9.79-14.491 18.702-14.45 10.832 0.0497 18.307 7.0616 19.091 17.908 0.44731 6.1839-0.68438 9.2685-5.2715 14.368-4.9177 5.4673-15.598 7.4706-22.03 4.1323zm-403.25-19.516c-2.2302-0.8429-2.2502-1.0293-2.2769-21.133l-0.0269-20.282 7.2443-19.357c5.4936-14.68 7.741-19.546 9.3-20.139 2.2404-0.8518 49.537-3.8999 50.76-3.2713 0.4125 0.2122 0.75 14.894 0.75 32.627 0 23.743 0.3163 32.557 1.2 33.441 0.9021 0.9021 13.933 1.2 52.5 1.2 28.215 0 51.3 0.2665 51.3 0.5922s-0.8508 1.674-1.8908 2.996-2.7013 5.1096-3.6919 8.4167l-1.8011 6.0129-51.475-0.2589-51.475-0.2589-1.8596-5.5c-5.5061-16.285-21.148-24.634-35.807-19.112-9.7101 3.6576-16.361 11.173-18.454 20.851-0.8412 3.891-1.3703 4.2821-4.2963 3.1763zm28.817-42.791c9.1119-0.9787 17.099-2.1084 17.75-2.5104 0.8252-0.51 1.1828-5.2578 1.1828-15.703 0-12.564-0.2479-15.068-1.541-15.564-0.8476-0.3253-8.0828-0.1474-16.078 0.3952-10.43 0.7079-14.954 1.4036-16.013 2.4627-2.4699 2.4698-11.566 27.871-10.912 30.474 0.7246 2.8872 2.5814 2.9196 25.612 0.446zm191.7 43.249c-0.277-0.47996-0.7932-2.4809-1.1471-4.4463s-1.9782-5.6779-3.6094-8.25l-2.9657-4.6765h37.051l-0.2977 6.25-0.2977 6.25-7 2.3352c-7.3464 2.4507-20.873 4.0301-21.734 2.5376zm44.234-11.373v-6h25.196l-2.1575 3.25c-1.1866 1.7875-2.6248 4.4875-3.196 6-1.0315 2.7313-1.1022 2.75-10.441 2.75h-9.4022v-6zm71.542 3.311c-0.3712-1.479-1.545-3.9109-2.6084-5.4044s-1.9335-2.9834-1.9335-3.311 13.319-0.5956 29.598-0.5956h29.598l-2.1575 3.25c-1.1866 1.7875-2.6248 4.4875-3.196 6l-1.0385 2.75h-47.588l-0.6749-2.689zm101 0c-0.37119-1.479-1.545-3.9109-2.6084-5.4044s-1.9335-2.9834-1.9335-3.311 5.625-0.5956 12.5-0.5956h12.5v12h-19.783l-0.6749-2.689zm-356.54-57.811v-39.5h169v79h-169v-39.5zm196 0v-39.5h181v79h-181v-39.5z" fill="#010101"/>
 <path d="m258.16 400.38c-8.6392-2.2522-13.704-9.1027-13.704-18.536 0-6.3568 1.8469-10.852 5.8386-14.211 9.635-8.1073 24.807-5.3494 30.04 5.4605 3.2686 6.7522 2.8824 13.385-1.1289 19.387-4.9464 7.4014-12.328 10.172-21.046 7.8991zm156.8-1.4131c-6.6748-4.1596-10.505-10.16-10.494-16.438 0.02088-11.927 8.9906-20.356 20.684-19.438 12.334 0.9684 20.99 13.103 17.307 24.264-1.5572 4.7183-6.5804 10.417-10.699 12.138-4.7416 1.9812-13.2 1.7163-16.798-0.526zm-183.75-19.205c-1.5759-0.9162-1.75-3.0397-1.75-21.347v-20.33l6.5486-17.37c3.6017-9.5538 7.1983-18.362 7.9924-19.574 0.7987-1.219 2.8994-2.452 4.7014-2.7595 4.7041-0.8028 47.805-3.1571 48.322-2.6396 0.2395 0.2395 0.4354 15.162 0.4354 33.162 0 28.92 0.184 32.797 1.5818 33.333 0.87 0.3338 24.495 0.607 52.5 0.607 28.542 0 50.918 0.3856 50.918 0.8775 0 0.4827-0.6638 1.4285-1.4751 2.1018s-2.4762 4.3325-3.6997 8.1314l-2.2246 6.9071-51.55-0.2589-51.55-0.2589-1.6767-5.2345c-3.615-11.285-12.962-19.363-24.184-20.902-7.9188-1.0854-19.951 4.0975-24.854 10.706-1.0485 1.4133-2.9473 5.4443-4.2195 8.9579-2.4778 6.843-3.0976 7.4708-5.8157 5.8905zm27.726-42.473c8.8133-0.8555 17.037-1.9708 18.274-2.4786 2.1928-0.8998 2.25-1.306 2.25-15.976 0-12.524-0.2545-15.15-1.5151-15.634-2.7639-1.0606-30.66 1.3898-32.069 2.8169-2.3986 2.4297-11.591 27.994-10.964 30.492 0.7228 2.8799 1.9732 2.9205 24.024 0.7803zm193.19 42.889c-0.36667-0.3667-0.66667-1.6215-0.66667-2.7885 0-2.1827-2.1857-6.9546-5.4024-11.795l-1.8276-2.75h37.325l-0.29771 6.25-0.29772 6.25-8 2.6846c-7.6134 2.5549-19.229 3.7529-20.833 2.1487zm-139.67-65.833v-39.5h169v79h-169v-39.5z" fill="#010101"/>
 <path d="m17.382 1113c-0.7304-1.3647-0.9999-8.7335-0.7962-21.77l0.3079-19.708 8.25-22.855c4.5375-12.57 8.25-24.05 8.25-25.51 0-1.5711-0.8161-3.1638-2-3.9031-1.5178-0.9479-2-2.3321-2-5.7406v-4.4915h148.45c112.97 0 149.08 0.2856 151.07 1.1947 1.4422 0.6571 3.2374 2.3846 3.9895 3.8389s4.3183 13.082 7.925 25.838l6.5576 23.194v22.017c0 24.149-0.4931 26.636-5.7097 28.797-1.9081 0.7904-9.6709 1.075-24.297 0.8909l-21.493-0.2706-0.3519-2.4966c-0.1935-1.3732-1.5893-5.2259-3.1019-8.5617-2.9775-6.5669-8.6904-12.09-15.623-15.105-4.9867-2.1685-17.518-2.2425-22.423-0.1324-8.7435 3.762-16.908 13.927-18.516 23.054l-0.6623 3.758-58.133-0.258-58.133-0.258-0.7094-4.1563c-1.548-9.0693-8.4441-17.488-17.723-21.635-5.4332-2.4286-15.642-2.8323-21.387-0.8457-9.0867 3.1423-18.019 13.326-19.547 22.284l-0.7425 4.3532-20.177 0.2706c-19.499 0.2614-20.214 0.2012-21.281-1.7925zm57.139-48.632c1.0645-1.2826 1.3724-6.2371 1.3724-22.081 0-19.066-0.1293-20.522-1.9411-21.846-1.4743-1.078-5.5858-1.4194-17.095-1.4194-13.22 0-15.358 0.2256-16.754 1.7676-1.8542 2.0489-14.71 36.656-14.71 39.599 0 1.0867 0.7447 2.7988 1.655 3.8046 1.5087 1.6671 3.6187 1.8287 23.878 1.8287 19.451 0 22.394-0.2062 23.595-1.6537zm51.044-0.0013c1.0368-0.9383 1.8179-2.9953 1.8039-4.75-0.0354-4.406-10.499-38.678-12.123-39.708-0.7438-0.4713-7.6951-0.8638-15.447-0.8722-18.787-0.0204-17.802-1.1441-18.225 20.806-0.3469 18.007 0.0756 22.291 2.4309 24.647 2.3667 2.3666 38.929 2.2585 41.561-0.1229zm51 0c1.0058-0.9102 1.8287-2.52 1.8287-3.5773 0-3.5685-10.19-38.252-11.756-40.018-1.3739-1.5477-3.6937-1.75-20.07-1.75-24.875 0-24.826-0.0507-19.121 19.851 4.9302 17.2 7.1092 23.538 8.7318 25.399 1.3502 1.5487 3.6553 1.75 20.042 1.75 15.826 0 18.782-0.2404 20.345-1.655zm51.401-0.8154c1.5409-2.3517 1.3494-3.4206-3.9862-22.25-3.444-12.154-6.2533-20.262-7.2867-21.03-1.2013-0.8928-6.893-1.25-19.919-1.25-20.212 0-21.38 0.3424-21.38 6.2661 0 3.9655 8.6866 35.485 10.606 38.484 1.4124 2.2069 1.8128 2.25 20.894 2.25h19.454l1.6186-2.4704zm50.227 1.2704c0.66-0.66 1.2-2.7031 1.2-4.5403 0-5.1048-9.805-38.56-11.726-40.01-1.1848-0.8942-6.868-1.25-19.965-1.25-16.976 0-18.454 0.1456-20.309 2-1.1 1.1-2 2.4439-2 2.9864 0 2.3912 10.323 37.739 11.613 39.764 1.4051 2.206 1.8106 2.25 20.71 2.25 13.66 0 19.627-0.3497 20.477-1.2zm50.371-0.455c2.687-2.4317 2.3147-5.6024-2.7684-23.58-4.6785-16.547-5.8479-19.694-7.8026-20.999-0.6052-0.4041-9.3899-0.7416-19.522-0.75-15.752-0.0131-18.686 0.2245-20.25 1.6397-1.0058 0.9102-1.8287 2.6294-1.8287 3.8204 0 3.1216 9.8927 36.602 11.605 39.275 1.4102 2.2014 1.8444 2.25 20.09 2.25 15.949 0 18.913-0.2395 20.477-1.655zm-246.42 71.559c-5.0697-1.581-10.745-6.5799-12.735-11.217-1.7934-4.1795-1.7738-14.631 0.0339-18.082 1.6782-3.2034 7.0773-8.4364 10.585-10.26 3.4949-1.8165 13.835-1.6387 17.5 0.3009 3.9634 2.0977 9.115 7.5627 10.439 11.074 1.4927 3.9595 1.3198 13.147-0.3195 16.967-1.9873 4.6315-7.3802 9.2796-12.904 11.122-5.6564 1.8865-6.8259 1.8953-12.6 0.0948zm175.88-0.4315c-14.871-5.1745-18.874-23.745-7.4843-34.716 7.4517-7.1773 18.866-8.0117 26.755-1.9559 6.5986 5.0655 8.1196 7.8192 8.5527 15.484 0.286 5.0626-0.0577 7.6913-1.3361 10.218-5.2478 10.372-15.729 14.713-26.487 10.969z" fill="#010101"/>
</svg>
