<?xml version="1.0" encoding="UTF-8"?>
<svg viewBox="0 0 250 133" xmlns="http://www.w3.org/2000/svg">
 <defs>
  <filter id="h">
   <feGaussianBlur stdDeviation="18.39687"/>
  </filter>
  <filter id="f">
   <feGaussianBlur stdDeviation="1.04515"/>
  </filter>
  <filter id="e">
   <feGaussianBlur stdDeviation="1.50913"/>
  </filter>
  <filter id="g" x="-.13483" y="-.15379" width="1.2697" height="1.3076">
   <feGaussianBlur stdDeviation="2.89993"/>
  </filter>
  <filter id="aa" x="-.27173" y="-.52813" width="1.5435" height="2.0563">
   <feGaussianBlur stdDeviation="8.92074"/>
  </filter>
  <filter id="z" x="-.01355" y="-.18051" width="1.0271" height="1.361">
   <feGaussianBlur stdDeviation=".83406"/>
  </filter>
  <filter id="y" x="-.0437" y="-.50258" width="1.0874" height="2.0052">
   <feGaussianBlur stdDeviation="1.76825"/>
  </filter>
  <filter id="x" x="-.02412" y="-.21125" width="1.0482" height="1.4225">
   <feGaussianBlur stdDeviation="2.16789"/>
  </filter>
  <filter id="w" x="-.03234" y="-.41293" width="1.0647" height="1.8259">
   <feGaussianBlur stdDeviation="2.17757"/>
  </filter>
  <filter id="v" x="-.02725" y="-.20123" width="1.0545" height="1.4025">
   <feGaussianBlur stdDeviation="1.1505"/>
  </filter>
  <filter id="u" x="-.04478" y="-1.3093" width="1.0896" height="3.6186">
   <feGaussianBlur stdDeviation="1.34096"/>
  </filter>
  <linearGradient id="t" x1="325.61" x2="265.2" y1="497.84" y2="494.15" gradientUnits="userSpaceOnUse">
   <stop stop-color="#aaa" offset="0"/>
   <stop stop-color="#eee" offset="1"/>
  </linearGradient>
  <linearGradient id="s" x1="199.48" x2="155.47" y1="945.85" y2="949.82" gradientUnits="userSpaceOnUse">
   <stop stop-color="#aaa" offset="0"/>
   <stop stop-color="#e8e8e9" offset="1"/>
  </linearGradient>
  <linearGradient id="r" x1="218.59" x2="218.25" y1="995.37" y2="998.18" gradientUnits="userSpaceOnUse">
   <stop stop-color="#666" offset="0"/>
   <stop stop-color="#666" stop-opacity="0" offset="1"/>
  </linearGradient>
  <linearGradient id="q" x1="215.99" x2="216.29" y1="993.26" y2="991.81" gradientUnits="userSpaceOnUse">
   <stop stop-color="#cccccf" offset="0"/>
   <stop stop-color="#cccccf" stop-opacity="0" offset="1"/>
  </linearGradient>
  <linearGradient id="p" x2="0" y1="1015.8" y2="1022.1" gradientUnits="userSpaceOnUse">
   <stop offset="0"/>
   <stop stop-color="#333" offset="1"/>
  </linearGradient>
  <linearGradient id="o" x1="161.94" x2="168.49" y1="958.45" y2="982.48" gradientUnits="userSpaceOnUse">
   <stop offset="0"/>
   <stop stop-color="#888" offset="1"/>
  </linearGradient>
  <linearGradient id="n" x1="125.9" x2="121.52" y1="954.77" y2="979.2" gradientUnits="userSpaceOnUse">
   <stop offset="0"/>
   <stop stop-color="#aaa" offset="1"/>
  </linearGradient>
  <linearGradient id="m" x1="84.127" x2="80.851" y1="961.32" y2="985.75" gradientUnits="userSpaceOnUse">
   <stop offset="0"/>
   <stop stop-color="#cccccf" offset="1"/>
  </linearGradient>
  <linearGradient id="l" x1="53.413" x2="53.691" y1="973.6" y2="986.57" gradientUnits="userSpaceOnUse">
   <stop stop-color="#454d4b" offset="0"/>
   <stop stop-color="#a2b3b0" offset="1"/>
  </linearGradient>
  <linearGradient id="k" x1="119.35" x2="139" y1="1030.5" y2="945.63" gradientUnits="userSpaceOnUse">
   <stop stop-color="#cccccf" offset="0"/>
   <stop stop-color="#eee" offset="1"/>
  </linearGradient>
  <linearGradient id="j" x1="103.06" x2="115.46" y1="1019" y2="974.26" gradientUnits="userSpaceOnUse">
   <stop stop-color="#dededf" offset="0"/>
   <stop stop-color="#dededf" stop-opacity="0" offset="1"/>
  </linearGradient>
  <linearGradient id="i" x1="41.234" x2="97.751" gradientUnits="userSpaceOnUse">
   <stop stop-color="#dbdbdc" offset="0"/>
   <stop stop-color="#dbdbdc" stop-opacity="0" offset="1"/>
  </linearGradient>
  <linearGradient id="d" x1="211.78" x2="225.57" y1="471.15" y2="509.33" gradientUnits="userSpaceOnUse">
   <stop stop-color="#aaa" offset="0"/>
   <stop stop-color="#aaa" stop-opacity="0" offset="1"/>
  </linearGradient>
  <linearGradient id="c" x1="195.52" x2="197.11" y1="482.99" y2="480.87" gradientUnits="userSpaceOnUse">
   <stop offset="0"/>
   <stop stop-opacity="0" offset="1"/>
  </linearGradient>
  <linearGradient id="b" x1="197.64" x2="205.6" y1="473.62" y2="507.04" gradientUnits="userSpaceOnUse">
   <stop stop-color="#888" offset="0"/>
   <stop stop-color="#816647" offset="1"/>
  </linearGradient>
  <radialGradient id="a" cx="304" cy="41.751" r="73.486" gradientTransform="matrix(.06643 .36824 .32347 -.05084 202.75 357.68)" gradientUnits="userSpaceOnUse">
   <stop stop-color="#fb8b00" offset="0"/>
   <stop stop-color="#fb8b00" stop-opacity="0" offset="1"/>
  </radialGradient>
 </defs>
 <g transform="translate(0 -919.36)">
  <path d="m171.36 945.76 20.476-25.8-19.248 24.981-1.2286 0.81906z" fill="none" stroke="#362525" stroke-width=".5487"/>
  <path d="m0.23066 1041.8s123.01 11.587 184.63 10.178c13.151-0.3008 20.988-3.657 39.263-3.971 3.0576-0.052 23.833-9.0686 20.82-9.0999-82.053 6.8889-164.12-2.3909-244.71 2.8933z" stroke="#ece5e5" stroke-width=".46132"/>
  <g transform="matrix(.46684 0 0 .60585 113.72 728.71)">
   <path transform="matrix(.13907 0 0 .12714 158.9 445.12)" d="m577 304.86c0 83.119-67.605 150.5-151 150.5s-151-67.381-151-150.5 67.605-150.5 151-150.5 151 67.381 151 150.5z" fill-rule="evenodd" filter="url(#e)" stroke="#ece5e5" stroke-linecap="round" stroke-linejoin="round" stroke-width="10.052"/>
   <path d="m217.17 465.48c-7.86 0-14.646 4.5945-17.824 11.242 1.9927-3.291 5.1326-7.4008 9.3203-8.793l4.332 12.109c0.0117 0.163 0.0183 0.32346 0.0117 0.47266 0.927-0.79372 2.0913-1.3205 3.3711-1.457-0.1917-0.11585-0.37167-0.3088-0.55077-0.51562l-5.5-11.625c1.8494-0.9266 3.959-1.27 6.0625-1.2773 2.384-8e-3 4.7613 0.41466 6.7461 0.90234l-5.5781 12c-0.15662 0.22949-0.30279 0.38105-0.44141 0.48046 1.4923 0.0175 2.8558 0.5638 3.918 1.457-0.0706-0.22677-0.0603-0.5123-0.0391-0.80859l4.332-12.109c4.1877 1.3921 7.3276 5.4981 9.3203 8.7891l-12.43 4.543c-0.30678 0.0579-0.53841 0.0603-0.71485 0.0195 1.082 1.1176 1.75 2.638 1.75 4.3164 0 3.2973-2.5703 5.9961-5.8164 6.1992 0.19051 0.0738 0.39491 0.25453 0.62109 0.58594l5.5312 11.895c0.89221-0.30661 1.7566-0.67197 2.5859-1.0977l-4.5234-12.371c-0.19347-1.0251 0.2346-1.2273 0.80859-1.2383l0.41797 0.0156 12.109 4.332c-0.0942 0.28345-0.20228 0.56211-0.32032 0.83593 1.4344-2.7365 2.25-5.8524 2.25-9.1562 0-1.6202-0.19838-3.1924-0.5664-4.6992 0.68146 3.4908 0.93432 7.7202-0.75391 11.09l-11.625-5.5c-0.57438-0.4974-1.0605-1.0067 0-1.7305l11.895-5.5273c-2.6496-7.7812-10.021-13.379-18.699-13.379zm-17.824 11.242c-1.2318 2.5763-1.9219 5.4578-1.9219 8.5039 0 6.4435 3.0885 12.165 7.8633 15.77-2.377-1.8563-4.6171-4.2382-5.5742-7.1172l12.109-4.332c0.2894-0.0208 0.57263-0.0301 0.79688 0.0351-0.88603-0.90103-1.5007-2.0695-1.707-3.375-0.11343 0.13978-0.25925 0.2761-0.41406 0.41016l-11.625 5.5c-1.9767-3.9455-1.293-9.0725-0.375-12.809l12 5.5781c0.14021 0.0957 0.25034 0.18868 0.33985 0.27734 0.0147-1.4619 0.53582-2.8017 1.3945-3.8555-0.13143 1e-3 -0.27961-0.0134-0.45702-0.0469l-12.43-4.5391zm13.695 13.25c0.0642 0.1844 0.0716 0.44215 4e-3 0.80078l-4.4688 12.234c2.599 1.2589 5.5121 1.9688 8.5938 1.9688 1.7041 0 3.3601-0.21525 4.9375-0.6211-3.5256 0.70868-7.8477 0.99955-11.277-0.71875l5.5-11.625c0.21378-0.24687 0.42973-0.47574 0.66406-0.57422-1.5064-0.0121-2.8839-0.56158-3.9531-1.4648zm17.961 9.3477c-1.2472 1.1578-2.6148 2.1539-3.9102 2.9883 1.4279-0.83104 2.7387-1.8384 3.9102-2.9883z" fill="url(#d)" fill-rule="evenodd"/>
   <path transform="matrix(.14048 0 0 .15262 160.03 420.67)" d="m447 423.36c0 19.882-17.909 36-40 36s-40-16.118-40-36 17.909-36 40-36 40 16.118 40 36z" fill="none" stroke="#ece5e5" stroke-linecap="round" stroke-linejoin="round" stroke-width="12.201"/>
   <path transform="matrix(.11237 0 0 .12183 172.09 433.33)" d="m576 422.86c0 88.642-77.902 160.5-174 160.5s-174-71.858-174-160.5 77.902-160.5 174-160.5 174 71.858 174 160.5z" fill="none" stroke="#ece5e5" stroke-linecap="round" stroke-linejoin="round" stroke-width="3.9016"/>
   <path d="m217.39 462.65c12.863 0 23.291 9.8013 23.291 21.892s-10.428 21.892-23.291 21.892-23.291-9.8013-23.291-21.892 10.428-21.892 23.291-21.892zm0 3.6486c-10.719 0-19.412 8.1678-19.412 18.243s8.693 18.243 19.412 18.243 19.412-8.1678 19.412-18.243-8.693-18.243-19.412-18.243z" fill="#333" fill-rule="evenodd"/>
   <path d="m217.39 462.04c13.22 0 23.938 10.074 23.938 22.5s-10.717 22.5-23.938 22.5-23.938-10.074-23.938-22.5 10.717-22.5 23.938-22.5zm0 3.75c-11.017 0-19.951 8.3947-19.951 18.75s8.9345 18.75 19.951 18.75 19.951-8.3947 19.951-18.75-8.9345-18.75-19.951-18.75z" fill="url(#a)" fill-rule="evenodd"/>
   <path d="m217.39 462.04c13.22 0 23.938 10.074 23.938 22.5s-10.717 22.5-23.938 22.5-23.938-10.074-23.938-22.5 10.717-22.5 23.938-22.5zm0 3.75c-11.017 0-19.951 8.3947-19.951 18.75s9.8184 18.396 20.835 18.396 19.068-8.0411 19.068-18.396-8.9345-18.75-19.951-18.75z" fill="url(#c)" fill-rule="evenodd"/>
   <path d="m217.39 450.76c19.848 0 35.938 15.124 35.938 33.779s-16.09 33.779-35.938 33.779-35.938-15.124-35.938-33.779 16.09-33.779 35.938-33.779zm0 5.6299c-16.54 0-29.953 12.603-29.953 28.149s13.413 28.149 29.953 28.149 29.953-12.603 29.953-28.149-13.413-28.149-29.953-28.149z" fill-rule="evenodd"/>
   <path d="m217.39 456.16c16.672 0 30.188 12.704 30.188 28.375s-13.515 28.375-30.188 28.375-30.188-12.704-30.188-28.375 13.515-28.375 30.188-28.375zm0 4.7291c-13.893 0-25.161 10.586-25.161 23.646s11.267 23.646 25.161 23.646 25.161-10.586 25.161-23.646-11.267-23.646-25.161-23.646z" fill-rule="evenodd"/>
   <path transform="matrix(.25 0 0 .25 159.87 377.4)" d="m230.08 327.28c59.509 0 107.75 45.344 107.75 101.28s-48.241 101.28-107.75 101.28-107.75-45.344-107.75-101.28 48.241-101.28 107.75-101.28zm0 16.88c-49.591 0-89.807 37.787-89.807 84.399s40.217 84.399 89.807 84.399 89.807-37.787 89.807-84.399-40.217-84.399-89.807-84.399z" fill-rule="evenodd" filter="url(#f)"/>
   <path transform="matrix(.05063 0 0 .04916 123.28 467.32)" d="m2500 346.36c0 332.48-279.37 602-624 602s-624-269.52-624-602 279.37-602 624-602 624 269.52 624 602z" fill="none" filter="url(#h)" stroke="#ece5e5" stroke-linecap="round" stroke-linejoin="round" stroke-width="8.7138"/>
   <path transform="matrix(.12447 0 0 .14197 166.54 425.15)" d="m433.46 423.74c0 12.497-11.555 22.627-25.809 22.627s-25.809-10.131-25.809-22.627 11.555-22.627 25.809-22.627 25.809 10.131 25.809 22.627z" fill="none" stroke="#ece5e5" stroke-linecap="round" stroke-linejoin="round" stroke-width="3.478"/>
   <path transform="matrix(.10188 0 0 .1162 175.75 436.07)" d="m433.46 423.74c0 12.497-11.555 22.627-25.809 22.627s-25.809-10.131-25.809-22.627 11.555-22.627 25.809-22.627 25.809 10.131 25.809 22.627z" fill="none" filter="url(#g)" stroke="#ece5e5" stroke-linecap="round" stroke-linejoin="round" stroke-width="4.8563"/>
   <path transform="matrix(.03996 0 0 .04558 200.99 466)" d="m433.46 423.74c0 12.497-11.555 22.627-25.809 22.627s-25.809-10.131-25.809-22.627 11.555-22.627 25.809-22.627 25.809 10.131 25.809 22.627z" fill="none" stroke="#ece5e5" stroke-linecap="round" stroke-linejoin="round" stroke-width="4.8563"/>
   <path d="m217.39 462.04c13.22 0 23.938 10.074 23.938 22.5s-10.717 22.5-23.938 22.5-23.938-10.074-23.938-22.5 10.717-22.5 23.938-22.5zm0 3.75c-11.017 0-19.951 8.3947-19.951 18.75s9.8184 18.396 20.835 18.396 19.068-8.0411 19.068-18.396-8.9345-18.75-19.951-18.75z" fill="url(#b)" fill-rule="evenodd"/>
  </g>
  <g transform="matrix(.51079 0 0 .68835 -31.512 684.18)">
   <path transform="matrix(.13907 0 0 .12714 158.9 445.12)" d="m577 304.86c0 83.119-67.605 150.5-151 150.5s-151-67.381-151-150.5 67.605-150.5 151-150.5 151 67.381 151 150.5z" fill-rule="evenodd" filter="url(#e)" stroke="#ece5e5" stroke-linecap="round" stroke-linejoin="round" stroke-width="10.052"/>
   <path d="m217.17 465.48c-7.86 0-14.646 4.5945-17.824 11.242 1.9927-3.291 5.1326-7.4008 9.3203-8.793l4.332 12.109c0.0117 0.163 0.0183 0.32346 0.0117 0.47266 0.927-0.79372 2.0913-1.3205 3.3711-1.457-0.1917-0.11585-0.37167-0.3088-0.55077-0.51562l-5.5-11.625c1.8494-0.9266 3.959-1.27 6.0625-1.2773 2.384-8e-3 4.7613 0.41466 6.7461 0.90234l-5.5781 12c-0.15662 0.22949-0.30279 0.38105-0.44141 0.48046 1.4923 0.0175 2.8558 0.5638 3.918 1.457-0.0706-0.22677-0.0603-0.5123-0.0391-0.80859l4.332-12.109c4.1877 1.3921 7.3276 5.4981 9.3203 8.7891l-12.43 4.543c-0.30678 0.0579-0.53841 0.0603-0.71485 0.0195 1.082 1.1176 1.75 2.638 1.75 4.3164 0 3.2973-2.5703 5.9961-5.8164 6.1992 0.19051 0.0738 0.39491 0.25453 0.62109 0.58594l5.5312 11.895c0.89221-0.30661 1.7566-0.67197 2.5859-1.0977l-4.5234-12.371c-0.19347-1.0251 0.2346-1.2273 0.80859-1.2383l0.41797 0.0156 12.109 4.332c-0.0942 0.28345-0.20228 0.56211-0.32032 0.83593 1.4344-2.7365 2.25-5.8524 2.25-9.1562 0-1.6202-0.19838-3.1924-0.5664-4.6992 0.68146 3.4908 0.93432 7.7202-0.75391 11.09l-11.625-5.5c-0.57438-0.4974-1.0605-1.0067 0-1.7305l11.895-5.5273c-2.6496-7.7812-10.021-13.379-18.699-13.379zm-17.824 11.242c-1.2318 2.5763-1.9219 5.4578-1.9219 8.5039 0 6.4435 3.0885 12.165 7.8633 15.77-2.377-1.8563-4.6171-4.2382-5.5742-7.1172l12.109-4.332c0.2894-0.0208 0.57263-0.0301 0.79688 0.0351-0.88603-0.90103-1.5007-2.0695-1.707-3.375-0.11343 0.13978-0.25925 0.2761-0.41406 0.41016l-11.625 5.5c-1.9767-3.9455-1.293-9.0725-0.375-12.809l12 5.5781c0.14021 0.0957 0.25034 0.18868 0.33985 0.27734 0.0147-1.4619 0.53582-2.8017 1.3945-3.8555-0.13143 1e-3 -0.27961-0.0134-0.45702-0.0469l-12.43-4.5391zm13.695 13.25c0.0642 0.1844 0.0716 0.44215 4e-3 0.80078l-4.4688 12.234c2.599 1.2589 5.5121 1.9688 8.5938 1.9688 1.7041 0 3.3601-0.21525 4.9375-0.6211-3.5256 0.70868-7.8477 0.99955-11.277-0.71875l5.5-11.625c0.21378-0.24687 0.42973-0.47574 0.66406-0.57422-1.5064-0.0121-2.8839-0.56158-3.9531-1.4648zm17.961 9.3477c-1.2472 1.1578-2.6148 2.1539-3.9102 2.9883 1.4279-0.83104 2.7387-1.8384 3.9102-2.9883z" fill="url(#d)" fill-rule="evenodd"/>
   <path transform="matrix(.14048 0 0 .15262 160.03 420.67)" d="m447 423.36c0 19.882-17.909 36-40 36s-40-16.118-40-36 17.909-36 40-36 40 16.118 40 36z" fill="none" stroke="#ece5e5" stroke-linecap="round" stroke-linejoin="round" stroke-width="12.201"/>
   <path transform="matrix(.11237 0 0 .12183 172.09 433.33)" d="m576 422.86c0 88.642-77.902 160.5-174 160.5s-174-71.858-174-160.5 77.902-160.5 174-160.5 174 71.858 174 160.5z" fill="none" stroke="#ece5e5" stroke-linecap="round" stroke-linejoin="round" stroke-width="3.9016"/>
   <path d="m217.39 462.65c12.863 0 23.291 9.8013 23.291 21.892s-10.428 21.892-23.291 21.892-23.291-9.8013-23.291-21.892 10.428-21.892 23.291-21.892zm0 3.6486c-10.719 0-19.412 8.1678-19.412 18.243s8.693 18.243 19.412 18.243 19.412-8.1678 19.412-18.243-8.693-18.243-19.412-18.243z" fill="#333" fill-rule="evenodd"/>
   <path d="m217.39 462.04c13.22 0 23.938 10.074 23.938 22.5s-10.717 22.5-23.938 22.5-23.938-10.074-23.938-22.5 10.717-22.5 23.938-22.5zm0 3.75c-11.017 0-19.951 8.3947-19.951 18.75s8.9345 18.75 19.951 18.75 19.951-8.3947 19.951-18.75-8.9345-18.75-19.951-18.75z" fill="url(#a)" fill-rule="evenodd"/>
   <path d="m217.39 462.04c13.22 0 23.938 10.074 23.938 22.5s-10.717 22.5-23.938 22.5-23.938-10.074-23.938-22.5 10.717-22.5 23.938-22.5zm0 3.75c-11.017 0-19.951 8.3947-19.951 18.75s9.8184 18.396 20.835 18.396 19.068-8.0411 19.068-18.396-8.9345-18.75-19.951-18.75z" fill="url(#c)" fill-rule="evenodd"/>
   <path d="m217.39 450.76c19.848 0 35.938 15.124 35.938 33.779s-16.09 33.779-35.938 33.779-35.938-15.124-35.938-33.779 16.09-33.779 35.938-33.779zm0 5.6299c-16.54 0-29.953 12.603-29.953 28.149s13.413 28.149 29.953 28.149 29.953-12.603 29.953-28.149-13.413-28.149-29.953-28.149z" fill-rule="evenodd"/>
   <path d="m217.39 456.16c16.672 0 30.188 12.704 30.188 28.375s-13.515 28.375-30.188 28.375-30.188-12.704-30.188-28.375 13.515-28.375 30.188-28.375zm0 4.7291c-13.893 0-25.161 10.586-25.161 23.646s11.267 23.646 25.161 23.646 25.161-10.586 25.161-23.646-11.267-23.646-25.161-23.646z" fill-rule="evenodd"/>
   <path transform="matrix(.25 0 0 .25 159.87 377.4)" d="m230.08 327.28c59.509 0 107.75 45.344 107.75 101.28s-48.241 101.28-107.75 101.28-107.75-45.344-107.75-101.28 48.241-101.28 107.75-101.28zm0 16.88c-49.591 0-89.807 37.787-89.807 84.399s40.217 84.399 89.807 84.399 89.807-37.787 89.807-84.399-40.217-84.399-89.807-84.399z" fill-rule="evenodd" filter="url(#f)"/>
   <path transform="matrix(.05063 0 0 .04916 123.28 467.32)" d="m2500 346.36c0 332.48-279.37 602-624 602s-624-269.52-624-602 279.37-602 624-602 624 269.52 624 602z" fill="none" filter="url(#h)" stroke="#ece5e5" stroke-linecap="round" stroke-linejoin="round" stroke-width="8.7138"/>
   <path transform="matrix(.12447 0 0 .14197 166.54 425.15)" d="m433.46 423.74c0 12.497-11.555 22.627-25.809 22.627s-25.809-10.131-25.809-22.627 11.555-22.627 25.809-22.627 25.809 10.131 25.809 22.627z" fill="none" stroke="#ece5e5" stroke-linecap="round" stroke-linejoin="round" stroke-width="3.478"/>
   <path transform="matrix(.10188 0 0 .1162 175.75 436.07)" d="m433.46 423.74c0 12.497-11.555 22.627-25.809 22.627s-25.809-10.131-25.809-22.627 11.555-22.627 25.809-22.627 25.809 10.131 25.809 22.627z" fill="none" filter="url(#g)" stroke="#ece5e5" stroke-linecap="round" stroke-linejoin="round" stroke-width="4.8563"/>
   <path transform="matrix(.03996 0 0 .04558 200.99 466)" d="m433.46 423.74c0 12.497-11.555 22.627-25.809 22.627s-25.809-10.131-25.809-22.627 11.555-22.627 25.809-22.627 25.809 10.131 25.809 22.627z" fill="none" stroke="#ece5e5" stroke-linecap="round" stroke-linejoin="round" stroke-width="4.8563"/>
   <path d="m217.39 462.04c13.22 0 23.938 10.074 23.938 22.5s-10.717 22.5-23.938 22.5-23.938-10.074-23.938-22.5 10.717-22.5 23.938-22.5zm0 3.75c-11.017 0-19.951 8.3947-19.951 18.75s9.8184 18.396 20.835 18.396 19.068-8.0411 19.068-18.396-8.9345-18.75-19.951-18.75z" fill="url(#b)" fill-rule="evenodd"/>
  </g>
  <path d="m150.88 1046.1 4.5047 1.2286c1.1177 2.2353 10-10.165 9.0095-20.067-1.7755-17.746-18.428-18.429-18.428-18.429 7.076 10.921 15.288 26.346 4.9143 37.267z"/>
  <g transform="matrix(-.49369 0 0 .6338 248.9 722.28)">
   <path transform="matrix(.13907 0 0 .12714 158.9 445.12)" d="m577 304.86c0 83.119-67.605 150.5-151 150.5s-151-67.381-151-150.5 67.605-150.5 151-150.5 151 67.381 151 150.5z" fill-rule="evenodd" filter="url(#e)" stroke="#ece5e5" stroke-linecap="round" stroke-linejoin="round" stroke-width="10.052"/>
   <path d="m217.17 465.48c-7.86 0-14.646 4.5945-17.824 11.242 1.9927-3.291 5.1326-7.4008 9.3203-8.793l4.332 12.109c0.0117 0.163 0.0183 0.32346 0.0117 0.47266 0.927-0.79372 2.0913-1.3205 3.3711-1.457-0.1917-0.11585-0.37167-0.3088-0.55077-0.51562l-5.5-11.625c1.8494-0.9266 3.959-1.27 6.0625-1.2773 2.384-8e-3 4.7613 0.41466 6.7461 0.90234l-5.5781 12c-0.15662 0.22949-0.30279 0.38105-0.44141 0.48046 1.4923 0.0175 2.8558 0.5638 3.918 1.457-0.0706-0.22677-0.0603-0.5123-0.0391-0.80859l4.332-12.109c4.1877 1.3921 7.3276 5.4981 9.3203 8.7891l-12.43 4.543c-0.30678 0.0579-0.53841 0.0603-0.71485 0.0195 1.082 1.1176 1.75 2.638 1.75 4.3164 0 3.2973-2.5703 5.9961-5.8164 6.1992 0.19051 0.0738 0.39491 0.25453 0.62109 0.58594l5.5312 11.895c0.89221-0.30661 1.7566-0.67197 2.5859-1.0977l-4.5234-12.371c-0.19347-1.0251 0.2346-1.2273 0.80859-1.2383l0.41797 0.0156 12.109 4.332c-0.0942 0.28345-0.20228 0.56211-0.32032 0.83593 1.4344-2.7365 2.25-5.8524 2.25-9.1562 0-1.6202-0.19838-3.1924-0.5664-4.6992 0.68146 3.4908 0.93432 7.7202-0.75391 11.09l-11.625-5.5c-0.57438-0.4974-1.0605-1.0067 0-1.7305l11.895-5.5273c-2.6496-7.7812-10.021-13.379-18.699-13.379zm-17.824 11.242c-1.2318 2.5763-1.9219 5.4578-1.9219 8.5039 0 6.4435 3.0885 12.165 7.8633 15.77-2.377-1.8563-4.6171-4.2382-5.5742-7.1172l12.109-4.332c0.2894-0.0208 0.57263-0.0301 0.79688 0.0351-0.88603-0.90103-1.5007-2.0695-1.707-3.375-0.11343 0.13978-0.25925 0.2761-0.41406 0.41016l-11.625 5.5c-1.9767-3.9455-1.293-9.0725-0.375-12.809l12 5.5781c0.14021 0.0957 0.25034 0.18868 0.33985 0.27734 0.0147-1.4619 0.53582-2.8017 1.3945-3.8555-0.13143 1e-3 -0.27961-0.0134-0.45702-0.0469l-12.43-4.5391zm13.695 13.25c0.0642 0.1844 0.0716 0.44215 4e-3 0.80078l-4.4688 12.234c2.599 1.2589 5.5121 1.9688 8.5938 1.9688 1.7041 0 3.3601-0.21525 4.9375-0.6211-3.5256 0.70868-7.8477 0.99955-11.277-0.71875l5.5-11.625c0.21378-0.24687 0.42973-0.47574 0.66406-0.57422-1.5064-0.0121-2.8839-0.56158-3.9531-1.4648zm17.961 9.3477c-1.2472 1.1578-2.6148 2.1539-3.9102 2.9883 1.4279-0.83104 2.7387-1.8384 3.9102-2.9883z" fill="url(#d)" fill-rule="evenodd"/>
   <path transform="matrix(.14048 0 0 .15262 160.03 420.67)" d="m447 423.36c0 19.882-17.909 36-40 36s-40-16.118-40-36 17.909-36 40-36 40 16.118 40 36z" fill="none" stroke="#ece5e5" stroke-linecap="round" stroke-linejoin="round" stroke-width="12.201"/>
   <path transform="matrix(.11237 0 0 .12183 172.09 433.33)" d="m576 422.86c0 88.642-77.902 160.5-174 160.5s-174-71.858-174-160.5 77.902-160.5 174-160.5 174 71.858 174 160.5z" fill="none" stroke="#ece5e5" stroke-linecap="round" stroke-linejoin="round" stroke-width="3.9016"/>
   <path d="m217.39 462.65c12.863 0 23.291 9.8013 23.291 21.892s-10.428 21.892-23.291 21.892-23.291-9.8013-23.291-21.892 10.428-21.892 23.291-21.892zm0 3.6486c-10.719 0-19.412 8.1678-19.412 18.243s8.693 18.243 19.412 18.243 19.412-8.1678 19.412-18.243-8.693-18.243-19.412-18.243z" fill="#333" fill-rule="evenodd"/>
   <path d="m217.39 462.04c13.22 0 23.938 10.074 23.938 22.5s-10.717 22.5-23.938 22.5-23.938-10.074-23.938-22.5 10.717-22.5 23.938-22.5zm0 3.75c-11.017 0-19.951 8.3947-19.951 18.75s8.9345 18.75 19.951 18.75 19.951-8.3947 19.951-18.75-8.9345-18.75-19.951-18.75z" fill="url(#a)" fill-rule="evenodd"/>
   <path d="m217.39 462.04c13.22 0 23.938 10.074 23.938 22.5s-10.717 22.5-23.938 22.5-23.938-10.074-23.938-22.5 10.717-22.5 23.938-22.5zm0 3.75c-11.017 0-19.951 8.3947-19.951 18.75s9.8184 18.396 20.835 18.396 19.068-8.0411 19.068-18.396-8.9345-18.75-19.951-18.75z" fill="url(#c)" fill-rule="evenodd"/>
   <path d="m217.39 450.76c19.848 0 35.938 15.124 35.938 33.779s-16.09 33.779-35.938 33.779-35.938-15.124-35.938-33.779 16.09-33.779 35.938-33.779zm0 5.6299c-16.54 0-29.953 12.603-29.953 28.149s13.413 28.149 29.953 28.149 29.953-12.603 29.953-28.149-13.413-28.149-29.953-28.149z" fill-rule="evenodd"/>
   <path d="m217.39 456.16c16.672 0 30.188 12.704 30.188 28.375s-13.515 28.375-30.188 28.375-30.188-12.704-30.188-28.375 13.515-28.375 30.188-28.375zm0 4.7291c-13.893 0-25.161 10.586-25.161 23.646s11.267 23.646 25.161 23.646 25.161-10.586 25.161-23.646-11.267-23.646-25.161-23.646z" fill-rule="evenodd"/>
   <path transform="matrix(.25 0 0 .25 159.87 377.4)" d="m230.08 327.28c59.509 0 107.75 45.344 107.75 101.28s-48.241 101.28-107.75 101.28-107.75-45.344-107.75-101.28 48.241-101.28 107.75-101.28zm0 16.88c-49.591 0-89.807 37.787-89.807 84.399s40.217 84.399 89.807 84.399 89.807-37.787 89.807-84.399-40.217-84.399-89.807-84.399z" fill-rule="evenodd" filter="url(#f)"/>
   <path transform="matrix(.05063 0 0 .04916 123.28 467.32)" d="m2500 346.36c0 332.48-279.37 602-624 602s-624-269.52-624-602 279.37-602 624-602 624 269.52 624 602z" fill="none" filter="url(#h)" stroke="#ece5e5" stroke-linecap="round" stroke-linejoin="round" stroke-width="8.7138"/>
   <path transform="matrix(.12447 0 0 .14197 166.54 425.15)" d="m433.46 423.74c0 12.497-11.555 22.627-25.809 22.627s-25.809-10.131-25.809-22.627 11.555-22.627 25.809-22.627 25.809 10.131 25.809 22.627z" fill="none" stroke="#ece5e5" stroke-linecap="round" stroke-linejoin="round" stroke-width="3.478"/>
   <path transform="matrix(.10188 0 0 .1162 175.75 436.07)" d="m433.46 423.74c0 12.497-11.555 22.627-25.809 22.627s-25.809-10.131-25.809-22.627 11.555-22.627 25.809-22.627 25.809 10.131 25.809 22.627z" fill="none" filter="url(#g)" stroke="#ece5e5" stroke-linecap="round" stroke-linejoin="round" stroke-width="4.8563"/>
   <path transform="matrix(.03996 0 0 .04558 200.99 466)" d="m433.46 423.74c0 12.497-11.555 22.627-25.809 22.627s-25.809-10.131-25.809-22.627 11.555-22.627 25.809-22.627 25.809 10.131 25.809 22.627z" fill="none" stroke="#ece5e5" stroke-linecap="round" stroke-linejoin="round" stroke-width="4.8563"/>
   <path d="m217.39 462.04c13.22 0 23.938 10.074 23.938 22.5s-10.717 22.5-23.938 22.5-23.938-10.074-23.938-22.5 10.717-22.5 23.938-22.5zm0 3.75c-11.017 0-19.951 8.3947-19.951 18.75s9.8184 18.396 20.835 18.396 19.068-8.0411 19.068-18.396-8.9345-18.75-19.951-18.75z" fill="url(#b)" fill-rule="evenodd"/>
  </g>
  <path d="m8.5351 1027.6c-8.7795-10.284-0.27631-37.97 21.326-42.432 25.821-9.3083 42.721-34.198 77.203-37.017 16.12-0.42729 103.27-10.574 100.73 15.734 15.138 16.683 31.304 21.931 32.921 40.756 7.8686 13.938 2.1562 26.799 1.9177 29.877-15.547 0.7882-65.708 2.34-79.248 2.182 6.8276-32.148-37.889-41.419-40.056-2.2692-22.823-0.3445-58.517 0.9904-87.862-1.6183 1.3701-16.651-5.9445-24.425-15.553-24.273-7.3985 0.1171-9.012 21.832-11.378 19.06z" fill="url(#k)" stroke="#675a5a" stroke-width=".5487"/>
  <path d="m27.804 1042.1 5.9069 0.2426s9.6043-8.6634 4.7458-11.31c-2.3839-1.2987-2.1702-7.8492-2.1702-7.8492 1.1356 6.3607-3.0837 14.307-8.4825 18.917z" stroke="#ece5e5" stroke-width=".25005"/>
  <g transform="matrix(.41436 0 0 .55841 -66.245 753.14)">
   <path transform="matrix(.13907 0 0 .12714 158.9 445.12)" d="m577 304.86c0 83.119-67.605 150.5-151 150.5s-151-67.381-151-150.5 67.605-150.5 151-150.5 151 67.381 151 150.5z" fill-rule="evenodd" filter="url(#e)" stroke="#ece5e5" stroke-linecap="round" stroke-linejoin="round" stroke-width="10.052"/>
   <path d="m217.17 465.48c-7.86 0-14.646 4.5945-17.824 11.242 1.9927-3.291 5.1326-7.4008 9.3203-8.793l4.332 12.109c0.0117 0.163 0.0183 0.32346 0.0117 0.47266 0.927-0.79372 2.0913-1.3205 3.3711-1.457-0.1917-0.11585-0.37167-0.3088-0.55077-0.51562l-5.5-11.625c1.8494-0.9266 3.959-1.27 6.0625-1.2773 2.384-8e-3 4.7613 0.41466 6.7461 0.90234l-5.5781 12c-0.15662 0.22949-0.30279 0.38105-0.44141 0.48046 1.4923 0.0175 2.8558 0.5638 3.918 1.457-0.0706-0.22677-0.0603-0.5123-0.0391-0.80859l4.332-12.109c4.1877 1.3921 7.3276 5.4981 9.3203 8.7891l-12.43 4.543c-0.30678 0.0579-0.53841 0.0603-0.71485 0.0195 1.082 1.1176 1.75 2.638 1.75 4.3164 0 3.2973-2.5703 5.9961-5.8164 6.1992 0.19051 0.0738 0.39491 0.25453 0.62109 0.58594l5.5312 11.895c0.89221-0.30661 1.7566-0.67197 2.5859-1.0977l-4.5234-12.371c-0.19347-1.0251 0.2346-1.2273 0.80859-1.2383l0.41797 0.0156 12.109 4.332c-0.0942 0.28345-0.20228 0.56211-0.32032 0.83593 1.4344-2.7365 2.25-5.8524 2.25-9.1562 0-1.6202-0.19838-3.1924-0.5664-4.6992 0.68146 3.4908 0.93432 7.7202-0.75391 11.09l-11.625-5.5c-0.57438-0.4974-1.0605-1.0067 0-1.7305l11.895-5.5273c-2.6496-7.7812-10.021-13.379-18.699-13.379zm-17.824 11.242c-1.2318 2.5763-1.9219 5.4578-1.9219 8.5039 0 6.4435 3.0885 12.165 7.8633 15.77-2.377-1.8563-4.6171-4.2382-5.5742-7.1172l12.109-4.332c0.2894-0.0208 0.57263-0.0301 0.79688 0.0351-0.88603-0.90103-1.5007-2.0695-1.707-3.375-0.11343 0.13978-0.25925 0.2761-0.41406 0.41016l-11.625 5.5c-1.9767-3.9455-1.293-9.0725-0.375-12.809l12 5.5781c0.14021 0.0957 0.25034 0.18868 0.33985 0.27734 0.0147-1.4619 0.53582-2.8017 1.3945-3.8555-0.13143 1e-3 -0.27961-0.0134-0.45702-0.0469l-12.43-4.5391zm13.695 13.25c0.0642 0.1844 0.0716 0.44215 4e-3 0.80078l-4.4688 12.234c2.599 1.2589 5.5121 1.9688 8.5938 1.9688 1.7041 0 3.3601-0.21525 4.9375-0.6211-3.5256 0.70868-7.8477 0.99955-11.277-0.71875l5.5-11.625c0.21378-0.24687 0.42973-0.47574 0.66406-0.57422-1.5064-0.0121-2.8839-0.56158-3.9531-1.4648zm17.961 9.3477c-1.2472 1.1578-2.6148 2.1539-3.9102 2.9883 1.4279-0.83104 2.7387-1.8384 3.9102-2.9883z" fill="url(#d)" fill-rule="evenodd"/>
   <path transform="matrix(.14048 0 0 .15262 160.03 420.67)" d="m447 423.36c0 19.882-17.909 36-40 36s-40-16.118-40-36 17.909-36 40-36 40 16.118 40 36z" fill="none" stroke="#ece5e5" stroke-linecap="round" stroke-linejoin="round" stroke-width="12.201"/>
   <path transform="matrix(.11237 0 0 .12183 172.09 433.33)" d="m576 422.86c0 88.642-77.902 160.5-174 160.5s-174-71.858-174-160.5 77.902-160.5 174-160.5 174 71.858 174 160.5z" fill="none" stroke="#ece5e5" stroke-linecap="round" stroke-linejoin="round" stroke-width="3.9016"/>
   <path d="m217.39 462.65c12.863 0 23.291 9.8013 23.291 21.892s-10.428 21.892-23.291 21.892-23.291-9.8013-23.291-21.892 10.428-21.892 23.291-21.892zm0 3.6486c-10.719 0-19.412 8.1678-19.412 18.243s8.693 18.243 19.412 18.243 19.412-8.1678 19.412-18.243-8.693-18.243-19.412-18.243z" fill="#333" fill-rule="evenodd"/>
   <path d="m217.39 462.04c13.22 0 23.938 10.074 23.938 22.5s-10.717 22.5-23.938 22.5-23.938-10.074-23.938-22.5 10.717-22.5 23.938-22.5zm0 3.75c-11.017 0-19.951 8.3947-19.951 18.75s8.9345 18.75 19.951 18.75 19.951-8.3947 19.951-18.75-8.9345-18.75-19.951-18.75z" fill="url(#a)" fill-rule="evenodd"/>
   <path d="m217.39 462.04c13.22 0 23.938 10.074 23.938 22.5s-10.717 22.5-23.938 22.5-23.938-10.074-23.938-22.5 10.717-22.5 23.938-22.5zm0 3.75c-11.017 0-19.951 8.3947-19.951 18.75s9.8184 18.396 20.835 18.396 19.068-8.0411 19.068-18.396-8.9345-18.75-19.951-18.75z" fill="url(#c)" fill-rule="evenodd"/>
   <path d="m217.39 450.76c19.848 0 35.938 15.124 35.938 33.779s-16.09 33.779-35.938 33.779-35.938-15.124-35.938-33.779 16.09-33.779 35.938-33.779zm0 5.6299c-16.54 0-29.953 12.603-29.953 28.149s13.413 28.149 29.953 28.149 29.953-12.603 29.953-28.149-13.413-28.149-29.953-28.149z" fill-rule="evenodd"/>
   <path d="m217.39 456.16c16.672 0 30.188 12.704 30.188 28.375s-13.515 28.375-30.188 28.375-30.188-12.704-30.188-28.375 13.515-28.375 30.188-28.375zm0 4.7291c-13.893 0-25.161 10.586-25.161 23.646s11.267 23.646 25.161 23.646 25.161-10.586 25.161-23.646-11.267-23.646-25.161-23.646z" fill-rule="evenodd"/>
   <path transform="matrix(.25 0 0 .25 159.87 377.4)" d="m230.08 327.28c59.509 0 107.75 45.344 107.75 101.28s-48.241 101.28-107.75 101.28-107.75-45.344-107.75-101.28 48.241-101.28 107.75-101.28zm0 16.88c-49.591 0-89.807 37.787-89.807 84.399s40.217 84.399 89.807 84.399 89.807-37.787 89.807-84.399-40.217-84.399-89.807-84.399z" fill-rule="evenodd" filter="url(#f)"/>
   <path transform="matrix(.05063 0 0 .04916 123.28 467.32)" d="m2500 346.36c0 332.48-279.37 602-624 602s-624-269.52-624-602 279.37-602 624-602 624 269.52 624 602z" fill="none" filter="url(#h)" stroke="#ece5e5" stroke-linecap="round" stroke-linejoin="round" stroke-width="8.7138"/>
   <path transform="matrix(.12447 0 0 .14197 166.54 425.15)" d="m433.46 423.74c0 12.497-11.555 22.627-25.809 22.627s-25.809-10.131-25.809-22.627 11.555-22.627 25.809-22.627 25.809 10.131 25.809 22.627z" fill="none" stroke="#ece5e5" stroke-linecap="round" stroke-linejoin="round" stroke-width="3.478"/>
   <path transform="matrix(.10188 0 0 .1162 175.75 436.07)" d="m433.46 423.74c0 12.497-11.555 22.627-25.809 22.627s-25.809-10.131-25.809-22.627 11.555-22.627 25.809-22.627 25.809 10.131 25.809 22.627z" fill="none" filter="url(#g)" stroke="#ece5e5" stroke-linecap="round" stroke-linejoin="round" stroke-width="4.8563"/>
   <path transform="matrix(.03996 0 0 .04558 200.99 466)" d="m433.46 423.74c0 12.497-11.555 22.627-25.809 22.627s-25.809-10.131-25.809-22.627 11.555-22.627 25.809-22.627 25.809 10.131 25.809 22.627z" fill="none" stroke="#ece5e5" stroke-linecap="round" stroke-linejoin="round" stroke-width="4.8563"/>
   <path d="m217.39 462.04c13.22 0 23.938 10.074 23.938 22.5s-10.717 22.5-23.938 22.5-23.938-10.074-23.938-22.5 10.717-22.5 23.938-22.5zm0 3.75c-11.017 0-19.951 8.3947-19.951 18.75s9.8184 18.396 20.835 18.396 19.068-8.0411 19.068-18.396-8.9345-18.75-19.951-18.75z" fill="url(#b)" fill-rule="evenodd"/>
  </g>
  <path d="m44.813 987.94c-4.4762 17.761-3.3817 22.216-3.2762 39.314l49.962-0.8191c0.67996-14.198 2.2253-30.011 6.1428-46.276l-52.828 8.1906 2.4571-5.7334-2.4571 5.3238z" fill="url(#i)" stroke="#817e7e" stroke-width=".21948"/>
  <path d="m98.461 979.75c-5.0257 13.738-5.4729 29.681-6.1429 46.686l26.21-0.4095c2.9411-13.11 7.9882-17.411 18.838-24.981l1.2287-26.619-40.133 5.3238z" fill="url(#j)" stroke="#817e7e" stroke-width=".32922"/>
  <path d="m46.451 986.3 6.5524-0.81907 8.6-16.79c-12.646 8.2579-17.79 12.627-15.152 17.61z" fill="url(#l)" stroke="#444" stroke-width=".5487"/>
  <path d="m53.003 985.48 7.781-16.79c13.551-9.9784 30.025-13.32 47.914-16.79l-14.743 27.438-40.952 6.1428z" fill="url(#m)" stroke="#444" stroke-width=".5487"/>
  <path d="m110.34 951.9-11.057 27.029 40.133-4.5047s5.3363-11.356 1.638-16.381c-6.4432-8.7546-30.714-6.1428-30.714-6.1428z" fill="url(#n)" stroke="#444" stroke-width=".5487"/>
  <path d="m195.52 1001s-7.9186-16.34-15.971-20.886c-8.2023-4.6303-26.619-2.8666-26.619-2.8666s7.4426 13.338 15.562 17.609c6.8008 3.578 27.029 6.1429 27.029 6.1429z" fill="#95040e" stroke="#ece5e5" stroke-width=".5487"/>
  <path d="m150.88 954.77 19.657 19.248c19.826-0.84224 38.572 3.7105 57.333 8.1906l-25.39-22.114c-16.339-6.0815-33.097-10.065-51.6-5.3238z" fill="url(#o)" stroke="#525252" stroke-width=".5487"/>
  <path d="m172.58 1014.6s1.5644 13.086 6.5523 13.514c22.998 1.9761 64.705 0 64.705 0 6.7661-4.5047 2.6502-9.0095 1.2286-13.514h-72.486z" fill="url(#p)" stroke="#2c2929" stroke-width=".5487"/>
  <path d="m200.37 989.77c10.036-0.93215 20.292-1.4367 32.488 1.8251v2.9658l-30.843-1.3689c-1.7028-1.1406-3.1742-2.2813-1.6449-3.422z" fill="url(#q)" stroke="#d0cdcd" stroke-width=".41043"/>
  <path d="m205.35 994.08 2.0477 6.5524 23.752 1.6381-1.638-6.5524-24.162-1.6381z" fill="url(#r)" stroke="#aaa4a4" stroke-width=".16461"/>
  <path d="m143.54 952.38s14.208-11.755 24.097-11.809c10.401-0.0573 36.949 4.6703 42.824 8.4105 4.6864 2.9835-2.7628 10.086-2.7628 10.086s3.2289-5.0239-0.92094-6.8012c-8.5886-3.6783-27.552-8.8923-39.14-7.9999-9.395 0.7235-24.097 8.1133-24.097 8.1133z" fill="url(#s)"/>
  <path transform="matrix(.5487 0 0 .5487 20.242 761.88)" d="m265.7 484.39 23.137 2.9854 119.79-2.9854-3.2836 9.2874-137.1 1.8019-2.5482-11.089z" fill="url(#t)" filter="url(#z)"/>
  <path transform="matrix(.5487 0 0 .5487 20.242 761.88)" d="m-7.4636 423.18 215.7-24.63" fill="#fff" filter="url(#x)" stroke="#fff2f2" stroke-width="2.6"/>
  <path d="m10.53007,1001.096c.7785-.6689 1.53859-1.36728 2.25153-2.10672 .62521-.5375 1.19359-1.13161 1.79568-1.69345 .58292-.48573 1.17894-.94662 1.78621-1.39984 .74089-.44664 1.46986-.90118 2.12462-1.47017 .56283-.55294 1.15834-.98075 1.88137-1.29876 .78963-.24697 1.59622-.43363 2.39793-.64223 .76035-.18437 1.54381-.21675 2.32229-.23978 .57893-.0958 1.81009.20769.62905.7926-.95718.3232-1.86376.7605-2.79304,1.15233-.6982.36795-1.41287.69759-2.12286,1.04139-.70032.37048-1.41293.6855-2.15104.9727-.73268.20523-1.33124.65684-1.95536,1.06443-.7144.42574-1.54346.53798-2.32765.77515-.75726.1757-1.51555.35252-2.25286.60338-.27429.0928-.4056-.29504-.13131-.38791 .7421-.25015 1.50335-.43352 2.26561-.60742 .74738-.2261 1.53725-.33276 2.22284-.72645 .64894-.42076 1.2707-.88883 2.03037-1.10288 .7281-.28275 1.43069-.59278 2.12097-.95956 .71649-.34672 1.43718-.68017 2.14231-1.05028 .92422-.38908 1.82523-.82577 2.77761-1.14541 .0693-.0297.13355-.10424.20787-.0903 .05492.009.0468.1034.08431.14498 .01643.0181.09133.0355.06932.0246-.25053-.12384-.53306-.10444-.804-.0912-.7478.0223-1.50063.0512-2.23135.22686-.78101.20287-1.56566.3877-2.33682.62108-.68764.29924-1.243.70785-1.7775,1.2332-.66405.57275-1.39531,1.04224-2.14792,1.48891-.59575.44349-1.17918.89587-1.75157,1.37086-.59698.55691-1.1599,1.14664-1.78047,1.67855-.72623.75094-1.49735,1.46284-2.29029,2.14194-.22612.1809-.48194-.1388-.25583-.3197z" fill="#cccccf" fill-rule="evenodd" opacity=".33158" stroke="#efdcdc" stroke-linecap="round" stroke-linejoin="round" stroke-width="1.4266"/>
  <path transform="matrix(.60839 0 0 .45995 8.6871 790.27)" d="m265 356.96 49.961 11.745 28.829 28.794-43.624-11.457-35.166-29.082z" fill="#eee" filter="url(#aa)" opacity=".64737" stroke="#000"/>
  <path d="m41.772 975.33c-2.5236 1.904-5.164 4.8142-4.9147 7.8251 0 0-0.37675 1.6306 0.17545 2.1193 1.4832 1.3126 6.1435 0.16297 6.1435 0.16297v2.6084l2.4574-0.4891s0.17824-7.1534-0.7022-10.596c-0.20587-0.80531-0.24017-1.9433-1.0532-2.2824-0.67505-0.28153-1.5319 0.21874-2.1062 0.65221z" fill="#666" stroke="#000" stroke-width=".16026"/>
  <path d="m165.98 991.09s11.857-1.731 16.83-0.67137c4.2061 0.89616 6.7321 5.0349 6.7321 5.0349-6.8851 0.0911-14.442-0.88812-23.562-4.3636z" fill="#d40000"/>
  <path transform="matrix(.55418 0 0 .37767 28.203 839.11)" d="m293.43 482.39 97.107-8.444v7.3886l-97.107 1.0555z" fill="#eee" filter="url(#y)" opacity=".5"/>
  <path transform="matrix(.54828 -.02143 0 .5487 25.156 758.19)" d="m28.52 460.27 166.9-12.46-4.2252 6.168-166.9 7.1822 4.2252-0.89044z" fill="#fff" fill-rule="evenodd" filter="url(#w)" opacity=".5" stroke="#0b0101" stroke-linecap="round" stroke-linejoin="round" stroke-width=".50019"/>
  <path transform="matrix(.51878 0 0 .51878 34.723 770.33)" d="m269.15 398.89h20.055l81.274 13.722" fill="none" filter="url(#v)" stroke="#fffcfc" stroke-width="3.2"/>
  <path d="m198.12 1036.1c2.7656-2.0876 2.1096-4.1754 1.7037-6.263l38.14-0.8191-1.7463 5.9114-38.098 1.1707z"/>
  <path transform="matrix(.5487 0 0 .5487 20.242 761.88)" d="m324.18 493.59 6.0906-2.4581h65.779l-2.4363 1.9664-69.433 0.49162z" fill="#888" filter="url(#u)"/>
  <path d="m204.22 1030.4-2.3796 4.0243" fill="none" opacity=".43684" stroke="#000" stroke-width=".51182"/>
  <path d="m206.27 1030.7-2.5876 4.1352" fill="none" opacity=".43684" stroke="#a59e9e" stroke-width=".96998"/>
  <path d="m214.05 1030.8-2.3796 4.0242" fill="none" opacity=".43684" stroke="#000" stroke-width=".51182"/>
  <path d="m216.1 1031.1-2.5876 4.135" fill="none" opacity=".43684" stroke="#a59e9e" stroke-width=".96998"/>
  <path d="m224.7 1030.8-2.3796 4.0242" fill="none" opacity=".43684" stroke="#000" stroke-width=".51182"/>
  <path d="m226.74 1031.1-2.5875 4.135" fill="none" opacity=".43684" stroke="#a59e9e" stroke-width=".96998"/>
 </g>
</svg>
