<?xml version="1.0" encoding="utf-8"?>
<!-- Generator: Adobe Illustrator 19.2.0, SVG Export Plug-In . SVG Version: 6.00 Build 0)  -->
<svg version="1.1" id="Layer_1" xmlns="http://www.w3.org/2000/svg" xmlns:xlink="http://www.w3.org/1999/xlink" x="0px" y="0px"
	 viewBox="0 0 1920 1080" style="enable-background:new 0 0 1920 1080;" xml:space="preserve">
<style type="text/css">
	.st0{fill:#82D6F4;}
	.st1{fill:#29ABE2;}
	.st2{fill:#0071BC;}
	.st3{fill:none;stroke:#00A99D;stroke-width:10;stroke-miterlimit:10;}
	.st4{fill:none;stroke:#00A99D;stroke-width:10;stroke-miterlimit:10;stroke-dasharray:20.1304,20.1304;}
</style>
<polygon class="st0" points="1211.9,332.5 1782,165 1367.9,391.8 "/>
<polygon class="st1" points="1782,165 1367.9,391.8 1434.4,533.5 "/>
<polygon class="st0" points="1782,165 1451.9,421.5 1584.6,603.7 "/>
<polygon class="st2" points="1434.4,533.5 1451.9,421.5 1490.3,474.2 "/>
<g>
	<g>
		<path class="st3" d="M1390.5,557.4c0,0-2.5,2.5-7.2,6.9"/>
		<path class="st4" d="M1368.3,577.8c-62.6,55.1-247.4,199.7-416.4,156.1c-207.5-53.4-166.3-275.2-43.8-274.8S1105.5,673,1039.5,814
			s-270,243-552.1,171c-229.3-58.5-419-299.7-466.8-364.9"/>
		<path class="st3" d="M14.7,611.9c-3.8-5.3-5.7-8.2-5.7-8.2"/>
	</g>
</g>
</svg>
