<?xml version="1.0" encoding="UTF-8"?>
<svg viewBox="0 0 744.09448819 1052.3622047" xmlns="http://www.w3.org/2000/svg">
 <path d="m224.36 541.61c-8.792-1.0858-15.929-7.0649-21.422-17.946-5.8295-11.548-7.5501-22.744-5.7484-37.404 0.82306-6.6968 0.8106-6.75-1.5822-6.75-3.111 0-4.6466 4.4393-5.4458 15.744-0.32055 4.5343-1.0821 8.6374-1.6922 9.1179-1.0636 0.83765-25.769 2.0946-41.744 2.1239l-7.6349 0.01397-1.697 5.25c-3.481 10.769-11.113 19.461-19.68 22.413-3.6127 1.2447-10.853 1.1726-19.353-0.19279-1.1-0.17669-3.428-0.35469-5.1733-0.39556-5.0212-0.11758-13.62-8.8589-15.812-16.074-0.41777-1.375 1.0578 0.2 3.2789 3.5 5.3633 7.9682 8.7238 10.318 15.894 11.111l5.8122 0.64356-4.0702-3.5515c-5.1183-4.4661-9.9131-13.373-12.007-22.307-2.5925-11.058-1.2644-22.367 4.0856-34.789 0.74569-1.7314 0.48644-1.83-3.0621-1.1643-6.6551 1.2485-9.0968 3.0982-10.928 8.278-2.5695 7.2699-3.0966 20.483-1.124 28.177 2.0783 8.1059 1.2939 9.276-0.97843 1.4595-1.9837-6.8237-2.206-20.435-0.42196-25.84 0.66297-2.0088 1.048-3.803 0.85573-3.9871s-3.0497-0.02702-6.3497 0.34906-7.6875 0.27713-9.75-0.2199c-3.1591-0.7613-3.7477-1.3179-3.7354-3.5321 0.05322-9.612 12.819-30.49 20.642-33.758 1.8034-0.75353 6.1639-1.37 9.6898-1.37 6.2162 0 6.4495-0.09344 7.6855-3.0775 0.7011-1.6926 2.3025-3.7509 3.5587-4.574 2.901-1.9008 11.92-4.3212 16.159-4.3367l3.25-0.01187-0.01531-11.75c-0.00842-6.4625-0.43566-12.415-0.94941-13.227-0.64369-1.0179-0.40577-2.0626 0.76531-3.3603 2.5643-2.8415 13.965-8.2568 20.399-9.6893 6.0128-1.3387 7.9629-3.4026 5.1551-5.4557-1.8983-1.3881-1.2202-4.5176 0.97887-4.5176 2.0596 0 6.6874 3.9256 7.6679 6.5043 1.1519 3.0298 8.9498 4.4003 34.64 6.0879 11.814 0.77607 10.231 2.4726 13.716-14.704l2.3105-11.388 4.416-2.1824c14.302-7.0682 64.823-9.4224 103.48-4.8223 4.716 0.56115 5.1467 0.42822 6.216-1.9186 0.63284-1.3889 2.3521-2.8235 3.8276-3.1938 1.4733-0.36977 3.5136-1.5072 4.534-2.5276 3.2434-3.2434 18.693-1.8636 17.547 1.567-0.19811 0.59273 1.0277 1.5501 2.7241 2.1275 2.6358 0.89718 3.4834 0.72547 5.8289-1.1809 3.6562-2.9717 6.2639-3.7024 8.6519-2.4243 2.6372 1.4114 2.7882 1.3694 3.3933-0.9446 1.0491-4.0118 8.6701-2.2172 29.969 7.057 3.7173 1.6186 6.9798 2.943 7.25 2.943s0.4912-1.5712 0.4912-3.4915c0-2.3039 0.62418-3.8813 1.835-4.6375 1.2245-0.7647 1.6826-1.9437 1.3767-3.5435-1.2855-6.7248 14.354-13.592 22.038-9.677 1.5125 0.77053 2.75 1.7704 2.75 2.2219s5.9625 3.6546 13.25 7.118l23.25 11.05c5.5 2.6142 20.35 9.4878 33 15.275 38.651 17.681 72.956 33.768 73.816 34.614 1.8226 1.7933 1.743 6.7762-0.14542 9.1083-1.5408 1.9028-2.8578 2.3471-6.957 2.3471h-5.0564l1.9213 2.4426c2.1196 2.6947 2.4696 6.2799 0.89928 9.214-1.1013 2.0579-0.96221 2.124 7.2287 3.4384 5.2565 0.84349 8.1095 4.6897 7.2504 9.7744l-0.65011 3.848 6.209-0.58004c6.437-0.60133 8.984 0.31732 8.984 3.2403 0 0.83452 0.74812 2.0644 1.6625 2.733 3.1812 2.3261 0.88182 4.4957-4.8811 4.6055-2.9048 0.05534-10.625 0.61784-17.156 1.25l-11.874 1.1494-1.6956 6.7574c-1.1372 4.532-2.6605 7.775-4.6256 9.8472-2.8504 3.0059-3.1066 3.0724-9.43 2.4478-4.3206-0.42678-7.1261-1.2624-8.3673-2.4923-1.8188-1.8022-1.9801-1.7326-6.2074 2.6793l-4.3401 4.5296-5.2926-0.69038c-2.9109-0.37972-6.2946-0.93638-7.5192-1.237-3.3144-0.81367-7.7092-10.545-8.1912-18.137-0.05645-0.88917-1.1013-1.1377-3.3322-0.79273-1.7875 0.27642-9.3013 0.77515-16.697 1.1083s-13.815 0.83314-14.265 1.1111-1.4238 1.9371-2.1646 3.687c-2.8001 6.6148-7.4613 8.3877-17.246 6.5597-3.9272-0.73369-4.9688-0.55765-7.2315 1.2222-2.3089 1.8162-3.4663 1.9942-9.1444 1.407-7.5882-0.78478-10.215-2.196-11.969-6.4299-0.7011-1.6926-2.0076-3.1158-2.9034-3.1627-2.9932-0.15668-11.787 0.21117-13.72 0.57387-1.05 0.1971-2.944 0.39279-4.2088 0.43487-2.2059 0.07339-2.2728 0.31361-1.6414 5.8948 0.3876 3.426 0.15484 8.2573-0.56609 11.75-2.9686 14.382-9.449 19.79-21.542 17.977-3.8037-0.5704-5.014-1.34-7.4963-4.7667-3.8197-5.273-5.1122-10.262-5.1122-19.735v-7.6567l-3.957 0.55674-3.957 0.55674-0.21409 10.604c-0.20094 9.9527-0.42908 11.022-3.7141 17.401-4.6111 8.9548-7.7639 10.789-17.572 10.225-8.7041-0.50084-12.371-2.8706-16.037-10.363-1.4031-2.8679-3.0776-5.4065-3.7211-5.6415s-4.545-0.50402-8.67-0.59789-11.438-0.43674-16.25-0.76193l-8.75-0.59125v4.0448c0 3.2678-0.52829 4.4236-2.75 6.0168-1.9038 1.3652-3.2699 3.7714-4.4395 7.8194-3.2301 11.18-12.171 22.09-21.19 25.859-3.6746 1.5353-17.089 1.8255-27.12 0.58672zm5.5-3.5886c-13.868-10.258-20.657-31.986-16.564-53.012 0.74938-3.85 1.2953-7.0454 1.2132-7.1009s-3.3967 0.36298-7.3657 0.92998l-7.2165 1.0309-1.1554 5.5656c-1.9358 9.3249-0.70698 23.268 2.8516 32.356 5.8718 14.995 13.891 21.734 26.796 22.519l4.941 0.30064-3.5-2.589zm23.814-0.10708c10.821-5.3926 18.639-19.983 19.881-37.106 1.9146-26.393-10.834-47.349-28.761-47.277-10.179 0.04114-16.777 5.007-24.71 18.598-5.2203 8.9432-6.5379 13.913-6.5958 24.88-0.05396 10.208 2.5805 20.535 7.4037 29.022 7.5302 13.25 20.561 17.973 32.782 11.883zm-16.246-25.764c-7.7576-8.2254-7.5428-24.903 0.42336-32.869 5.1278-5.1279 9.8653-5.2637 14.439-0.41417 3.8522 4.0845 5.576 9.4477 5.5468 17.258-0.05695 15.257-12.166 24.766-20.409 16.026zm13.352-1.2282c3.9256-3.3032 6.5532-11.766 5.7525-18.527-1.9258-16.26-15.4-20.358-21.21-6.4513-3.5177 8.419-1.9046 19.993 3.4536 24.781 3.958 3.5364 7.9577 3.6021 12.004 0.19707zm-10.17-2.1634c-3.5481-3.7192-4.7548-7.3085-4.7288-14.065 0.04103-10.621 5.431-17.835 11.666-15.614 8.4174 2.9985 10.536 21.695 3.3325 29.407-3.5293 3.7781-6.8416 3.8659-10.27 0.27213zm7.4 0.66932c2.8866-1.5449 5.8016-8.6227 5.8273-14.149 0.02868-6.1775-2.5508-12.482-5.804-14.187-9.9922-5.2354-15.606 18.551-6.3935 27.089 2.8403 2.6323 3.5296 2.7673 6.3703 1.247zm-127.61 21.958c7.1524-3.362 13.631-12.008 16.504-22.025l0.81796-2.8521h-6.7302c-3.9013 0-7.2346 0.5044-7.9302 1.2-0.93333 0.93333-1.2 0.88005-1.2-0.23978 0-0.9119-0.93144-0.43527-2.5405 1.3-3.149 3.3961-5.5588 3.4681-8.6046 0.25706-2.5165-2.653-3.855-3.164-3.855-1.4718 0 1.9645 4.9048 5.9546 7.3197 5.9546 1.3258 0 3.7088-0.99 5.2954-2.2l2.8849-2.2-2 2.3148c-4.419 5.1145-10.774 4.2543-14.329-1.9396-1.2484-2.1751-2.5137-2.956-5.1518-3.1793l-3.497-0.29594-0.35487-7.8533c-0.36559-8.0906 1.1138-18.747 3.3754-24.315 0.70785-1.7426 1.1237-3.3318 0.92405-3.5314s-2.234-0.18451-4.5208 0.03358c-3.9703 0.37862-4.2725 0.65082-6.6976 6.0314-3.4479 7.65-4.3317 23.897-1.7779 32.682 3.3284 11.449 8.4755 18.733 15.8 22.358 5.3861 2.6661 10.555 2.6572 16.267-0.02804zm208.03-21.196c-3.7388-4.9018-5.6134-11.195-5.8554-19.656l-0.21516-7.5255-3.1581-0.30651c-2.774-0.26922-3.2358 0.04686-3.7962 2.5986-0.67744 3.0844 0.62712 12.996 2.2722 17.264 1.3394 3.4747 6.0566 8.9456 8.6006 9.9748 4.1162 1.6652 4.7154 1.0109 2.1521-2.3498zm14.651 2.2637c6.782-3.0901 12.143-19.36 10.34-31.382-0.67937-4.5304-0.75755-4.6128-4.1611-4.3836-3.315 0.22326-3.4388 0.36851-2.7927 3.2769 1.9088 8.5925-0.22548 18.198-4.5587 20.517-4.9538 2.6512-10.086-8.582-8.0109-17.532 0.50269-2.1677 0.92471-4.2661 0.93783-4.6631 0.03726-1.1273-7.9873-0.16701-9.2628 1.1084-1.6551 1.6551-1.8068 14.153-0.23526 19.374 2.0736 6.8902 5.1341 12.252 7.6972 13.485 3.0076 1.447 7.1274 1.5286 10.046 0.19884zm-224.44-4.7906c0.249-0.74701-1.0564-1.1545-3.6985-1.1545-4.2578 0-5.2881 1.2264-2.3918 2.8472 1.9026 1.0648 5.5049 0.06353 6.0903-1.6927zm255.01-6.1827c-5.6197-9.0402-5.0298-25.474 1.2712-35.41 3.018-4.7588 2.7513-5.3456-1.5404-3.3902-4.8276 2.1996-9.4904 12.934-9.5117 21.897-0.01656 6.9917 2.7261 14.868 6.4865 18.629 5.2567 5.2567 7.0506 4.3171 3.2943-1.7256zm15.711 1.7256c5.7608-5.7608 8.337-20.825 5.2966-30.973-1.6705-5.5757-6.7217-10.724-10.521-10.724-12.672 0-18.01 31.114-7.1932 41.931 4.1852 4.1852 8.0722 4.1121 12.418-0.23358zm-8.9056-10.947c-3.4744-5.3948-2.7106-15.636 1.4786-19.826 6.1991-6.1991 12.028 11.163 6.5535 19.519-2.1239 3.2414-6.0457 3.3912-8.0322 0.30684zm7.403-1.9076c0-0.68044-0.60174-0.58786-1.6082 0.24744-2.5429 2.1104-4.3918-1.3756-4.3918-8.2809 0-4.4755 0.45907-6.2679 2-7.8089 1.1-1.1 1.5434-2 0.9853-2s-1.9064 1.4625-2.9963 3.25c-3.1176 5.1132-2.3644 14.511 1.3568 16.93 1.2899 0.83848 4.6542-0.85147 4.6542-2.3378zm-0.66974-5.4229c0.53563-2.5286 0.42041-4.984-0.32471-6.9195-1.11-2.8833-1.2104-2.9245-2.5802-1.0589-2.2748 3.0981-1.5002 13.081 0.95202 12.269 0.61748-0.20428 1.4963-2.1352 1.9529-4.2909zm-283.71 18.497c0.06875-0.50417 0.18125-1.3667 0.25-1.9167s0.59473-1 1.1688-1 0.97079 0.5625 0.88152 1.25c-0.3676 2.8308 0.16885 3.8785 1.8228 3.56 0.96151-0.18517 1.749-1.1919 1.75-2.2372s0.56572-2.0898 1.255-2.321c0.79621-0.26715 1.1608 0.38706 1 1.7942-0.16682 1.4592 0.34375 2.3106 1.4968 2.4959 1.2606 0.20263 1.75-0.39306 1.75-2.1302 0-3.0452 1.7525-3.175 2.1804-0.16152 0.17575 1.2375 0.76955 2.25 1.3196 2.25s1.1438-1.0125 1.3196-2.25 0.76858-2.25 1.3174-2.25 0.71219 0.9 0.36306 2c-0.52086 1.6411-0.1797 2 1.9012 2 1.7619 0 2.3722-0.427 1.9992-1.3988-0.29523-0.76937-0.05611-1.6959 0.53139-2.059 0.62546-0.38655 1.0682 0.19321 1.0682 1.3988 0 1.3924 0.64756 2.059 2 2.059 1.3131 0 2-0.66667 2-1.941 0-1.0675 0.46804-2.2302 1.0401-2.5838 0.67444-0.41682 0.8121 0.26555 0.3916 1.941-0.54375 2.1665-0.30794 2.5838 1.4599 2.5838 1.4418 0 2.1084-0.63239 2.1084-2 0-1.1 0.40787-2 0.90638-2s0.67103 0.9 0.38337 2c-0.40136 1.5348-0.03068 2 1.5936 2 1.1763 0 2.1166-0.6402 2.1166-1.441 0-0.79254 0.52089-1.7629 1.1575-2.1564 0.79308-0.49016 0.97998-0.03647 0.59362 1.441-0.46217 1.7673-0.12975 2.1564 1.8425 2.1564 1.7397 0 2.4064-0.55408 2.4064-2 0-1.1 0.48033-2 1.0674-2 0.61231 0 0.79675 0.85269 0.43261 2-0.52226 1.6455-0.1797 2 1.9326 2 1.9007 0 2.5674-0.51933 2.5674-2 0-1.1 0.40787-2 0.90638-2s0.65916 0.94539 0.35699 2.1009c-0.43364 1.6582-0.15057 2.0248 1.3436 1.7398 1.0512-0.20052 2.0351-1.3571 2.2126-2.6009 0.17575-1.2319 0.74683-2.2398 1.269-2.2398s0.65657 1.1672 0.2972 2.599c-0.54492 2.1711-0.34417 2.5396 1.2195 2.2385 1.0295-0.19826 2.0331-1.2553 2.2303-2.349 0.62163-3.4476 2.3728-4.3129 2.0004-0.98852-0.38749 3.4596 2.3868 4.3852 2.9974 1 0.62337-3.4558 2.3757-4.3309 2.0026-1-0.2732 2.4392 0.03529 3 1.6503 3 1.1994 0 2.1292-0.79235 2.3471-2 0.62337-3.4558 2.3757-4.3309 2.0026-1-0.24073 2.1493 0.08932 3 1.164 3 0.89299 0 1.628-1.1128 1.8164-2.75 0.37709-3.2773 2.1437-3.7492 1.8718-0.5-0.2617 3.1277 1.7347 3.8253 2.1464 0.75 0.57203-4.273 2.1653-4.7268 2.1653-0.61667 0 2.5806 0.3974 3.6519 1.25 3.3698 0.76728-0.25383 1.4974-3.2788 1.8906-7.8333 0.35234-4.0809 1.1873-9.5337 1.8555-12.117 1.1154-4.313 1.0349-4.9502-0.9844-7.7861-1.9568-2.748-2.6842-4.5742-2.9352-7.3682-0.04208-0.46847-6.264-0.59297-13.827-0.27665s-26.025 0.64001-41.028 0.71932c-30.892 0.16332-27.967-0.73859-30.593 9.4325-1.9064 7.3848-2.6455 17.334-1.6117 21.696 0.42769 1.8044 0.82368 2.4932 0.87998 1.5307 0.16615-2.8406 2.1024-1.9963 2.1024 0.91667 0 2.374 1.3079 2.5753 1.625 0.25zm174.71-11.724c-0.28263-20.216-5.1188-36.282-13.006-43.207-3.0516-2.6793-8.7493-4.9672-12.403-4.9801-3.3103-0.01175-10.735 3.1929-14.01 6.0468l-3.4183 2.9791 4-0.7098c9.4662-1.6798 15.404-0.06268 22.361 6.0901 3.8226 3.3804 9.7065 12.688 11.542 18.258 2.0928 6.3502 2.3384 8.3568 2.4823 20.28 0.09127 7.5642 0.36346 9.1991 1.364 8.1926 0.87746-0.88262 1.2013-4.7422 1.0865-12.95zm65.107 5.5849c0.85618-1.2224 1.5567-2.6725 1.5567-3.2225s-0.70052 1.3e-4 -1.5567 1.2225-1.9708 2.2225-2.477 2.2225c-1.7396 0-4.1834-4.9858-5.0186-10.239l-0.83647-5.2608 0.24935 6.1279c0.38845 9.546 4.5252 14.229 8.0827 9.1496zm-29.703-7.6974-0.24055-7.5801-16.75-0.1877-16.75-0.1877v6.9377c0 6.4903 0.1451 6.9459 2.25 7.0649l13.25 0.75c6.05 0.34253 12.683 0.65883 14.741 0.7029l3.7405 0.08012-0.24054-7.5801zm29.224 3.9856c1.1221-2.0967 1.4125-11.919 0.42819-14.484-0.90317-2.3536-4.1506-1.9178-4.9788 0.66821-1.0771 3.3634-0.78013 11.198 0.51625 13.62 1.4154 2.6446 2.6906 2.7064 4.0343 0.19563zm182.74-11.316c4.2228-4.6183 5.6926-8.9397 5.6968-16.75 0.00819-15.065-8.1816-22.546-15.748-14.386-6.644 7.1653-6.2169 27.079 0.68441 31.913 3.0495 2.1359 7.0033 1.808 9.3669-0.77688zm-8.3712-10.485c-3.178-7.606 0.39693-18.437 5.546-16.802 2.9615 0.93994 4.3472 4.023 4.4922 9.9949 0.15311 6.3058-2.2378 10.542-5.9498 10.542-1.9742 0-2.8698-0.81818-4.0884-3.7347zm7.6472-6.7064c-0.01696-4.4959-1.2144-7.153-2.7859-6.1817-1.6649 1.0289-2.3969 7.9726-1.1774 11.168 1.0849 2.8423 1.1824 2.881 2.5532 1.014 0.78392-1.0676 1.4184-3.7676 1.41-6zm-5.4847 0.03159c0-3.5224-0.33061-5.8837-0.73469-5.2474-1.3532 2.1308-0.81832 11.701 0.65136 11.654 0.04583-0.00145 0.08333-2.8846 0.08333-6.4069zm-8.0362 13.16c-3.9224-8.425-2.869-20.159 2.4847-27.678 2.1611-3.035 2.163-3.0724 0.15862-3.0724-4.3705 0-8.8518 7.2415-9.731 15.725-0.75923 7.3256 0.94678 13.752 4.6281 17.433 4.2945 4.2945 5.1775 3.4299 2.4596-2.408zm-188.02 0.60536c0.36507-1.4546 0.30135-2.9552-0.14159-3.3348-3.2819-2.8126-17.114-13.021-17.644-13.021-0.36384 0-0.66152 3.825-0.66152 8.5 0 6.1204 0.34994 8.5068 1.25 8.5243 2.8364 0.05508 12.281 1.2456 12.667 1.5968 1.4267 1.2976 3.953 0.03418 4.5303-2.2657zm226.04 0.47674c3.8205-3.0052 5.6387-7.9602 5.6387-15.367 0-12.986-7.9389-20.144-14.233-12.833-2.521 2.928-3.8917 8.1315-3.89 14.767 0.0018 7.0658 2.2582 12.453 5.9984 14.322 3.272 1.6349 3.2784 1.6341 6.4863-0.88925zm-5.2571-8.0029c-1.9759-1.9759-1.5565-12.203 0.61013-14.879l1.8393-2.2715 2.1607 2.1607c1.5433 1.5433 2.1565 3.375 2.1459 6.4107-0.0248 7.15-3.6199 11.715-6.7561 8.5792zm3.7708-7.3292c0-1.8601-0.402-3.6304-0.89333-3.9341-1.1874-0.73385-2.3504 4.0906-1.5751 6.5336 0.9169 2.8889 2.4684 1.255 2.4684-2.5996zm0.5-6.5c-0.33992-0.55-1.068-1-1.618-1s-0.72189 0.45-0.38197 1 1.068 1 1.618 1 0.72189-0.45 0.38197-1zm-245.99 21.797c0.14704-0.16335 0.43068-6.3188 0.63032-13.679l0.36298-13.382-6.5 0.05117c-24.912 0.19613-23-0.01887-23 2.5866 0 1.3058 0.61215 4.1184 1.3603 6.25s1.9019 7.0027 2.5639 10.825 1.3565 7.1969 1.5434 7.5c0.34076 0.55255 22.537 0.4062 23.039-0.15191zm140.21-3.6949c1.255-1.8688 2.2819-4.0063 2.2819-4.75 0-1.9931-2.4261-1.6438-4.5 0.64788-2.2596 2.4968-3.7162 2.5236-5.9018 0.10848-2.5484-2.816-5.9368-1.6419-5.1298 1.7776 1.5979 6.7707 9.3232 8.0628 13.25 2.2161zm94.724 0.78536c-3.5316-6.8293-2.3102-22.262 2.0481-25.879 2.0672-1.7156 1.8948-3.0084-0.40101-3.0084-1.0511 0-2.977 1.2668-4.2798 2.8151-2.2103 2.6268-2.3576 3.566-2.2031 14.045 0.1354 9.1816 0.48832 11.587 1.9348 13.185 0.97307 1.0752 2.386 1.955 3.1399 1.955 1.1098 0 1.0643-0.59251-0.23886-3.1125zm-468.89 1.1125c3.4456 0 5.1153-0.64256 7.804-3.0033 6.5275-5.7312 6.9264-5.7833 49.17-6.4198 21.438-0.32299 43.312-0.85461 48.609-1.1814 10.437-0.64389 13.87 0.25699 13.87 3.6396 0 1.0806 0.45 1.9648 1 1.9648s1-0.36397 1-0.80883 1.575-3.4244 3.5-6.6212 3.5-6.11 3.5-6.4739-3.0375-0.51037-6.75-0.32561c-5.487 0.27307-7.369-0.05213-10.058-1.738-3.5637-2.2341-7.1339-8.8156-7.1699-13.217-0.04672-5.7115 3.9595-11.986 8.978-14.061 3.1894-1.3188 13.594-1.0395 16.374 0.43951 2.9291 1.5584 9.5858 7.1402 9.6078 8.0564 0.0327 1.3603-1.4656 0.78377-3.9922-1.5362-7.3109-6.7131-10.975-7.5656-8.0738-1.8784 3.3132 6.4945 3.1719 13.282-0.38588 18.525l-2.4699 3.6396h2.7575c1.9984 0 4.1235-1.4006 7.7199-5.0879 5.229-5.3612 13.066-11.266 14.885-11.215 18.95 0.5317 36.87 1.6478 39.578 2.4651 1.925 0.58095 5.1611 2.3572 7.1914 3.9472s4.014 2.8909 4.4084 2.8909c1.241 0-0.40497-43.262-1.6758-44.047-0.73762-0.45587-0.84419-1.5388-0.30291-3.0782 0.45929-1.3062 0.89052-3.7248 0.95828-5.3748s0.48359-9.1875 0.92406-16.75l0.80086-13.75h14.776c18.188 0 18.447 0.1469 17.519 9.9326-1.2457 13.132-0.92201 22.645 0.86316 25.37 1.448 2.21 1.6622 5.5552 1.5765 24.627l-0.09909 22.07h13.561c9.9717 0 13.666-0.33088 13.957-1.25 0.21734-0.6875 0.60702-10.651 0.86596-22.14 0.46343-20.564 0.43333-20.961-1.9266-25.399-1.9341-3.6375-2.3974-6.0023-2.3974-12.238 0-8.7528-1.4629-13.153-6.1463-18.487-3.9459-4.4941-7.0374-6.108-13.367-6.9781-2.7428-0.37703-6.1118-0.92015-7.4868-1.2069-6.0052-1.2525-62.796-1.1026-73.286 0.19344-11.509 1.4218-23.786 4.6712-25.482 6.7442-0.56769 0.69368-1.9999 5.7612-3.1826 11.261s-2.4107 11.125-2.7287 12.5c-0.3801 1.6434-0.24158 2.1574 0.40426 1.5 0.54038-0.55 2.0318-5.8301 3.3143-11.734 2.2439-10.329 2.4473-10.769 5.3966-11.682 5.7198-1.7691 17.012-2.5849 35.78-2.5849 22.199 0 22.331 0.05546 22.209 9.288-0.12892 9.7366-4.9103 26.207-7.2183 24.865-0.38834-0.22583-4.5311-0.70474-9.2061-1.0642l-14.5-1.1147c-9.6038-0.73791-30.643-2.519-35-2.9629-2.2-0.22417-7.825-0.66723-12.5-0.98459s-10.904-0.84767-13.841-1.1785l-5.3412-0.60144 1.6215 3.1356c1.2555 2.4279 1.3719 3.602 0.51561 5.202-0.69629 1.301-1.2548 11.919-1.508 28.669-0.22116 14.631-0.74967 26.933-1.1745 27.338s-13.597 0.98343-29.272 1.2866-30.331 0.83178-32.569 1.1747c-3.4799 0.53327-4.539 0.22801-7.3158-2.1085-1.7858-1.5026-3.9743-4.55-4.8633-6.7719l-1.6164-4.0399-4.2459 4.8251c-2.3352 2.6538-6.3316 9.0832-8.8809 14.288s-4.8957 9.2019-5.2143 8.8833c-1.2309-1.2309 8.9425-19.726 13.735-24.969 2.7338-2.9913 4.9706-5.9381 4.9706-6.5484 0-1.753-11.667-1.3617-15.642 0.52466-3.7523 1.7806-8.5729 7.26-12.716 14.453-3.3821 5.8725-3.3235 6.9121 0.38918 6.9121 1.7394 0 3.2709 0.62417 3.5934 1.4645 0.77061 2.0082-3.2795 7.445-6.4923 8.7151-2.478 0.97963-2.5151 1.0888-0.63246 1.8606 1.1 0.45096 2.5993 0.6264 3.3318 0.38986s3.3043-0.43006 5.7152-0.43006zm181.37-64.386c-0.22917-0.21217-4.908-0.708-10.397-1.1018s-10.664-0.84626-11.5-1.0054-6.0193-0.60127-11.519-0.98256-11.125-0.84813-12.5-1.0374-7-0.63725-12.5-0.99546c-17.974-1.1706-18.2-1.2246-17.106-4.0759 0.66865-1.7425 0.23559-1.7453 19.606 0.13011 2.475 0.23963 9.9 0.908 16.5 1.4853s13.575 1.2348 15.5 1.4611c3.5 0.41154 9.3463 0.93207 22.5 2.0033 9.8564 0.8027 12.5 1.4549 12.5 3.084 0 1.0498-1.3918 1.4205-5.3333 1.4205-2.9333 0-5.5208-0.17359-5.75-0.38576zm-44.667-6.2765c-0.6875-0.27741-1.8125-0.27741-2.5 0s-0.125 0.50439 1.25 0.50439 1.9375-0.22698 1.25-0.50439zm3.9375-0.02083c-0.72188-0.28888-1.5844-0.25335-1.9167 0.07894s0.25834 0.56864 1.3125 0.52522c1.165-0.04798 1.4019-0.28494 0.60417-0.60416zm-15.457-1.0099c-0.97297-0.25354-2.323-0.23687-3 0.03705s0.11903 0.48137 1.769 0.46099 2.2039-0.2445 1.231-0.49804zm-8.981-0.99634c-0.9625-0.25152-2.5375-0.25152-3.5 0s-0.175 0.45733 1.75 0.45733 2.7125-0.2058 1.75-0.45733zm120.92-5.9773c-0.36667-0.36666-0.66667-6.6508-0.66667-13.965 0-15.591 0.26919-16.024 8.9427-14.379 9.24 1.7523 9.0573 1.4505 9.0573 14.963v11.882l-5.0492 1.0829c-5.6995 1.2223-11.289 1.4117-12.284 0.41619zm12.208-1.9583 3.125-0.625v-10.84c0-12.369-0.05493-12.454-8.5-13.054l-5-0.35569-0.27988 12.75-0.27987 12.75h3.9049c2.1477 0 5.3111-0.28125 7.0299-0.625zm110.3 77.635c-1.3624-3.2437-2.179-3.9917-4.3667-4-1.48-0.00559-2.9456 0.40173-3.2567 0.90516-0.96999 1.5695 4.4499 7.0847 6.9623 7.0847h2.3368l-1.6757-3.9898zm-219.18 1.9898c0-0.55-0.40186-1-0.89301-1-1.5704 0-2.1369-3.0727-0.98122-5.3224 0.61523-1.1977 2.2728-3.4151 3.6835-4.9276 2.1287-2.2823 3.4045-2.75 7.5019-2.75 4.8376 0 5.0914-0.15684 12.605-7.7925 4.2173-4.2859 9.1115-8.3905 10.876-9.1213 4.3766-1.8128 4.026-2.7411-1.042-2.7591-2.3375-0.00828-8.5627-0.14112-13.834-0.2952-6.3667-0.1861-10.386 0.14919-11.974 0.99882-6.9655 3.7278-20.025 19.511-23.916 28.904-1.1421 2.7572-1.1324 3.385 0.06347 4.1421 1.9619 1.242 17.91 1.1734 17.91-0.07705zm253.08-1.9231c3.447-3.447 4.0056-7.1728 0.95584-6.3752-1.082 0.28295-2.4871 1.1408-3.1224 1.9064-1.5555 1.8742-4.604 1.7616-5.7079-0.2108-0.49332-0.88151-1.7532-1.4277-2.7997-1.2138-4.0815 0.8344 0.76084 8.8165 5.3485 8.8165 1.3222 0 3.7171-1.3145 5.3257-2.9231zm-111.08 0.38653c6.875-0.34746 12.573-0.70639 12.661-0.7976s-4.1864-3.6527-9.5-7.9144l-9.6612-7.7486-15.5 0.18463c-8.525 0.10154-17.192 0.43839-19.259 0.74856l-3.7592 0.56395 8.0925 6.5c12.254 9.8425 12.6 10.017 18.909 9.525 3.0342-0.2364 11.142-0.71411 18.017-1.0616zm98.326-1.2134c-0.94621-1.5125-1.8469-2.9278-2.0016-3.1452-0.49118-0.69034-2.109 4.3617-1.6477 5.1452 0.24288 0.4125 1.5504 0.75 2.9056 0.75 2.4384 0 2.4462-0.02857 0.74364-2.75zm-386.01-2.4687c2.4951-3.3749 2.246-4.1427-1.4826-4.5684-3.0846-0.35224-3.4166 0.02798-4.345 4.9769-0.64094 3.4165-0.53708 3.6347 1.479 3.1075 1.1926-0.31186 3.1494-1.894 4.3486-3.5159zm155.91-1.5313c3.1036-5.6934 3.1006-5.6984-3.2344-5.4249-2.6652 0.11505-8 5.2104-8 7.641 0 1.9405 2.9599 3.5746 5.9362 3.2773 1.799-0.1797 3.1848-1.6165 5.2981-5.4934zm147.17-1.6966c3.1657-5.8783 6.0068-7.8398 12.086-8.3439 6.3735-0.52854 10.695 0.93523 13.577 4.5989l1.9962 2.5377 29.72-1.7162c16.346-0.94391 31.97-1.8968 34.72-2.1174s12.2-0.74033 21-1.1548 16.338-0.8332 16.75-0.93061 2.0475-0.23334 3.6334-0.30209c1.8148-0.07868 3.0698-0.77355 3.3866-1.875 0.27674-0.9625 0.8535-2.6056 1.2817-3.6513 0.7606-1.8576-0.21425-1.8848-42.376-1.1814-23.735 0.39596-45.072 0.88054-47.415 1.0768s-14.385 0.65634-26.76 1.0223-22.805 0.96197-23.178 1.3245-1.6418 3.1174-2.8193 6.1219c-2.0319 5.1848-2.0512 5.5283-0.38039 6.75 2.4715 1.8072 2.6985 1.7047 4.7794-2.1594zm73.099 2.4466c0.33992-0.55-0.30852-1-1.441-1s-2.059 0.45-2.059 1 0.64844 1 1.441 1 1.7191-0.45 2.059-1zm-16-1.5191c2.2-0.21903 8.5-0.65513 14-0.9691 21.685-1.2379 27.209-1.5807 32.5-2.0168 3.025-0.24932 11.35-0.73421 18.5-1.0776s13.428-1.0277 13.95-1.5209c1.2182-1.1497-1.542-1.135-24.945 0.13316-66.115 3.5825-81.505 4.7544-81.505 6.2066 0 0.91002 14.876 0.50131 27.5-0.75552zm34.688-0.16399c-0.72188-0.28887-1.5844-0.25335-1.9167 0.07894s0.25834 0.56864 1.3125 0.52522c1.165-0.04798 1.4019-0.28494 0.60417-0.60416zm-98.826-2.8169c0.42612-1.1105-0.13041-1.4917-2.143-1.4682-2.6064 0.03049-2.6385 0.09239-0.77749 1.5 2.3696 1.7923 2.2199 1.7939 2.9205-0.0318zm2.7414-7 1.9906-4.5 14.203-0.06768c10.708-0.05103 13.588-0.31982 11.703-1.0923-9.0223-3.6979-14-8.5024-14-13.513 0-2.8807-0.21487-2.9732-8.9018-3.8302-6.9765-0.68825-7.3577-0.62295-6.6343 1.1365 3.2692 7.952 2.5204 16.064-2.0347 22.044-2.1819 2.8645-2.2484 3.2225-0.6748 3.634 0.96009 0.25106 1.8834 0.50868 2.0518 0.57248s1.202-1.909 2.2968-4.384zm6.397-11.5c0.33992-0.55-0.33508-1-1.5-1-1.2317 0-1.845-0.44173-1.4657-1.0555 0.40906-0.66188 2.5755-0.81337 5.809-0.4062 5.4774 0.68972 7.4655 1.4617 3.7643 1.4617-1.2292 0-1.949 0.44774-1.6076 1 0.36155 0.585-0.67595 1-2.5 1s-2.8616-0.415-2.5-1zm219.5 11.028c3.8374-0.98245-6.2725-0.53005-22.5 1.0068-7.7594 0.73489-7.0702 0.786 5 0.37082 7.7-0.26487 15.575-0.88481 17.5-1.3776zm-235.72-1.0334c1.7713-1.3933 2.6733-1.6347 2.9546-0.79063 0.22274 0.66821 1.2581-0.22928 2.3008-1.9944s2.2488-3.2094 2.6802-3.2094c1.2978 0 0.88304-8.8281-0.57918-12.328-2.6802-6.4145-11.637-9.0901-18.703-5.5868-4.934 2.4462-6.1126 4.1829-5.7476 8.4697 0.27543 3.2354 0.74964 3.8346 3.8145 4.8198 2.9766 0.95681 3.7243 1.8408 5 5.9113 1.3512 4.3116 1.7404 4.7268 3.9246 4.1871 2.1106-0.52154 2.2567-0.39673 1.1276 0.96375-1.8407 2.2179 0.20143 1.9378 3.2278-0.44269zm-3.28-15.494c0-1.8274 1.1276-1.9213 3.0018-0.25 1.1952 1.0658 1.2036 0.98849 0.0575-0.52417-0.73935-0.97579-1.0184-2.1001-0.62001-2.4984s1.3624 0.14849 2.1424 1.2152c1.1181 1.5291 1.1537 2.1074 0.16824 2.7331-2.0621 1.3093-4.7499 0.92696-4.7499-0.67572zm7-0.31144c0-0.44629-0.94525-1.826-2.1006-3.0661s-1.8552-2.5-1.5554-2.7998c0.62988-0.62987 5.6559 4.545 5.6559 5.8234 0 0.46969-0.45 0.85398-1 0.85398s-1-0.36515-1-0.81144zm-246.1 14.238c6.3177-5.316 6.149-15.539-0.35059-21.246-3.0114-2.6441-3.8463-2.9048-7.0144-2.1903-6.2535 1.4104-9.5394 5.8913-9.5394 13.009 0 10.853 9.4623 16.689 16.904 10.427zm-10.154 0.49289c-4.5328-2.6401-6.3236-13.192-3.0459-17.947 3.9559-5.7396 7.6703-6.3968 12.378-2.1901 9.0168 8.0565 0.70774 25.985-9.3326 20.137zm8.6528-2.8124c5.4262-5.9959 2.3558-18.107-4.5905-18.107-3.3954 0-7.8123 5.3557-7.8123 9.4727 0 3.9306 2.191 9.038 4.229 9.858 2.8035 1.128 6.5539 0.56671 8.1738-1.2233zm472.6 3.0415c6.617-0.57256 7.5-0.88442 7.5-2.649 0-1.9204-0.66667-2-16.743-2-9.2088 0-16.746 0.30821-16.75 0.6849s0.40345 1.7635 0.90466 3.0818c0.88078 2.3166 1.1904 2.3824 9.25 1.9641 4.5863-0.23805 11.714-0.72484 15.839-1.0818zm-465.7-1.899c0.7388-3.8459 0.12656-3.9661-1.7471-0.34293-1.3293 2.5706-1.3614 3.0929-0.19031 3.0929 0.775 0 1.6468-1.2375 1.9374-2.75zm36.455 1.8055 14.25-0.05549v-26.441c0-14.543-0.3375-26.605-0.75-26.805-0.81255-0.39489-46.479 1.1417-46.916 1.5786-0.14588 0.14588-0.52029 11.8-0.83204 25.897l-0.56681 25.632 2.7822 0.41276c1.5302 0.22701 6.1572 0.28327 10.282 0.12501 4.125-0.15825 13.912-0.31271 21.75-0.34322zm-32-1.637c-0.4125-0.41352-0.75-11.702-0.75-25.085v-24.333l12.25-0.03174c6.7375-0.01746 16.887-0.30049 22.555-0.62897l10.305-0.59723-0.62448 24.379c-0.34346 13.408-0.95246 24.716-1.3533 25.127-0.98093 1.0071-41.431 2.124-42.382 1.1702zm5.25-24.419c0-22.333-0.05797-23-2-23-1.1 0-2.0265 0.5625-2.0589 1.25s-0.26382 11.038-0.51434 23l-0.45547 21.75h5.0287v-23zm2.8839 0c0.12176-12.685-0.17257-23-0.65629-23s-0.98375 10.35-1.1142 23c-0.13416 13.014 0.15078 23 0.6563 23 0.49224 0 0.99253-10.328 1.1142-23zm9.1161-0.60699c0-21.116-0.16693-23.543-1.5818-23-0.86999 0.33385-2.67 0.60699-4 0.60699h-2.4182v46h8v-23.607zm3.1188 0.39685c0.16183-12.491-0.02371-23.028-0.4123-23.417s-0.79056 4.431-0.89326 10.71-0.26664 16.367-0.36431 22.417c-0.15778 9.7738 0.2033 14.19 1.0869 13.293 0.15881-0.16122 0.42116-10.513 0.58299-23.003zm10.881-0.28986v-23.5h-9l-0.01252 4.25c-0.00689 2.3375-0.29869 12.189-0.64843 21.892s-0.35823 18.366-0.01886 19.25c0.44128 1.15 1.9078 1.608 5.1484 1.608h4.5314v-23.5zm2.8319-0.25c-0.18058-25.512-1.1894-22.461-1.656 5.0074-0.25693 15.124 0.01014 18.743 1.3832 18.743 0.24254 0 0.36533-10.688 0.27287-23.75zm7.6818 21.5c0.3035-1.2375 0.42457-11.882 0.26906-23.655-0.24848-18.81-0.47869-21.434-1.8987-21.642-0.88879-0.1301-2.0761 0.05228-2.6384 0.40529-1.1602 0.72831-2.8604 44.338-1.7958 46.061 1.2666 2.0493 5.4736 1.2385 6.0639-1.1687zm173.24 5.2708c7.6641-0.01934 8.25-0.16752 8.25-2.0866 0-1.1362-0.43813-2.8844-0.97362-3.885-1.1253-2.1026-6.0433-3.6399-6.9503-2.1725s-5.231 1.9493-18.326 2.0409l-11.75 0.08223v7.2407l10.75-0.59954c5.9125-0.32975 14.462-0.60892 19-0.62037zm-143.1-1.4862c4.5362-3.1773 6.8197-12.818 4.2279-17.85-2.4715-4.7986-5.0977-6.6843-9.3096-6.6843-6.4787 0-11.565 5.7638-11.565 13.105 0 3.5869 3.3099 10.394 5.743 11.811 2.5869 1.5065 8.5043 1.2995 10.904-0.38135zm-9.8972-1.6147c-4.0691-2.37-6.0226-10.58-3.625-15.236 3.8069-7.3917 9.8237-8.9108 14.286-3.6072 4.6034 5.4709 4.6491 12.408 0.11388 17.301-2.5865 2.7909-7.4386 3.4851-10.775 1.5417zm9.3269-2.843c2.3933-2.3933 2.9231-3.7665 2.9231-7.5769 0-8.4074-7.5865-12.929-12.529-7.468-4.1202 4.5528-3.3809 13.867 1.3025 16.408 3.8897 2.1108 5.0137 1.9263 8.3034-1.3634zm235.62 0.9247c13.089-0.05411 26.436-0.36534 29.659-0.69163 5.5269-0.55952 5.9423-0.78982 7.3044-4.0497 1.1174-2.6744 3.5201-20.002 2.9056-20.955-0.11743-0.18205-12.469-1.7232-22.57-2.8163-15.978-1.7289-23.274-2.4865-29-3.011-3.575-0.32751-7.9625-0.79169-9.75-1.0315-3.9042-0.52382-3.9556-0.31133-0.75952 3.1373 2.7614 2.9796 4.4954 8.1194 4.5039 13.35 0.00693 4.2652-3.3729 11.432-6.5817 13.956-2.6777 2.1062-3.2065 3.6286-0.96118 2.767 0.79832-0.30634 12.161-0.60126 25.25-0.65536zm-18.702-3.9952c1.746-1.1358 20.001-1.3699 19.998-0.25644-0.00132 0.4125-4.8388 0.85851-10.75 0.99113-7.2668 0.16304-10.262-0.07491-9.2476-0.73469zm20.5-10.006c-1.5096-0.64868-0.84968-0.87666 2.691-0.92971 2.58-0.03866 4.9691 0.37971 5.309 0.92971 0.75476 1.2212-5.1581 1.2212-8 0zm11.612-1.1092c-5.1636-0.45879-9.6636-1.1152-10-1.4587-0.96475-0.98504 24.277 0.68866 25.338 1.6801 1.0913 1.0198-1.8456 0.97744-15.338-0.22139zm12.388-1.8981c-2.2-0.42751-4.3375-0.5742-4.75-0.32598s-0.75-0.06944-0.75-0.7059c0-1.353 11.879-0.34584 13.45 1.1404 1.1207 1.0602-2.1665 1.0153-7.95-0.10853zm-19.5-1.541c-4.675-0.72458-11.088-1.6367-14.25-2.027s-5.75-1.1544-5.75-1.698c0-0.59822 1.4803-0.71582 3.75-0.29791 9.2782 1.7084 21.991 3.5577 24.5 3.5641 1.5125 0.00389 2.75 0.45707 2.75 1.0071 0 1.1651 0.08037 1.1691-11-0.54829zm33.568 18.124c2.4146-2.4146 3.6504-6.7219 4.4687-15.575 0.43809-4.7402 1.5809-10.048 2.5837-12 1.9256-3.7481 2.2411-15.498 0.53965-20.098-0.51261-1.3857-0.47727-3.7894 0.08567-5.8283 2.3001-8.3302-1.9912-27.059-7.4636-32.574-1.8988-1.9137-1.8934-1.8175 0.12638 2.2287 3.7111 7.4344 4.9848 15.726 4.9904 32.489 0.00366 10.907-0.45071 17.335-1.4844 21-0.81933 2.9053-1.895 8.6573-2.3904 12.782s-1.5985 9.75-2.4513 12.5c-2.1696 6.9959-1.9656 8.0362 0.99527 5.0753zm73.381-5.5753c2.6036 0 3.051-0.3739 3.051-2.5497 0-2.0889-2.4565-8.4313-3.2757-8.4575-0.12338-0.00394-6.8162-0.8913-14.873-1.9719s-22.638-2.9053-32.403-4.0549c-19.44-2.2886-19.404-2.2951-19.434 3.5589l-0.01531 3.0249 12.25 1.8577c13.466 2.0421 20.035 3.95 10.25 2.9771-3.3-0.32811-9.375-1.2238-13.5-1.9904s-7.8002-1.3939-8.1671-1.394-1.1571 2.2844-1.7559 5.0766-1.552 5.9422-2.118 7c-0.99866 1.866-0.46837 1.9232 17.832 1.9232 18.825 0 18.865-0.00472 21.21-2.5 1.8801-2.0013 3.3177-2.5 7.2064-2.5 5.7746 0 11.186 2.0542 12.98 4.9275 1.2703 2.034 1.3595 2.0058 4.5036-1.4262 2.3231-2.5358 4.049-3.5013 6.2586-3.5013zm-46.449-1.4684c-0.55-0.17076-3.6224-0.85032-6.8276-1.5101s-5.6068-1.4205-5.3368-1.6904c0.76509-0.7651 15.664 1.9589 15.664 2.8639 0 0.79383-1.5479 0.9427-3.5 0.33663zm10.337-0.68195c-1.7809-0.49561-1.3852-0.67039 1.6632-0.73469 2.2-0.0464 4.675 0.34645 5.5 0.87301 1.11 0.70848 0.67764 0.89948-1.6632 0.73469-1.7397-0.12248-4.2147-0.51533-5.5-0.87301zm25.913-1.5659c-1.5125-0.22913-2.75-0.77861-2.75-1.2211 0-0.80438 8.8923 0.49627 9.8345 1.4385 0.54292 0.54291-2.7281 0.44253-7.0845-0.2174zm-131.28 8.295c10.321-4.3126 11.974-22.996 2.5925-29.318-3.6604-2.4667-10.854-3.049-15.56-1.2596-2.132 0.81058-2.5009 1.4282-1.941 3.25 0.38017 1.2371 1.5651 3.082 2.6332 4.0998s1.6918 2.1008 1.3859 2.4067c-0.61379 0.61378-5.0614-3.8722-5.8966-5.9473-0.71453-1.7755-2.3392 0.52189-3.6703 5.19-4.2491 14.902 7.2944 27.078 20.457 21.579zm-6.5117-3.6644c-0.61391-1.1471-0.85474-2.3471-0.53518-2.6667s0.58102-0.04745 0.58102 0.6047c0 0.78322 0.89926 0.96001 2.6492 0.52082 1.8644-0.46793 2.4394-0.32546 1.941 0.48095-1.1159 1.8055 0.89414 1.3394 3.6827-0.85416 3.0342-2.3867 4.4891-2.623 2.6724-0.43406-1.6035 1.9321-6.3209 4.4341-8.3604 4.4341-0.83296 0-2.0168-0.93854-2.6307-2.0856zm-11.428-2.8647c-1.6918-3.2716-2.0118-10.732-0.55882-13.03 0.60878-0.96275 0.72731 0.54374 0.33889 4.3072-0.51039 4.9452-0.28061 6.2162 1.5784 8.7306 1.1966 1.6186 1.7238 2.9428 1.1715 2.9428s-1.6908-1.3276-2.5299-2.9503zm23.474-11.338c0-0.70871-0.8932-3.0405-1.9849-5.1818-2.4921-4.8881-1.8196-5.898 0.92725-1.3924 1.8537 3.0406 2.809 7.8628 1.5576 7.8628-0.275 0-0.5-0.57985-0.5-1.2886zm-2.921-1.1281c-0.04342-1.0542 0.19293-1.6448 0.52522-1.3125s0.36781 1.1948 0.07894 1.9167c-0.31922 0.79773-0.55618 0.56078-0.60416-0.60417zm-98.329 18.195c0.92833-0.75985 1.25-6.4646 1.25-22.169 0-20.408-0.0804-21.267-2.3063-24.628-2.254-3.4032-2.2856-3.7938-1.3958-17.239 0.50076-7.5665 0.6527-14.429 0.33766-15.25-1.1884-3.0968-2.5189-1.3157-2.4333 3.2573 0.10053 5.3694-1.1019 20.885-1.8148 23.416-0.61801 2.1946-5.5256 3.8336-11.479 3.8336h-4.7933l-0.3075 4.1482c-0.21531 2.9044-0.90714 4.4785-2.3075 5.25-1.1 0.60602-2.3082 1.5309-2.6848 2.0553s-0.72329 9.4336-0.77036 19.798l-0.08559 18.845 13.77-0.1476c7.6706-0.08222 14.324-0.60082 15.02-1.1708zm-7.25-31.778c-0.33992-0.55-2.204-1-4.1424-1-5.4385 0-3.6201-2.4406 2.0935-2.8098 6.1297-0.39607 7.5302 0.16548 6.8546 2.7486-0.55672 2.1289-3.7149 2.8262-4.8058 1.0612zm3-2c-0.33992-0.55-0.81648-1-1.059-1s-0.44098 0.45-0.44098 1 0.47656 1 1.059 1 0.7809-0.45 0.44098-1zm274.46 33.066c1.5225-2.8448 1.261-6.6334-0.56221-8.1466-0.87857-0.72914-6.9697-2.0509-13.536-2.9372-10.802-1.458-11.879-1.4625-11.318-0.04673 0.34153 0.8606 0.86721 3.1397 1.1682 5.0647s1.4661 4.5125 2.5892 5.75c1.8381 2.0254 2.9696 2.25 11.333 2.25 8.1618 0 9.4163-0.23499 10.326-1.9343zm-11.465-3.0657c-1.65-0.41985-4.6875-0.81661-6.75-0.88169s-3.75-0.61839-3.75-1.2296c0-0.70699 1.1824-0.89865 3.25-0.52681 1.7875 0.32147 5.1725 0.88066 7.5222 1.2426s4.5138 1.0491 4.809 1.5268c0.61483 0.99482-0.79903 0.95827-5.0812-0.13135zm-289.39-39.295c-1.0439-1.0439-1.2698 41.127-0.22927 42.795 0.34311 0.55 0.74552-8.6433 0.89425-20.43 0.15601-12.364-0.12532-21.825-0.66498-22.365zm275.89 38.762c0-0.84266-0.72584-3.2052-1.613-5.25s-1.735-6.5056-1.8841-9.9128c-0.16218-3.7054-1.1021-7.925-2.3389-10.5-1.5118-3.1477-1.9148-5.4181-1.499-8.4451 0.58653-4.2693-2.0095-14.36-3.6944-14.36-0.47773 0-0.16689 1.6794 0.69077 3.7321 1.1 2.6327 1.3761 5.2918 0.9371 9.0267-0.46788 3.9809-0.20076 6.0943 1.0766 8.5179 0.98235 1.8638 1.7973 5.9648 1.9322 9.7233 0.12835 3.575 1.0114 8.75 1.9623 11.5s1.8726 5.5625 2.0482 6.25c0.45466 1.7801 2.382 1.5518 2.382-0.28212zm-432-9.9679v-4.5h-4c-2.2 0-4 0.14914-4 0.33143 0 0.35379 7.3289 8.4876 7.75 8.6012 0.1375 0.03707 0.25-1.9576 0.25-4.4326zm230.23-4.5c4.3251 0 4.2406 0.13506 2.274-3.6357-0.82161-1.5754-1.4966-4.5518-1.5-6.6143l-0.00616-3.75h-4.4182c-2.43 0-5.13-0.27314-6-0.60699-1.3783-0.52891-1.5818 0.69777-1.5818 9.536v10.143l3.7321-2.536c2.363-1.6057 5.1144-2.536 7.5-2.536zm-6.7321-7c0.45047-1.4193 0.1797-2-0.93261-2-0.86207 0-1.5674-0.50248-1.5674-1.1166 0-0.66998 0.9-0.87544 2.25-0.51366 1.2375 0.33164 3.15 0.65398 4.25 0.71632 1.6663 0.09442 1.5829 0.24692-0.5 0.91397l-2.5 0.80064 2.75 0.09968c1.5125 0.05482 2.75 0.48728 2.75 0.96101s-1.1919 0.63348-2.6486 0.35501c-1.8283-0.3495-2.4294-0.15168-1.941 0.63867 0.42071 0.68072 0.04816 1.145-0.91876 1.145-1.1713 0-1.4488-0.55961-0.99163-2zm35.87 9.75c1.0152-3.788 0.73494-3.9878-2.2111-1.5761-2.3573 1.9298-2.5703 2.4418-1.25 3.0058 2.5228 1.0776 2.8223 0.95388 3.4611-1.4297zm182.99 0.74408c4.6511-4.6511 1.1838-10.321-7.9321-12.971-6.7332-1.9574-6.4427-2.0506-5.3612 1.7204 0.5116 1.7839 0.93019 4.9253 0.93019 6.981 0 3.9165 0.15796 4.0318 7 5.1095 1.375 0.21658 2.8054 0.45506 3.1786 0.52996s1.3562-0.54148 2.1845-1.3697zm-187.64-2.2344c3.6506-2.3829 8.2819-10.229 8.2819-14.03 0-6.8713-6.3344-15.23-11.542-15.23-3.986 0-11.846 3.0473-13.775 5.3403-2.6218 3.1174-5.6362 9.7771-5.6617 12.509-0.03296 3.5251 2.8123 8.8125 5.7933 10.766 5.0333 3.2979 12.408 3.5793 16.903 0.64505zm-0.1781-9.7596c0.38908-1.1 1.0178-3.35 1.3971-5l0.68966-3 0.55731 2.7989c0.38817 1.9495-0.03583 3.4669-1.3971 5-1.8036 2.0312-1.8998 2.0468-1.247 0.20108zm2.9816-0.25c1.59-3.7828 1.492-5.9076-0.45003-9.75l-2.0216-4 2.475 2.8058c3.2018 3.6296 3.3882 12.694 0.26106 12.694-0.56593 0-0.68071-0.75961-0.26441-1.75zm166.81 7.6046c0.30856-1.18-0.20145-4.3964-1.1334-7.1477l-1.6944-5.0024-30.762-8.5065c-16.919-4.6786-30.959-8.3101-31.199-8.07s0.04457 2.3317 0.63252 4.648c0.94759 3.7332 1.5096 4.3302 4.9489 5.2563 5.0727 1.3659 4.9937 2.3316-0.12006 1.4677l-4-0.6758-0.01365 3.8379c-0.00751 2.1108-0.27365 4.807-0.59143 5.9915-0.7136 2.6599-0.31808 2.791 14.605 4.8401 6.325 0.8685 12.625 1.8014 14 2.073 1.8743 0.37033 2.1297 0.24837 1.0205-0.4873-0.81375-0.53969-3.2888-1.259-5.5-1.5984-8.469-1.3001-19.52-3.8511-19.52-4.5059 0-0.8804 28.728 4.6892 36.171 7.0127 3.7062 1.1569 6.0108 1.4305 6.6517 0.78953s1.9675-0.46253 3.829 0.51492c1.5666 0.82258 4.9333 1.5433 7.4817 1.6017 3.9434 0.09028 4.7169-0.21341 5.1944-2.0393zm-50.32-17.476c-6.3207-1.9414-11.683-3.7208-11.917-3.9542-1.1202-1.1202 3.5554-0.1497 12.409 2.5756 5.3603 1.65 10.478 3.0069 11.373 3.0153s2.302 0.45153 3.127 0.98469c3.1843 2.0578-3.646 0.86358-14.992-2.6214zm-21.274 8.8717c0.36927-0.96233 0.69265-3.7615 0.71861-6.2204l0.0472-4.4707-6.6751-1.538c-3.6713-0.84593-7.0088-1.8718-7.4167-2.2796-1.1352-1.1352 1.5278-0.86918 7.5918 0.75844 7.2214 1.9383 7.0021 1.9932 6.9864-1.75-0.01966-4.6794-1.021-7.75-2.5272-7.75-0.71918 0-12.869-3.1724-27-7.0499s-25.898-6.8442-26.15-6.5929 0.29665 1.9142 1.2177 3.6954c2.7569 5.3313 0.18853 21.289-4.2085 26.148-0.89576 0.98981-1.2948 1.7996-0.88683 1.7996 1.5879 0 25.699 3.1466 37.568 4.9028 16.784 2.4834 19.895 2.5355 20.734 0.3475zm-44.919-6.6188c-3.6769-0.62232-7.0519-1.5323-7.5-2.0222-0.46796-0.5116 0.24931-0.64955 1.6853-0.32412 1.375 0.31161 5.0934 0.87751 8.2632 1.2576s6.0088 1.0884 6.309 1.5741c0.64162 1.0382 0.05063 1.0054-8.7575-0.48538zm20.817-10.207c-5.38-1.4669-6.9877-2.4274-4.0486-2.4189 3.1812 0.00925 9.4167 2.0232 9.4167 3.0414 0 0.52415-0.1125 0.89715-0.25 0.82889s-2.4406-0.72141-5.1181-1.4514zm7.3681-1.6536c-9.8715-3.1382-10.638-3.4665-9.8728-4.2314 0.60891-0.60891 19.1 5.3327 20.323 6.5301 1.3777 1.3493 0.23416 1.0977-10.45-2.2988zm-21-6.2009c-3.025-1.3155-6.4-2.7265-7.5-3.1356-1.5568-0.57895-1.6589-0.82753-0.46059-1.1218 1.4932-0.36666 14.961 5.2123 14.961 6.1975 0 0.88054-1.4172 0.48775-7-1.9401zm-40.539 20.419c1.7628-0.00959 1.6172-0.34329-1.0764-2.4668-1.7132-1.3506-3.6803-3.8206-4.3713-5.4889s-1.8206-3.0332-2.5101-3.0332-2.7102-0.2913-4.4904-0.64734l-3.2367-0.64734 2.5386 3.8973c1.3962 2.1435 2.6586 5.4723 2.8054 7.3973 0.37726 4.9493 0.45707 4.9997 4.5851 2.8952 2.0445-1.0423 4.6346-1.9001 5.7558-1.9062zm177.04 2.8279c2.0998-0.95674 2.5394-1.7701 2.2971-4.25-0.28013-2.8666-1.1813-3.5038-13.8-9.7581-7.425-3.6802-13.869-6.7177-14.32-6.75s-0.67575 0.91081-0.5 2.0958c0.24751 1.6689 2.7993 3.2909 11.32 7.1952 12.404 5.6841 12.012 5.4711 11.327 6.1567-0.2786 0.27861-4.8462-1.5214-10.15-4s-9.9886-4.5033-10.41-4.4994-0.86681 2.1414-0.98961 4.75l-0.22327 4.7428 8.7233 2.6275c10.047 3.0263 13.112 3.3359 16.726 1.6894zm-158.71-6.2966c3.4155-2.874 4.7356-5.8268 6.1106-13.669 1.2908-7.3618 0.02721-11.826-4.4633-15.769-2.7791-2.4401-4.4236-3.0823-7.8928-3.0823-5.0202 0-12.198 2.7902-14.872 5.7811s-3.7393 12.622-2.0358 18.37c2.1423 7.2283 3.8392 8.6118 11.86 9.6701 3.85 0.50799 7.303 0.98114 7.6733 1.0514s1.9994-0.98808 3.6203-2.3519zm-6.7936-2.5465c0-0.46145 0.80264-1.0937 1.7836-1.4051 2.0071-0.63703 5.2164-5.5422 5.2164-7.973 0-0.87764 0.49878-1.5957 1.1084-1.5957 1.5132 0 0.26614 4.6652-2.1565 8.0676-1.8559 2.6064-5.9519 4.6064-5.9519 2.9062zm-12.774-1.2238c-1.6727-2.0529-3.2101-8.9433-2.6082-11.689 1.1452-5.2237 2.5602-9.0609 3.3415-9.0609 0.44254 0 0.20239 1.6875-0.53366 3.75-1.8899 5.2959-1.7318 10.227 0.46615 14.539 1.8251 3.5798 1.4314 5.0353-0.66579 2.4614zm0.76027-5.285c-0.60674-1.5958-0.74427-4.1431-0.31795-5.8887 0.6878-2.8162 0.80459-2.6112 1.3813 2.4237 0.73342 6.4031 0.42984 7.3924-1.0634 3.465zm13.013-14.465c-1.375-1.0755-1.9874-1.9655-1.3608-1.9778s2.2016 0.86279 3.5 1.9445c3.0721 2.5594 1.1288 2.5896-2.1392 0.03327zm-55.164 22.273c3.8122-2.8462 4.975-5.136 3.1773-6.2568-1.2613-0.78634-1.1477-1.2425 0.75-3.0105 1.7056-1.589 2.2357-3.2022 2.2329-6.7948-0.00528-6.6607-4.4108-13.585-6.4963-10.211-0.33992 0.55-1.2552 1-2.034 1-1.0182 0-1.2583-0.78822-0.85478-2.806 0.76519-3.8259-1.4946-5.47-7.3566-5.3524-6.2948 0.12635-7.1037 1.4222-6.5016 10.416 0.64441 9.6269 3.1872 14.118 7.6362 13.488 1.711-0.24243 4.0109-0.81861 5.1109-1.2804 1.7815-0.7479 1.8501-0.65531 0.62756 0.84762-0.85974 1.0569-2.821 1.6872-5.25 1.6872h-3.8776v4.3c0 2.365 0.5625 4.8769 1.25 5.5819 1.6804 1.7233 8.3666 0.79486 11.586-1.6088zm-0.87127-11.207c0.56935-1.0638 1.0707-3.4263 1.1141-5.25 0.07791-3.2724 0.09142-3.2818 1.0328-0.71722 1.0487 2.8568-0.30626 7.9015-2.1222 7.9015-0.73805 0-0.74557-0.58741-0.02475-1.9343zm-9.9648-15.534c0-0.8946 0.58629-1.2436 1.5-0.89302 0.825 0.31659 1.5 0.97746 1.5 1.4686s-0.675 0.89301-1.5 0.89301-1.5-0.66088-1.5-1.4686zm0.09858-2.4825c-4.9024-1.9422-4.094-3.6458 1.2539-2.6426 2.2722 0.42627 3.267 1.1929 3.373 2.5991 0.08263 1.097 0.06571 1.9479-0.03761 1.8908s-2.1685-0.88836-4.5893-1.8474zm199.7 24.834c0.28449-4.3761 0.13887-4.6634-3-5.9172-1.8145-0.72481-6.0897-2.5734-9.5005-4.1079s-7.8674-3.4862-9.9035-4.3369-3.4728-1.7762-3.1925-2.0564 3.6119 0.88888 7.4035 2.5982c6.1732 2.7829 16.452 6.9359 17.17 6.9372 0.15162 2.7e-4 -0.40985-1.3252-1.2477-2.9454-1.5751-3.0459-5.6441-5.2442-32.528-17.573-6.325-2.9006-15.949-7.3592-21.386-9.9079s-10.076-4.444-10.309-4.2116 0.39142 2.11 1.3862 4.1726c2.1278 4.4116 6.9496 7.2328 23.045 13.484 5.9198 2.299 11.191 4.5854 11.713 5.081 1.5598 1.4794-0.16977 1.0443-6.5885-1.6573-3.343-1.4071-6.2644-2.3721-6.4919-2.1446s3.0385 1.9188 7.2578 3.7585 7.2436 3.4874 6.7208 3.6617-6.5526-2.1575-13.399-5.1818-11.549-5.5279-10.449-5.5636c1.3145-0.0427 0.33852-0.92943-2.8478-2.5873-2.6663-1.3873-5.06-2.3101-5.3194-2.0507s0.06387 3.1936 0.7184 6.5205 0.98799 7.4256 0.74103 9.1082l-0.449 3.0593 12.578 3.9237c11.416 3.5612 37.642 11.176 42.578 12.362 4.1809 1.0051 4.9899 0.32948 5.299-4.4254zm-26.549-9.628c-4.6232-2.3009-4.0359-3.4362 0.73983-1.4304 2.1944 0.92166 3.9944 2.0132 4 2.4257 0.01449 1.0683-1.0369 0.8475-4.7398-0.99538zm5.8123-1.127c-3.5407-1.4434-5.7692-2.753-4.9522-2.9104 1.5272-0.29412 12.89 4.3516 12.89 5.2701 0 0.77305-0.93303 0.49568-7.9377-2.3597zm-30.3-2.0359c-5.2834-1.934-7.6624-3.7079-3.7036-2.7614 3.385 0.80925 9.9416 3.5681 9.9416 4.1831 0 0.72208-1.0113 0.49159-6.238-1.4217zm-207.61 7.3793c-0.19236-3.284-0.5089-6.1376-0.70343-6.3411s-1.5459-0.07086-3.0031 0.29487c-2.4199 0.60737-2.5918 0.97199-1.9846 4.2092 1.0117 5.393 2.7105 8.4818 4.4691 8.1261 1.2668-0.25629 1.5039-1.4762 1.222-6.289zm223.77 3.1352c-0.88245-0.834-25.131-7.7251-25.585-7.2709-0.26381 0.26381 2.1412 1.2281 5.3445 2.1428s8.5242 2.5061 11.824 3.5364c5.672 1.7707 9.3401 2.4644 8.4167 1.5917zm-141.93-2.7215c3.3166-0.99368 5.923-1.0087 12.406-0.07132 4.514 0.65265 8.7464 1.1866 9.4054 1.1866 0.78335 0 1.1981-1.8752 1.1981-5.4171v-5.4171l-5.25-1.126c-9.446-2.026-22.934-4.1889-23.375-3.7483-0.23717 0.23718 0.03136 1.6479 0.59675 3.135 1.4364 3.7781 1.2716 7.5828-0.47344 10.929-1.2295 2.3575-1.2466 2.7621-0.09793 2.3213 0.76515-0.29362 3.2806-1.0999 5.5899-1.7918zm-192.92-1.4291c0.51045-0.31547 0.9281-1.1523 0.9281-1.8596 0-2.382-3.6684-4.6318-10.605-6.5036-7.7784-2.0991-14.917-1.9485-23.379 0.49326-6.5088 1.8781-17.017 7.2573-17.017 8.7112 0 1.0724 48.288 0.2611 50.072-0.84125zm87.453-5.4068c-2.3563-4.5566-7.0246-7.0405-13.24-7.045-4.4103-0.00316-5.7608 0.47528-8.75 3.0998-1.9441 1.707-3.5348 3.5912-3.5348 4.1871s1.2375-0.07071 2.75-1.4814c7.4277-6.9278 15.24-6.1528 21.355 2.1186 2.8012 3.7888 3.5838 3.3044 1.4204-0.87921zm-2.5252 2.0103c0-1.8659-2.226-2.2616-3.8102-0.67734-1.4911 1.4911-1.4049 1.6183 1.096 1.6183 1.4929 0 2.7143-0.42344 2.7143-0.94098zm10.939-21.559c0.04264-5.6643-0.98418-6.6988-7.5937-7.6507-9.3773-1.3505-45.212 0.93869-49.349 3.1524-1.1059 0.59189-2.0759 2.6397-2.4796 5.2352-0.36473 2.3447-0.92114 5.163-1.2365 6.263-0.41668 1.4536 0.13809 1.1547 2.0305-1.0938l2.6038-3.0938 19.793 0.44139c21.497 0.47939 22.293 0.70252 22.293 6.2492 0 1.7492 0.99219 3.3544 2.9835 4.8266 1.6409 1.2132 3.7457 3.6603 4.6774 5.4381l1.6939 3.2323 2.2772-9.5c1.2524-5.225 2.2907-11.3 2.3073-13.5zm30.489 20.929c0.86429-0.86428 1.6389-3.3393 1.7214-5.5s0.195-5.1661 0.25-6.6786c0.07894-2.1709-0.40105-2.8209-2.2793-3.0865-3.5574-0.50311-10.598 2.5442-14.06 6.086-3.3185 3.3942-3.8047 5.202-1.7349 6.4508 0.72898 0.43983 1.6148 1.5872 1.9686 2.5497 0.87594 2.3832 11.792 2.5212 14.135 0.17857zm-56.429-0.30613c0-1.8351-2.5975-3.1249-3.8238-1.8986-1.8409 1.8409-1.3948 2.7762 1.3238 2.7762 1.375 0 2.5-0.3949 2.5-0.87756zm9.4102-4.2678c-0.65992-1.0678-7.4102-1.1381-7.4102-0.07715 0 0.42762 0.72353 1.8105 1.6078 3.073l1.6078 2.2955 2.3613-2.2184c1.2987-1.2201 2.1236-2.603 1.8331-3.073zm-22.41-3.3546c0-4.125-0.3375-7.5227-0.75-7.5504l-6.7322-0.55014c-8.6576-0.72324-10.135-0.08927-13.01 5.5843-3.7385 7.3775-3.5476 7.7596 4.2418 8.4902 3.7125 0.3482 7.65 0.77273 8.75 0.94341s3.2375 0.37161 4.75 0.44651l2.75 0.13618v-7.5zm245.5 6.5c-0.33992-0.55-1.1617-1-1.8262-1s-9.5254-2.4867-19.691-5.5261-22.983-6.6778-28.483-8.0854-10.675-3.1427-11.5-3.8556-2.625-1.6104-4-1.9944c-6.3184-1.7644-15.886-5.9143-15.41-6.6842 0.29037-0.46982-0.17362-0.85421-1.0311-0.85421s-1.559-0.41859-1.559-0.93019c0-0.5736 1.2434-0.5736 3.2434 0 1.7839 0.5116 3.3413 0.93019 3.461 0.93019s1.0227 0.83298 2.0066 1.8511c1.7688 1.8302 7.323 4.1489 9.9382 4.1489 2.2722 0 1.4992-2.8395-0.86585-3.1804-1.484-0.21393-2.5046-1.3283-3.0879-3.3717-0.90072-3.1553-2.1034-3.8922-14.695-9.0045-10.613-4.3089-10.385-4.3774-6.9809 2.093 2.9801 5.6653 3.1826 7.7598 1.4468 14.964-1.2131 5.0347-4.3078 9.1965-8.2317 11.07l-3.7342 1.7831 7 1.8005c3.85 0.99028 7.225 1.7992 7.5 1.7976s1.3437-1.8314 2.3749-4.0662c1.4419-3.1248 2.9058-4.5052 6.3383-5.9765 8.2905-3.5537 10.57-3.4305 27.787 1.5025 24.656 7.0643 47.86 13.422 49.309 13.509 0.71996 0.04364 1.0309-0.37065 0.69098-0.92065zm-85.5-24c-1.2927-0.8354-1.2663-0.97149 0.19098-0.98469 0.93004-0.00842 1.9691 0.43469 2.309 0.98469 0.78218 1.2656-0.54163 1.2656-2.5 0zm-157.27 13.25c-0.21575-2.0625-0.39226-0.375-0.39226 3.75s0.17651 5.8125 0.39226 3.75 0.21574-5.4375 0-7.5zm46.415 8.5c0.19635-0.6875 0.10758-5.975-0.19726-11.75s-0.64504-8.925-0.756-7-0.49074 7.2125-0.84396 11.75c-0.42522 5.4623-0.29039 8.25 0.399 8.25 0.57268 0 1.2019-0.5625 1.3982-1.25zm196.85-5.5c-0.00872-6.5628-2.5559-15.812-6.0821-22.084-2.2129-3.9364-3.5894-4.8556-16.811-11.227-7.9204-3.8165-14.61-6.9391-14.865-6.9391s0.26506 1.1132 1.1566 2.4738 2.2953 5.0632 3.1197 8.228c1.3442 5.1605 1.3368 6.2417-0.07076 10.48-1.4605 4.3972-7.0842 10.819-9.4746 10.819-2.1296 0-0.78903 1.7906 1.7848 2.3839 1.5125 0.34866 10.85 3.0634 20.75 6.0327s18.562 5.4403 19.25 5.4911c0.86659 0.06402 1.2477-1.6714 1.2424-5.6577zm-8.7424-2.4705c-1.2375-0.59682-2.25-1.4567-2.25-1.9109 0-0.84442 4.7365 0.86022 6.45 2.3213 1.3689 1.1672-1.5126 0.88566-4.2-0.41043zm-17.129-4.3987c-2.9587-1.3504-5.1188-2.7159-4.8002-3.0345 0.7546-0.7546 11.68 3.7705 11.68 4.8377 0 1.1706-0.85516 0.94644-6.8794-1.8032zm0.97076-2.4454c-4.6248-2.1733-8.1835-4.1766-7.9082-4.4519 0.55623-0.55624 17.817 7.2018 17.817 8.0081 0 0.93818-1.4582 0.41482-9.9087-3.5562zm11.136-10.655c-5.1001-2.5122-9.0545-4.786-8.7876-5.0528 0.68476-0.68476 18.56 7.9242 18.56 8.9387 0 1.0334 1.1096 1.4746-9.7729-3.8858zm-213.68 18.881c4.3333 0.34464 4.5218 0.24912 4.2415-2.15-0.28528-2.4417-0.53355-2.5186-9.0433-2.7996l-8.75-0.28894v10.162l4.5085-2.6422c3.5099-2.057 5.5129-2.5623 9.0433-2.2815zm-94.006 1.7653c0.84732-1.371-3.388-5.9357-5.4701-5.8956-1.326 0.02559-1.2984 0.19191 0.17431 1.0497 0.9625 0.5606 1.75 2.1219 1.75 3.4696 0 2.5114 2.2939 3.4018 3.5458 1.3763zm138.55-7.9514c2.3099-0.622 5.0612-0.90567 6.1139-0.63037 2.153 0.56303 2.5799-0.20752 3.14-5.6683 0.34307-3.3444 0.07436-3.9449-2.1425-4.7878-1.3941-0.53004-6.1733-0.83422-10.62-0.67594l-8.0855 0.28779-0.28537 10.285-0.28538 10.285 3.9826-3.9826c2.4219-2.4219 5.6285-4.4258 8.1825-5.1135zm86.584 3.2541c3.9202-2.7914 6.768-10.573 6.0855-16.628-0.87491-7.7622-8.533-16.587-14.403-16.597-1.6662-0.00291-2.2884 0.79424-2.8163 3.6083l-0.67762 3.612-2.2481-2.112c-1.2365-1.1616-3.1709-2.112-4.2988-2.112-2.3362 0-7.3204 3.5821-7.3204 5.2611 0 0.61379 0.94525 0.10138 2.1006-1.1387s2.3178-2.0374 2.5833-1.7719-0.45471 1.4203-1.6006 2.5661-2.0833 2.5333-2.0833 3.0833-0.675 1-1.5 1-1.5061 0.7875-1.5136 1.75-0.26072 2.875-0.56268 4.25l-0.54901 2.5 1.3662-2.2843c1.2646-2.1145 1.3622-1.8789 1.3127 3.1674-0.04296 4.3733 0.40601 5.9413 2.2696 7.9266 1.5501 1.6513 1.9151 2.6109 1.097 2.8836-0.67437 0.22479 0.30523 1.187 2.1769 2.1383 5.0012 2.5418 16.315 1.9356 20.582-1.1028zm-12.256 0.89627c0.29742-0.48125 1.654-0.875 3.0146-0.875s4.0688-0.94107 6.0182-2.0913 3.5444-1.6656 3.5444-1.1453c0 1.4133-7.5378 4.9866-10.519 4.9866-1.4294 0-2.3555-0.39375-2.0581-0.875zm8.5772-14.902c0-0.97763-0.70052-2.7776-1.5567-4s-1.1078-2.2225-0.55902-2.2225c1.2563 0 2.0469 1.2732 3.1251 5.0326 0.50852 1.7731 0.47667 2.9674-0.07915 2.9674-0.5116 0-0.93019-0.79987-0.93019-1.7775zm-3.3616-1.7225c-0.31658-0.825-0.13972-1.5 0.39301-1.5s0.96862 0.675 0.96862 1.5-0.17686 1.5-0.39301 1.5-0.65203-0.675-0.96862-1.5zm5.9899-10.131c-1.0294-1.4124-3.2794-3.1806-5-3.9294-2.4942-1.0855-2.6996-1.3694-1.0132-1.4006 2.4034-0.04447 6.8926 3.1725 8.4264 6.0384 1.4985 2.8-0.22483 2.2941-2.4132-0.70842zm-4.6283-0.36913c-1.8199-1.4236-2.0661-1.9616-0.90499-1.9778 0.87726-0.01223 2.4095 0.87776 3.405 1.9778 2.31 2.5525 0.76319 2.5525-2.5 0zm-23.025 18.435c-1.3335-3.5073-1.1528-9.1918 0.43338-13.634 1.2834-3.5945 1.2468-3.7248-1.2939-4.5968-1.4381-0.49361-3.9475-0.71326-5.5763-0.48812-2.8858 0.39887-2.9161 0.35911-1.1849-1.5539 2.2968-2.5379 1.2156-3.1165-6.1343-3.2827-6.6977-0.1514-8.2193 0.41159-8.2193 3.0412 0 1.3364-0.58888 1.6897-2.2779 1.3668-1.4817-0.28324-2.9672 0.33397-4.25 1.7658-1.9333 2.158-1.9347 2.2233-0.06774 3.3241 4.1423 2.4425 8.7962 7.109 11.228 11.258l2.5555 4.3606 5.2764-0.62013c3.1619-0.37162 6.0298-0.18252 7.1563 0.47186 2.8987 1.6838 3.4147 1.3744 2.3552-1.4123zm-10.363-12.904c-0.91219-1.3922-2.3231-2.5312-3.1355-2.5312s-1.477-0.40787-1.477-0.90638 0.92898-0.66345 2.0644-0.36653c2.0955 0.54799 5.6218 4.92 4.7065 5.8353-0.275 0.275-1.2463-0.63905-2.1585-2.0312zm-3.6124-0.03121c-0.69443-0.83674-0.80272-1.5-0.24489-1.5 0.55 0 1.5602 0.675 2.2449 1.5 0.69443 0.83674 0.80272 1.5 0.24489 1.5-0.55 0-1.5602-0.675-2.2449-1.5zm98.102 13.23c6.4755-4.3259 8.4126-11.928 5.3383-20.951-1.9519-5.7285-4.5353-8.1854-7.9254-7.5374-2.4146 0.46158-2.5208 0.30592-1.9322-2.8318 0.55952-2.9825 0.35329-3.388-2.0272-3.9854-5.9941-1.5044-16.21 2.1922-18.648 6.748-0.83102 1.5528-0.68334 2.4178 0.66763 3.9106 1.6555 1.8294 1.642 1.9168-0.29785 1.9168-3.261 0-4.6143 2.4918-3.8725 7.1307 0.99939 6.2499 2.2334 7.9982 5.1316 7.2708 2.2599-0.5672 2.4118-0.38785 1.8979 2.241-0.75958 3.8857 1.3823 6.4545 6.1473 7.3726 7.5504 1.4547 11.967 1.0891 15.52-1.285zm-0.10212-3.7652c0-0.56935 0.72885-2.1476 1.6197-3.5071 2.191-3.344 1.5165-13.545-1.0858-16.42-1.0141-1.1206-1.3759-2.0375-0.80391-2.0375 1.7708 0 4.2773 4.7742 4.9029 9.3386 0.44088 3.2166 0.05906 5.5693-1.4619 9.0076-1.9727 4.4595-3.1711 5.8271-3.1711 3.6186zm-1.4394-2.9648c0.81968-3.0853 2.4394-5.005 2.4394-2.8911 0 0.82988-0.6983 2.3824-1.5518 3.45-1.4913 1.8655-1.5259 1.8437-0.8876-0.55887zm-10.561-3.5807c0-0.38433 0.7875-1.3342 1.75-2.1108 1.5984-1.2897 1.5334-1.3597-0.75-0.80846-2.4328 0.58734-2.4466 0.56094-0.51154-0.98283 1.1936-0.95229 2.1272-1.1704 2.3354-0.54555 0.60571 1.8171 2.1761 0.0075 2.1761-2.5076 0-1.4836-0.97811-3.0588-2.5312-4.0764-1.3922-0.91218-2.3062-1.8835-2.0312-2.1585s1.639 0.24633 3.0312 1.1585c3.0719 2.0128 3.5063 7.465 0.78121 9.8053-2.4555 2.1088-4.25 3.0488-4.25 2.2264zm-5.6257-2.8863c-1.0531-2.7442 0.19556-3.7725 1.3921-1.1464 0.74727 1.6401 0.81461 2.6134 0.18081 2.6134-0.55547 0-1.2633-0.66016-1.5729-1.467z"/>
</svg>
