<?xml version="1.0" encoding="UTF-8"?>
<svg viewBox="0 0 744.09448819 1052.3622047" xmlns="http://www.w3.org/2000/svg" xmlns:xlink="http://www.w3.org/1999/xlink">
 <defs>
  <linearGradient id="b">
   <stop stop-color="#fff" offset="0"/>
   <stop stop-color="#fff" stop-opacity="0" offset="1"/>
  </linearGradient>
  <linearGradient id="c">
   <stop stop-color="#696969" offset="0"/>
   <stop stop-color="#696969" stop-opacity="0" offset="1"/>
  </linearGradient>
  <linearGradient id="e">
   <stop stop-color="#f5f5f5" offset="0"/>
   <stop stop-color="#f5f5f5" stop-opacity="0" offset="1"/>
  </linearGradient>
  <linearGradient id="d">
   <stop offset="0"/>
   <stop stop-color="#818181" offset="1"/>
  </linearGradient>
  <linearGradient id="r" x1="316.72" x2="316.19" y1="766.4" y2="769.93" gradientUnits="userSpaceOnUse">
   <stop stop-color="#3a3a3a" offset="0"/>
   <stop stop-color="#3a3a3a" stop-opacity="0" offset="1"/>
  </linearGradient>
  <linearGradient id="o" x1="302.45" x2="306.05" gradientUnits="userSpaceOnUse">
   <stop stop-color="#a9a9a9" offset="0"/>
   <stop stop-color="#a9a9a9" stop-opacity="0" offset="1"/>
  </linearGradient>
  <linearGradient id="h" x1="260.52" x2="260.78" y1="627.26" y2="633.04" gradientTransform="matrix(.5918 .010539 -.030089 .60608 93.258 437.87)" gradientUnits="userSpaceOnUse">
   <stop offset="0"/>
   <stop stop-opacity="0" offset="1"/>
  </linearGradient>
  <linearGradient id="q" x1="381.42" x2="384.15" y1="793.72" y2="782.4" gradientUnits="userSpaceOnUse" xlink:href="#b"/>
  <linearGradient id="p" x1="309.79" x2="304.11" y1="756.44" y2="758.22" gradientUnits="userSpaceOnUse" xlink:href="#b"/>
  <linearGradient id="n" x1="177.87" x2="178.54" y1="793.21" y2="790.12" gradientUnits="userSpaceOnUse" xlink:href="#d"/>
  <linearGradient id="m" x1="247.91" x2="249.52" y1="767.49" y2="734.68" gradientUnits="userSpaceOnUse" xlink:href="#c"/>
  <linearGradient id="l" x1="286.28" x2="287.07" y1="777.23" y2="770.82" gradientUnits="userSpaceOnUse" xlink:href="#e"/>
  <linearGradient id="k" x1="273.18" x2="273.98" y1="777.07" y2="770.65" gradientUnits="userSpaceOnUse" xlink:href="#e"/>
  <linearGradient id="j" x1="304.66" x2="304.77" y1="769.57" y2="734.52" gradientUnits="userSpaceOnUse" xlink:href="#c"/>
  <linearGradient id="i" x1="379.24" x2="381.2" y1="757.07" y2="769.96" gradientUnits="userSpaceOnUse" xlink:href="#c"/>
  <linearGradient id="g" x1="399.89" x2="397.1" y1="755.15" y2="756.98" gradientUnits="userSpaceOnUse" xlink:href="#d"/>
  <linearGradient id="a" x1="445.55" x2="463.25" y1="613.77" y2="616.79" gradientUnits="userSpaceOnUse" xlink:href="#d"/>
  <radialGradient id="f" cx="518.58" cy="589.48" r="36.556" gradientTransform="matrix(.30649 -.098935 .14355 .46804 138.77 584.39)" gradientUnits="userSpaceOnUse" xlink:href="#b"/>
 </defs>
 <path d="m401.67 760.63c-0.23639-1.6843-0.40288-3.3686-0.83835-5.0528-1.5719-1.5428-3.2504-1.9026-4.8222-2.633l5.6606 7.6859z" fill="url(#g)" fill-rule="evenodd"/>
 <path d="m250.92 820.96c0.46424 2.2947 1.6102 4.5894 4.4244 6.884 14.099 1.3959 26.128 0.20173 39.967 0.52954 1.1286-0.83213 0.78202-1.6643 1.0324-2.4964l-45.423-4.9172z" fill-rule="evenodd" stroke="#000"/>
 <path d="m308.02 786.43h35.555v39.908h-35.555z" fill="#262626" fill-rule="evenodd"/>
 <path d="m177.51 789.86h18.823v20.598h-18.823z" fill-rule="evenodd"/>
 <path transform="matrix(.6568 0 0 .60687 112.33 445.25)" d="m462.83 616.79a24.723 31.448 0 1 1 -49.446 0 24.723 31.448 0 1 1 49.446 0z" fill="url(#a)" stroke="#000" stroke-linecap="round" stroke-width=".47518"/>
 <path transform="matrix(.61079 0 0 .59316 123.18 454.14)" d="m471.36 615.89c0 17.659-9.8055 31.99-22.077 31.99s-22.384-14.332-22.384-31.99 10.728-31.665 22.999-31.665 21.462 14.007 21.462 31.665z" stroke="#000" stroke-linecap="round" stroke-width="1.4952"/>
 <path transform="matrix(.59155 0 0 .60687 141.66 443.94)" d="m444.97 618.6a13.555 19.158 0 1 1 -27.11 0 13.555 19.158 0 1 1 27.11 0z" fill="#c0c0c0" stroke="#000" stroke-linecap="round" stroke-width="1.5021"/>
 <path transform="matrix(.5015 0 0 .53396 181.45 489.18)" d="m444.97 618.6a13.555 19.158 0 1 1 -27.11 0 13.555 19.158 0 1 1 27.11 0z" fill="#c0c0c0" stroke="#000" stroke-linecap="round" stroke-width="1.7392"/>
 <path transform="matrix(.40104 -.30363 .11389 .44677 155.32 674.06)" d="m444.97 618.6a13.555 19.158 0 1 1 -27.11 0 13.555 19.158 0 1 1 27.11 0z" fill="none" stroke="#000" stroke-linecap="round" stroke-width=".86517"/>
 <path transform="matrix(.59155 0 0 .60687 281 456.26)" d="m201.43 598.47a1.5873 2.1429 0 1 1 -3.1746 0 1.5873 2.1429 0 1 1 3.1746 0z" fill-rule="evenodd"/>
 <path transform="matrix(.6568 0 0 .60687 42.813 447.23)" d="m462.83 616.79a24.723 31.448 0 1 1 -49.446 0 24.723 31.448 0 1 1 49.446 0z" fill="url(#a)" stroke="#000" stroke-linecap="round" stroke-width=".47518"/>
 <path transform="matrix(.61079 0 0 .59316 53.669 456.11)" d="m471.36 615.89c0 17.659-9.8055 31.99-22.077 31.99s-22.384-14.332-22.384-31.99 10.728-31.665 22.999-31.665 21.462 14.007 21.462 31.665z" stroke="#000" stroke-linecap="round" stroke-width="1.4952"/>
 <path transform="matrix(.59155 0 0 .60687 72.145 445.91)" d="m444.97 618.6a13.555 19.158 0 1 1 -27.11 0 13.555 19.158 0 1 1 27.11 0z" fill="#c0c0c0" stroke="#000" stroke-linecap="round" stroke-width="1.5021"/>
 <path transform="matrix(.5015 0 0 .53396 111.93 491.16)" d="m444.97 618.6a13.555 19.158 0 1 1 -27.11 0 13.555 19.158 0 1 1 27.11 0z" fill="#c0c0c0" stroke="#000" stroke-linecap="round" stroke-width="1.7392"/>
 <path transform="matrix(.40104 -.30363 .11389 .44677 85.806 676.03)" d="m444.97 618.6a13.555 19.158 0 1 1 -27.11 0 13.555 19.158 0 1 1 27.11 0z" fill="none" stroke="#000" stroke-linecap="round" stroke-width=".86517"/>
 <path transform="matrix(.59155 0 0 .60687 211.49 458.24)" d="m201.43 598.47a1.5873 2.1429 0 1 1 -3.1746 0 1.5873 2.1429 0 1 1 3.1746 0z" fill-rule="evenodd"/>
 <path d="m211.97 815.82s-1.6104 7.155-1.1678 7.1629 43.99-1.1826 43.99-1.1826l-42.823-5.9802z" fill="url(#h)" fill-rule="evenodd" stroke="#020202" stroke-width=".2"/>
 <path transform="matrix(.6568 0 0 .60687 -91.291 439.42)" d="m462.83 616.79a24.723 31.448 0 1 1 -49.446 0 24.723 31.448 0 1 1 49.446 0z" fill="url(#a)" stroke="#000" stroke-linecap="round" stroke-width=".47518"/>
 <path transform="matrix(.61079 0 0 .59316 -80.435 448.31)" d="m471.36 615.89c0 17.659-9.8055 31.99-22.077 31.99s-22.384-14.332-22.384-31.99 10.728-31.665 22.999-31.665 21.462 14.007 21.462 31.665z" stroke="#000" stroke-linecap="round" stroke-width="1.4952"/>
 <path transform="matrix(.59155 0 0 .60687 -61.959 438.11)" d="m444.97 618.6a13.555 19.158 0 1 1 -27.11 0 13.555 19.158 0 1 1 27.11 0z" fill="#c0c0c0" stroke="#000" stroke-linecap="round" stroke-width="1.5021"/>
 <path transform="matrix(.5015 0 0 .53396 -22.169 483.35)" d="m444.97 618.6a13.555 19.158 0 1 1 -27.11 0 13.555 19.158 0 1 1 27.11 0z" fill="#c0c0c0" stroke="#000" stroke-linecap="round" stroke-width="1.7392"/>
 <path transform="matrix(.40104 -.30363 .11389 .44677 -48.298 668.23)" d="m444.97 618.6a13.555 19.158 0 1 1 -27.11 0 13.555 19.158 0 1 1 27.11 0z" fill="none" stroke="#000" stroke-linecap="round" stroke-width=".86517"/>
 <path transform="matrix(.59155 0 0 .60687 77.384 450.44)" d="m201.43 598.47a1.5873 2.1429 0 1 1 -3.1746 0 1.5873 2.1429 0 1 1 3.1746 0z" fill-rule="evenodd"/>
 <path d="m310.56 826.53c-0.85544-24.116 1.3055-29.484 15.28-28.611 20.434 3.2113 13.571 25.615 19.484 31.73 14.272 1.6322 74.659-3.3131 74.659-3.3131s2.0995-0.58349 2.6596-1.1693c5.9736-9.9814 3.7125-32.97-3.2295-36.444-2.9527-8.9312-13.678-22.217-13.678-22.217s-35.874-50.963-51.482-55.933c-19.218-4.5802-64.02-2.9234-64.02-2.9234s-91.822 1.6646-113.98 4.2876c-6.2027 3.5975-8.3587 23.582-8.3587 23.582l-3.0395 30.598s1.2451 14.401 0.94986 23.582c-2.4037 7.2889-0.94381 15.948 0.75987 22.412 3.6034 1.5917 7.6844 1.494 13.977 2.4058 0.06436-24.986 10.753-19.417 14.302-19.506 4.2991 1.7869 4.7942 4.0799 9.1648 20.832 19.374 1.7548 96.201 11.614 106.55 10.69z" fill="#c0c0c0" fill-rule="evenodd" stroke="#000"/>
 <path d="m169.27 765.22c0.30584 0.03129 49.035 1.2809 60.89 1.5967 0.69196 0.01843 1.4537 1.6446-0.8876 1.7418-2.0449 0.08491-47.245-1.6939-60.89-1.5967 0 0-2.2123-1.3842 0.8876-1.7418z" fill="#eee" fill-rule="evenodd" opacity=".79808"/>
 <path d="m166.05 789.73s10.256-2.1419 15.071-0.29733c1.7514 0.67088 3.1058 4.6204 2.3911 6.3926-3.591 8.9045-3.1881 18.881-3.1881 18.881s-9.8756-0.24082-13.694-2.3787c-3.9187-14.547-0.57965-22.597-0.57965-22.597z" fill-rule="evenodd"/>
 <path d="m313.45 731.56c2.022-0.95952 60.961-1.2935 64.881 2.1639 3.7168 3.5616 29.225 32.89 25.746 34.965-7.6345 2.4847-59.796-0.25741-64.872-1.8151-4.0282-1.4938-26.241-33.192-25.754-35.314z" fill="url(#i)" stroke="#000" stroke-linecap="round" stroke-width=".9"/>
 <path d="m287.9 732.99c10.571-1.8387 15.992 0.27479 18.556 2.0599 19.624 23.674 19.981 34.825 19.617 35.578-1.1648 2.412-22.238 2.6687-34.567-2.5858-4.9342-2.5572-4.9263-34.252-3.606-35.052z" fill="url(#j)" stroke="#000" stroke-linecap="round" stroke-width=".9"/>
 <path d="m368.49 795.16c-6.0768 6.2615 4.7734 27.16 10.82 27.664 0 1.9409 16.982-3.0704 17.312-3.33 1.246-0.98065 0.86178-6.8031 0.41615-6.5745l-2.5801-0.76845-9.7793 0.27749 25.093-2.284-0.54098-2.5402-29.255-10.737 19.725-1.7077c-10.404 0-21.139-1.0226-31.211 0z" fill="url(#f)" fill-rule="evenodd" opacity=".92788"/>
 <path d="m381.46 796.86c1.2144-1.0814 31.141-1.7798 35.191-0.8496 1.2203 1.6006 1.7307 7.4248 1.6792 11.322-4.0065 0.53584-27.334 1.5447-34.479 1.7135-1.1684-3.981-3.8359-10.424-2.3911-12.186z" fill="#3a3a3a" stroke="#020202" stroke-linecap="round" stroke-width=".9"/>
 <path d="m234.35 764.52c5.4243 3.0272 33.728 2.7211 42.179 3.15 0.49325 0.02502 1.3042 2.1154-0.36474 2.2474-1.4576 0.11531-37.888-2.1038-41.949-2.8751 0 0-2.0747-2.0368 0.13505-2.5223z" fill="#eee" fill-rule="evenodd" opacity=".72596"/>
 <path d="m271.7 770.78c0.87536-0.88978 3.4176-0.75873 3.8546-0.16722 0.89202 0.98463 0.33597 9.0292-0.22653 11.207-1.0592 0.39382-2.0438 0.6272-3.1256-0.13465-0.73781-0.86183-1.2211-10.278-0.50244-10.905z" fill-rule="evenodd"/>
 <path d="m272.04495,770.9919c1.1939-.45329 2.27374-.39065 3.19804-.1844 .13947.48974.24782.92043.26805,1.43677-1.90789-.78343-1.45711,2.96679-1.64875,3.60892-.45163,1.51329-.77835,1.62413-.9708.25666-.0857-.60889.23204-4.22959-.97078-3.88017-.00352-.5227.02407-.95975.12424-1.23778z" fill="url(#k)" fill-rule="evenodd"/>
 <path d="m284.80106,770.95068c.87536-.88978 3.4176-.75874 3.85456-.16723 .89202.98464.33597,9.02918-.22652,11.2067-1.05926.39382-2.04376.6272-3.1256-.13466-.73781-.86182-1.22108-10.27773-.50244-10.90481z" fill-rule="evenodd"/>
 <path d="m285.1411,771.15983c1.1939-.45328 2.27374-.39064 3.19804-.18439 .13947.48974.24782.92043.26805,1.43677-1.90789-.78343-1.45711,2.96679-1.64875,3.60892-.45163,1.51329-.77835,1.62413-.9708.25666-.0857-.6089.23204-4.22959-.97078-3.88017-.00352-.5227.02407-.95975.12424-1.23779z" fill="url(#l)" fill-rule="evenodd"/>
 <path d="m384.27 810.34c13.418-0.62924 31.305-1.7553 31.893-1.583 0.58067 0.17011 0.65626 2.1936 0.44557 2.4529-0.19725 0.24275-19.972 1.394-31.725 1.6636-0.52574-0.66473-0.61336-1.689-0.61336-2.5336z" fill-rule="evenodd"/>
 <path d="m388.35 825.28s26.14 0.55913 25.9-4.1168c-5.4828 0.68584-25.388 1.7985-26.739 1.7286 0.09605 1.559 0.83864 2.3881 0.83864 2.3881z" fill-rule="evenodd" stroke="#000" stroke-width=".4"/>
 <path d="m208.77 790.34 13.853 0.72768-0.05193 8.527-13.655-1.1182-0.14583-8.1365z" fill-rule="evenodd"/>
 <path d="m209.79 752.17h14.436l-0.03959 8.7679-14.543-0.41581 0.14583-8.3521z" fill-rule="evenodd"/>
 <path d="m206.66 801.94 93.918 7.466c0.1773 3.0832-0.35935 7.7778-1.2843 9.235-30.271-2.8336-60.086-5.6671-90.357-8.5006-0.60714-2.7335-2.2389-5.467-2.2768-8.2004z" stroke="#000" stroke-linecap="round" stroke-width=".9"/>
 <path d="m280.37 820.39-49.579-4.7871 0.29165-3.1415 0.43746-8.527 0.14582-20.196-0.14582-16.306c0.67412-11.814-0.28588-23.629 2.0642-35.443l48.244-0.16091-2.479 36.651-0.87492 38.746 0.802 9.275 1.0937 3.8895z" fill="none" stroke="#000" stroke-width=".3"/>
 <path d="m236.57 731.75c1.5088-0.06026 42.442-0.15784 42.892-0.15944 0.63536 1.0551-2.3904 19.842-2.8005 35.625-1.6959 0.02737-35.542-0.01341-41.674-2.7014-1.3512-4.3962-0.73766-29.032 1.5827-32.764z" fill="url(#m)" stroke="#000" stroke-linecap="round" stroke-width=".9"/>
 <path d="m185.44 761.9 47.1 0.89758 0.14583 4.3383-47.683-1.6456 0.43746-3.5903z" fill="#010101" fill-rule="evenodd" stroke="#000" stroke-linecap="round" stroke-width=".3"/>
 <path d="m169.41 781.67c0.30584 0.03927 49.035 1.6071 60.89 2.0033 0.69196 0.02313 1.4537 2.0634-0.88761 2.1854-2.0449 0.10654-47.245-2.1253-60.89-2.0033 0 0-2.2123-1.7368 0.88761-2.1854z" fill="#eee" fill-rule="evenodd" opacity=".79808"/>
 <path d="m233.67 783.57c0.21801 0.04249 34.953 1.7393 43.404 2.1682 0.49325 0.02502 1.0362 2.2332-0.63271 2.3652-1.4576 0.1153-33.678-2.3002-43.404-2.1682 0 0-1.577-1.8797 0.63271-2.3652z" fill="#eee" fill-rule="evenodd" opacity=".72596"/>
 <path d="m221.75 754.48 2.1411-1.9395-0.02749 8.1733-2.0537-1.8324-0.05992-4.4014z" fill="#808080" fill-rule="evenodd"/>
 <path d="m211.39 754.18-1.3985-1.7631 13.864 0.14011-2.0392 1.8763-10.426-0.25335z" fill="#fff" fill-rule="evenodd"/>
 <path d="m220.15 793.24 2.1196-1.8404 0.01699 7.9451-2.0322-1.5663-0.10441-4.5383z" fill="#808080" fill-rule="evenodd"/>
 <path d="m210.47 792.76-1.3493-1.9489 13.18 0.53691-2.2633 1.9834-9.5672-0.57148z" fill="#fff" fill-rule="evenodd"/>
 <path d="m166.02 790.38c0.65661-0.74795 13.858-2.2108 15.35-0.42232 1.4401 1.7257 2.9091 4.7414 0.80332 6.9016s0.41524-4.0554-3.6046-4.4006c-5.1235-0.44004-13.239-1.2927-12.549-2.0787z" fill="url(#n)" fill-rule="evenodd"/>
 <path d="m164.49 797.8c4.095 1.516 16.189 2.2224 17.305 2.4633 0.03111 0.41265-0.86637 0.10184-1.0307 1.3776-9.4019-0.57481-13.722-1.6613-15.615-2.0939-0.32103-0.75045-0.81033-0.96105-0.65918-1.747z" fill="#f5f6f6" fill-rule="evenodd" opacity=".63462"/>
 <path d="m361.85 735.63c0.55956 0 11.937 0.86107 11.937 0.86107s4.8494 22.196 4.4764 21.909-6.2761-1.8542-6.6214-2.5832c-2.5021-5.2824-6.9011-3.7313-6.9011-3.7313l-2.891-16.456z" fill="#808080" fill-rule="evenodd"/>
 <path d="m365.11 753.81c0.11895 0.84864 0.46629 5.0707 0.83933 4.7837s3.3295-1.5676 3.5438-3.2529c0.22508-1.7703-4.501-2.3712-4.3832-1.5308z" fill="#858788" fill-rule="evenodd"/>
 <path d="m378.64 740.22 4.1034 20.091 6.1551 0.76539s0.37303-7.2712 0.09326-7.8452-10.258-13.012-10.352-13.012z" fill="#858788" fill-rule="evenodd"/>
 <path d="m234.89 728.62s1.2676-4.8746 1.649-6.9991c0.38797-2.1607 0.90535-7.2645 0.90535-7.2645-1.1152 4.7996-1.9564 9.5524-2.5544 14.264z" fill="#fdfdfd" fill-rule="evenodd"/>
 <path d="m283.8 713.32-46.387 1.0246c-1.3044 4.7808-2.1085 9.5616-2.5512 14.342l46.83 0.00236 2.1085-15.369z" fill="none" stroke="#000" stroke-width=".4"/>
 <path d="m293.34 707.74c8.122-0.13146 16.032 9.5293 23.859 22.997" fill="none" stroke="#000" stroke-width=".4"/>
 <path d="m317.87 707.63c18.069 1.2805 22.473 13.465 30.629 22.656" fill="none" stroke="#000" stroke-width=".4"/>
 <path d="m281.64 785.97c0.21801 0.04249 34.953 1.7393 43.404 2.1682 0.49325 0.02503 14.689 0.16476 16.457 8.3991-14.013-5.8773-50.767-8.334-60.494-8.202 0 0-1.577-1.8797 0.63271-2.3652z" fill="#eee" fill-rule="evenodd" opacity=".74038"/>
 <path d="m171.83 729.31 60.412-0.65469 2.9134-14.356-58.646 1.2622c-2.504 3.8563-4.4319 8.156-4.6798 13.748z" fill="none" stroke="#000" stroke-width=".4"/>
 <path d="m333.3 800.2c1.9362-4.8855 3.3604-9.9661 7.5536-10.606-0.2113-3.0673 1.847-4.7996 3.0913-6.7468" fill="none" stroke="#000" stroke-width=".4"/>
 <path d="m353.13 790.39c4.9012 2.6307 14.531 2.8231 21.809 4.2347 15.221-0.39721 38.868-1.3905 45.664-1.1916 0.50912-1.8583 1.2635-1.5674 1.6129-1.7139-0.84867-1.1561-1.7129-2.2803-2.8243-2.8974l-3.3674 1.1144c-0.66021 2.3063-30.959 0.57417-47.035 0.78006l-15.859-0.32619z" fill="#696969" fill-rule="evenodd" opacity=".59615"/>
 <path d="m334.9 788.83c0.86564 1.5503 81.176 3.7153 80.931 1.1968l3.7913-1.1968" fill="none" stroke="#000" stroke-width=".4"/>
 <path d="m415.69 790.02c2.2012 0.98309 4.5507 1.814 5.2496 4.3383 1.6054 8.1556 2.1725 16.43 0.29164 24.983-1.0199 1.2231-2.0694 2.4006-2.3331 4.7871 0.2161 0.33793-0.41079 1.1083-1.7499 2.244" fill="none" stroke="#000" stroke-width=".4"/>
 <path d="m368.73 790.77c2.4863 1.2678 5.3959 2.3185 6.4161 4.3383 2.9769 10.778 8.467 23.937 6.8536 30.368 0.73253 0.89583 1.2417 1.9062 0.43747 3.5903" fill="none" stroke="#000" stroke-width=".4"/>
 <path d="m368.73 790.77c-0.59106-4.86-4.3812-9.7024-8.4576-14.96" fill="none" stroke="#000" stroke-width=".4"/>
 <path d="m285.8 711.24c-1.3704 5.5554-1.6667 13.981-1.501 16.559 8.6819 0.8175 19.589 0.50926 23.217 4.403 12.105 12.985 19.194 28.679 23.477 45.887 3.3 3.767 6.5826 3.1536 10.703 3.9739-6.4583-9.0467-5.0449-7.6348-4.3094-14.085-16.894-19.401-39.484-61.157-51.587-56.738z" fill="#fff" fill-rule="evenodd" opacity=".625"/>
 <path d="m338.23 768.18c-1.094 4.443-3.1205 8.3572 5.6505 14.877 4.8202 2.5641 20.962 5.6694 23.538 3.9726-1.9028-4.6473-4.7799-7.9126-7.4044-11.523-7.2424-0.33931-14.542-3.4135-21.784-7.3261z" fill="#dcdcdc" fill-rule="evenodd" stroke="#000" stroke-width=".5"/>
 <path d="m358.4 784.53c-5.9858 1.0525-12.649-1.981-19.529-6.3178" fill="none" stroke="#000" stroke-width=".2"/>
 <path transform="matrix(.59155 0 0 .60687 74.023 450.95)" d="m466.55 541.76a4.473 6.0996 0 1 1 -8.9461 0 4.473 6.0996 0 1 1 8.9461 0z" fill="#808080" fill-rule="evenodd"/>
 <path d="m345.43 776.19 1.6868-0.2055-0.21085 7.3979-2.4037-1.3979c-1.5207-1.302-1.2223-5.5288 0.92776-5.7945z" fill="#808080" fill-rule="evenodd"/>
 <path transform="matrix(.59155 0 0 .60687 74.614 451.17)" d="m466.55 541.76a4.473 6.0996 0 1 1 -8.9461 0 4.473 6.0996 0 1 1 8.9461 0z" fill="#fff" fill-rule="evenodd"/>
 <path transform="matrix(.59155 0 0 .60687 74.066 450.91)" d="m477.12 545.55a3.3887 5.0152 0 1 1 -6.7773 0 3.3887 5.0152 0 1 1 6.7773 0z" fill="#808080" fill-rule="evenodd"/>
 <path d="m352.6 779.15 1.6868-0.17305-0.21086 6.2298-2.1507-0.99504c-1.1834-1.315-0.80061-4.5101 0.67473-5.0617z" fill="#808080" fill-rule="evenodd"/>
 <path transform="matrix(.59155 0 0 .60687 74.614 451.04)" d="m477.12 545.55a3.3887 5.0152 0 1 1 -6.7773 0 3.3887 5.0152 0 1 1 6.7773 0z" fill="#fff" fill-rule="evenodd"/>
 <path d="m367.28 787.1c-3.1578-0.66543-6.0325-1.0383-8.8794-2.5543-0.03583-2.3281-0.68495-4.3417-1.384-6.3297 0.45447-2.6399 2.2135-1.8383 3.3677-2.6323" fill="none" stroke="#000" stroke-width=".2"/>
 <path d="m338.37 768.26c3.422 2.8196 2.7418 4.819 18.601 10.126l0.08437-0.17309" fill="none" stroke="#000" stroke-width=".2"/>
 <path d="m170.78 732.35-2.143 15.802-0.13394 17.038 2.2769-32.84z" fill="#fff" fill-rule="evenodd" opacity=".61058"/>
 <path d="m170.82 732.41c-1.7752 10.94-2.8685 21.372-2.5525 32.618l62.309 1.5075c0.12759-11.307-1.0229-23.88 1.0078-34.842l-60.764 0.71586z" fill="none" stroke="#000" stroke-width=".4"/>
 <path transform="matrix(.99965 .026556 -.025234 .99968 0 0)" d="m204.79 758.7h46.231v1.0232h-46.231z" fill="#a9a9a9" fill-rule="evenodd"/>
 <path transform="matrix(.99983 .018517 -.017595 .99985 0 0)" d="m199.19 758.76h46.23v1.0232h-46.23z" fill="#a9a9a9" fill-rule="evenodd"/>
 <path d="m348.17 776.81c1.6061 0.75647 2.9794 4.4757 0.08435 6.2298" fill="none" stroke="#000" stroke-width=".3"/>
 <path d="m355.13 779.67c1.6826 0.65847 1.6064 4.6093-0.29519 4.9319" fill="none" stroke="#000" stroke-width=".2"/>
 <path transform="matrix(.59155 0 0 .60687 74.614 451.17)" d="m464.3 540.41a1.4614 2.0317 0 1 1 -2.9228 0 1.4614 2.0317 0 1 1 2.9228 0z" fill="#afeeee" fill-rule="evenodd"/>
 <path transform="matrix(.59155 0 0 .60687 74.614 451.17)" d="m475.63 544.22a0.81981 1.6396 0 1 1 -1.6396 0 0.81981 1.6396 0 1 1 1.6396 0z" fill="#afeeee" fill-rule="evenodd"/>
 <path d="m344.93 829.25c10.798 0.98657 23.486 0.38615 35.919 0l-8.1369 3.6968c-10.709 0.74646-19.193-0.56916-28.828-1.2521l1.0462-2.4447z" fill-rule="evenodd"/>
 <path d="m408.95 775.66c1.0297-0.03011 5.7876 9.4697 6.0115 10.924 0.23107 1.5014 3.5089 0.90329 3.4314-0.4878-2.3307-4.4931-5.0674-8.9029-7.9474-13.283-0.59055 1.5625-1.1247 2.7491-1.4956 2.8467z" fill="#dcdcdc" fill-rule="evenodd"/>
 <path d="m410.21 772.38c0.19488 1.1378-0.43362 2.2757-1.1091 3.4135 3.4053 4.2746 4.5754 7.7848 6.322 11.492 1.4455 0.20783 3.2552-0.18633 3.2565-1.1638" fill="none" stroke="#000" stroke-width=".4"/>
 <path d="m357.77 826.63c0.1343 0.49682 21.972 0.05811 24.179-0.91027 16.392 0.64865 24.623-1.4413 36.934-1.9343 1.6678-0.46576 3.0122-0.10184 5.2129-1.9343" fill="none" stroke="#000" stroke-width=".3"/>
 <path d="m362.99 806.72c-0.42258 2.1998-0.02086 4.3997 1.331 6.5995 1.9225 0.35499 3.845 0.95809 5.7674 0.45514l8.2075-0.56892c0.40292-2.0481 0.42775-4.0962-1.22-6.1444l-8.7621-0.11379-5.3238-0.22756z" fill-rule="evenodd" stroke="#000" stroke-width=".5"/>
 <path d="m382.95 806.61 35.159-1.593" fill="none" stroke="#000"/>
 <path d="m382.17 803.76 35.714-1.1378" fill="none" stroke="#000"/>
 <path d="m381.4 800.8c1.1091 0 36.157-1.3654 36.157-1.3654" fill="none" stroke="#000"/>
 <path d="m399.47 795.67c1.7198 3.8434 2.3222 7.2373 2.9849 12.646" fill="none" stroke="#000"/>
 <path d="m403.44 801.98c0 1.743-0.74898 3.2892-1.9879 3.2892s-2.3298-1.5901-2.5008-3.2892c-0.17448-1.7338 0.70622-2.9384 1.9451-2.9384s2.5436 1.1954 2.5436 2.9384z" fill="#8b0000" stroke="#000" stroke-linecap="round" stroke-width=".9"/>
 <path d="m361.6 782.21c0 2.3105-3.0731 0.63848-8.9898 0.63848s-12.862-8.4728-12.862-10.783 8.6053 4.7532 14.522 4.7532 7.3301 3.0812 7.3301 5.3917z" fill="#b0c4de" fill-rule="evenodd" opacity=".64423"/>
 <path d="m285.17 737.14c0.34648 9.8598-0.95641 21.218 4.2393 32.054l19.626 7.0069c8.8988 1.4868 8.5919-3.8259 5.5739-3.141l-14.131-2.1745-9.7347-2.8189c-4.9263-10.712-2.9404-21.584-4.0038-32.296-0.52338-2.6777-1.0468-1.7436-1.5701 1.3692z" fill="#fff" fill-rule="evenodd" opacity=".59615"/>
 <path d="m286.05 820.39c1.8957 0.44879 22.165 2.244 22.165 2.244s-2.6337-27.794 11.811-27.077c1.9046-7.5112 1.604-23.188 1.604-23.188s-24.239-0.36237-30.331-4.7871c-6.1907-7.1271-3.2081-37.998-3.2081-37.998l-4.3746 0.1496-2.0415 35.754 2.7706 40.391 1.604 14.511z" fill="none" stroke="#000" stroke-width=".3"/>
 <path d="m326.3 770.25c2.203 0.55235 10.443-5.68 9.6547-6.4893" fill="none" stroke="#000" stroke-width=".4"/>
 <path d="m294.22 707.98c8.7396 3.099 15.946 13.69 17.447 14.738 1.0501 0.60557 0.1925-0.38711 0.00706-0.66513-5.7054-7.7729-9.7322-12.527-16.594-14.141l-0.85989 0.06786z" fill="#fff" fill-rule="evenodd" opacity=".66827"/>
 <path d="m319.81 707.77c11.336 2.3614 21.258 11.982 24.977 20.104 0.54578 0.79369 1.1632 0.08655 0.90274-0.46655-7.1591-10.438-11.544-16.519-25.02-19.705l-0.85989 0.06786z" fill="#fff" fill-rule="evenodd" opacity=".66827"/>
 <path d="m176.41 715.93-2.4778 6.1833-1.9421 7.1451c0.4965-4.1296 1.1225-8.3008 4.42-13.328z" fill="#fff" fill-rule="evenodd" opacity=".61058"/>
 <path d="m210.19 802.3c0.44149 0.06772 71.233 6.1865 88.454 7.6898 1.0052 0.08775 1.209 1.3423-0.3183 1.2449-1.6451-0.10493-69.761-6.5354-89.637-7.6898 0 0-3.0546-1.0877 1.5014-1.2449z" fill="#eee" fill-rule="evenodd" opacity=".75962"/>
 <path d="m383.77 796.64c2.7642 6.7527 2.7937 9.0164 3.4824 12.362v-0.11341" fill="none" stroke="#000"/>
 <path d="m387.64 796.18c1.5025 2.2341 2.9303 7.3053 3.5929 12.589" fill="none" stroke="#000"/>
 <path d="m391.95 795.96c2.2827 4.1943 2.52 7.9624 3.1507 12.589" fill="none" stroke="#000"/>
 <path d="m395.55 795.67c1.705 2.8452 2.9928 8.6139 3.3166 12.759" fill="none" stroke="#000"/>
 <path d="m402.9 795.73c1.5568 2.6705 2.4923 8.2036 2.7638 12.305" fill="none" stroke="#000"/>
 <path d="m406.27 795.67c1.7605 3.7586 1.4377 8.1279 2.1558 12.192" fill="none" stroke="#000"/>
 <path d="m409.64 795.67c1.2271 3.7646 1.2008 8.0436 1.7688 12.079" fill="none" stroke="#000"/>
 <path d="m412.57 795.67c1.1188 3.717 1.1074 8.0137 1.6583 12.022" fill="none" stroke="#000"/>
 <path d="m414.89 795.73c1.1625 3.7764 1.2727 7.7686 1.7688 11.682" fill="none" stroke="#000"/>
 <path d="m382.99278,826.56197c.07671-.22889 3.56794-.31336 5.81055-.21213 1.38215.06239.37798.69766-.22882.84306s-2.50448-.14075-5.32203.34141c.19215-.17558.20409-.95047-.2597-.97234z" fill="#eee" fill-rule="evenodd"/>
 <path d="m304.75 756.28c2.3259-0.93612 5.0452-1.79 9.038 0.40904 0.21213 1.4417 0.19511 2.8474 0.0413 4.2352s-0.44441 2.7574-0.77947 4.1271-0.63607 6.3636-0.96771 7.7513-4.8846 0.82487-9.6803-0.49043c-5e-4 -6.0907 0.3745-11.677 2.3482-16.032z" fill-rule="evenodd" stroke="#020202" stroke-linecap="round" stroke-width=".5"/>
 <path d="m317.65 750.81c-0.89393 9.7294-4.0627 15.025-7.1512 20.476 5.1588 0.80918 10.318 1.0456 15.477-0.219-0.31763-6.5255-3.2742-12.895-8.3253-20.257z" fill-rule="evenodd" stroke="#000"/>
 <path d="m304.14 757.63c0.57983-0.11479 1.3299-0.10494 1.9098-0.21972-1.4141 5.1062-2.0782 9.991-1.7182 15.299l-1.8514-0.45583c-0.0935-4.9538-0.07174-10.02 1.6599-14.624z" fill="url(#o)" fill-rule="evenodd"/>
 <path d="m304.68 756.3c0.93259-0.39446 2.2586-0.85365 3.3352-1.0019 1.3347-0.45216 5.4618 0.8635 5.7209 1.4084-1.242 0.47593-8.5887 1.128-9.6248 0.93823l0.56867-1.3448z" fill="url(#p)" fill-rule="evenodd"/>
 <path d="m342.21 793.4c0.08171 1.1142 0.09108 2.2284 2.6276 3.3426 1.5952-0.03146 2.8776-1.3464 4.2042-2.48-2.292-0.33291-5.3031-2.8788-6.8319-0.86261z" fill="#fff" fill-rule="evenodd" opacity=".57212"/>
 <path d="m361.9 777.96c3.9816 4.6245 7.2862 11.016 6.7958 12.656 15.515 0.49261 31.091 0.43353 46.598-0.01547-5.0244-5.5665-14.313-10.404-37.661-12.837l-15.733 0.19715z" fill="url(#q)"/>
 <text transform="matrix(.61557 -.087698 .14115 1.6044 0 0)" x="530.5116" y="529.97113" font-family="Bitstream Vera Sans" font-size="2.7032" text-anchor="middle">
  <tspan x="530.5116" y="529.97113">FIAT</tspan>
 </text>
 <path d="m277.84 824.03c-0.29493 0.00418-15.214-1.6753-15.214-1.6753l0.0972 1.7387 14.848 1.8319 0.26941-1.8952z" fill="#c0c0c0" fill-rule="evenodd"/>
 <path d="m262.57 824.21-1.3273 0.90778 15.338 1.8912 1.0324-0.98343-15.043-1.8156z" fill="#fff" fill-rule="evenodd"/>
 <path d="m261.25 825.2 0.07374 1.286 15.117 1.8912 0.07374-1.3617-15.264-1.8156z" fill="#c0c0c0" fill-rule="evenodd"/>
 <path d="m276.51 827.02-0.02366 1.3353 1.763-1.5538 0.40231-2.9254-0.79277 0.19422-0.24848 1.9422-1.1004 1.0075z" fill="#696969" fill-rule="evenodd"/>
 <path d="m169.27 781.59 60.412 1.8749" fill="none" stroke="#000" stroke-width=".3"/>
 <path d="m233.57 783.53c0.68647 0.17606 43.04 2.051 43.04 2.051" fill="none" stroke="#000" stroke-width=".3"/>
 <path d="m281.36 785.91 44.672 2.2026" fill="none" stroke="#000" stroke-width=".3"/>
 <path d="m311.83 768.25-0.21187 3.1735 10.89-0.95639-0.1695-3.8255-10.509 1.6085z" fill="none" stroke="#000"/>
 <path d="m310.77 765.25c-1.5929 3.0082-0.811 3.0043-0.76274 4.4342l12.882 0.82596c2.6494-2.6974 1.6634-3.6398 0.55087-4.5211" fill="url(#r)" fill-rule="evenodd"/>
 <path d="m284.32 728.65c25.238 0.17355 23.053 0.37306 42.372 32.262" fill="none" stroke="#000" stroke-width=".4"/>
 <path d="m360.08 775.33 49.126 0.38555" fill="none" stroke="#000" stroke-width=".1"/>
</svg>
