<?xml version="1.0" encoding="UTF-8"?>
<svg version="1.1" viewBox="0 0 1370 550" xmlns="http://www.w3.org/2000/svg" xmlns:xlink="http://www.w3.org/1999/xlink">
 <defs>
  <linearGradient id="a">
   <stop stop-color="#fff" offset="0"/>
   <stop stop-color="#fff" stop-opacity="0" offset="1"/>
  </linearGradient>
  <filter id="am" x="-.035499" y="-.036516" width="1.071" height="1.073" color-interpolation-filters="sRGB">
   <feGaussianBlur stdDeviation="0.60587924"/>
  </filter>
  <filter id="an" x="-.036303" y="-.035702" width="1.0726" height="1.0714" color-interpolation-filters="sRGB">
   <feGaussianBlur stdDeviation="1.702892"/>
  </filter>
  <filter id="br" x="-.036" y="-.036" width="1.072" height="1.072" color-interpolation-filters="sRGB">
   <feGaussianBlur stdDeviation="2.4897947"/>
  </filter>
  <filter id="bs" x="-.072" y="-.072" width="1.144" height="1.144" color-interpolation-filters="sRGB">
   <feGaussianBlur stdDeviation="4.1128125"/>
  </filter>
  <filter id="bt" x="-.012152" y="-.011852" width="1.0243" height="1.0237" color-interpolation-filters="sRGB">
   <feGaussianBlur stdDeviation="0.73624043"/>
  </filter>
  <linearGradient id="bu" x1="1226.4" x2="1363.5" y1="324.22" y2="324.22" gradientUnits="userSpaceOnUse" xlink:href="#a"/>
  <radialGradient id="by" cx="1077.3" cy="311.43" r="56.289" gradientTransform="matrix(1 0 0 1.0169 0 -5.2508)" gradientUnits="userSpaceOnUse">
   <stop stop-color="#666" offset="0"/>
   <stop stop-color="#666" stop-opacity="0" offset="1"/>
  </radialGradient>
  <linearGradient id="bv" x1="1287.4" x2="1302.5" y1="323.69" y2="323.69" gradientUnits="userSpaceOnUse">
   <stop stop-color="#333" offset="0"/>
   <stop stop-color="#333" stop-opacity="0" offset="1"/>
  </linearGradient>
  <linearGradient id="bw" x1="1080" x2="1132.8" y1="-339.04" y2="-207.61" gradientTransform="translate(220.97 576.39)" gradientUnits="userSpaceOnUse" xlink:href="#a"/>
  <linearGradient id="bx" x1="1003.1" x2="1150" y1="311.38" y2="311.38" gradientTransform="translate(-2153.1)" gradientUnits="userSpaceOnUse" xlink:href="#a"/>
  <radialGradient id="cj" cx="491.15" cy="764.06" r="270.27" gradientTransform="matrix(2.2734 -.18429 .038624 .47645 -563.56 422.01)" gradientUnits="userSpaceOnUse">
   <stop stop-color="#e3e4df" offset="0"/>
   <stop stop-color="#e3e4df" stop-opacity="0" offset="1"/>
  </radialGradient>
  <filter id="db" x="-.032154" y="-.094638" width="1.0643" height="1.1893" color-interpolation-filters="sRGB">
   <feGaussianBlur stdDeviation="7.2419644"/>
  </filter>
  <radialGradient id="ck" cx="881.76" cy="666.62" r="199.73" gradientTransform="matrix(2.5184 .11783 -.014099 .30133 -1329.5 437.32)" gradientUnits="userSpaceOnUse">
   <stop stop-color="#fff" offset="0"/>
   <stop stop-color="#fff" stop-opacity="0" offset="1"/>
  </radialGradient>
  <filter id="dd" x="-.026043" y="-.30588" width="1.0521" height="1.6118" color-interpolation-filters="sRGB">
   <feGaussianBlur stdDeviation="4.2427972"/>
  </filter>
  <linearGradient id="dn" x1="989.01" x2="993.58" y1="767.36" y2="818.58" gradientUnits="userSpaceOnUse" xlink:href="#a"/>
  <filter id="bp" x="-.023243" y="-.079794" width="1.0465" height="1.1596" color-interpolation-filters="sRGB">
   <feGaussianBlur stdDeviation="2.241085"/>
  </filter>
  <linearGradient id="do" x1="875.54" x2="1181.7" y1="821.07" y2="821.07" gradientUnits="userSpaceOnUse" xlink:href="#a"/>
  <filter id="bq" x="-.032047" y="-.095576" width="1.0641" height="1.1912" color-interpolation-filters="sRGB">
   <feGaussianBlur stdDeviation="3.2414271"/>
  </filter>
  <linearGradient id="dp" x1="1205.5" x2="1199.8" y1="872.21" y2="824.97" gradientUnits="userSpaceOnUse">
   <stop stop-color="#fff" offset="0"/>
   <stop stop-color="#fff" stop-opacity="0" offset="1"/>
  </linearGradient>
  <filter id="cm" x="-.020134" y="-.029703" width="1.0403" height="1.0594" color-interpolation-filters="sRGB">
   <feGaussianBlur stdDeviation="1.0919995"/>
  </filter>
  <filter id="cn" x="-.019724" y="-.20592" width="1.0394" height="1.4118" color-interpolation-filters="sRGB">
   <feGaussianBlur stdDeviation="4.2223533"/>
  </filter>
  <linearGradient id="dq" x1="403.24" x2="1120" y1="246.28" y2="252.83" gradientTransform="translate(-62.991 645.66)" gradientUnits="userSpaceOnUse">
   <stop stop-color="#fff" offset="0"/>
   <stop stop-color="#fff" stop-opacity="0" offset="1"/>
  </linearGradient>
  <linearGradient id="dr" x1="1101" x2="788.21" y1="829.4" y2="837.72" gradientUnits="userSpaceOnUse" xlink:href="#a"/>
  <linearGradient id="ds" x1="22.505" x2="89.801" y1="843.34" y2="843.34" gradientUnits="userSpaceOnUse">
   <stop stop-color="#fff" offset="0"/>
   <stop stop-color="#fff" stop-opacity="0" offset="1"/>
  </linearGradient>
  <filter id="co" x="-.026558" y="-.021891" width="1.0531" height="1.0438" color-interpolation-filters="sRGB">
   <feGaussianBlur stdDeviation="0.74468985"/>
  </filter>
  <linearGradient id="dt" x1="989.01" x2="993.58" y1="767.36" y2="818.58" gradientTransform="translate(-794.34 -6.6751)" gradientUnits="userSpaceOnUse" xlink:href="#a"/>
  <linearGradient id="du" x1="313.73" x2="-55.626" y1="737.52" y2="726.39" gradientUnits="userSpaceOnUse">
   <stop stop-color="#fff" offset="0"/>
   <stop stop-color="#fff" stop-opacity="0" offset="1"/>
  </linearGradient>
  <filter id="cp" x="-.036389" y="-.17087" width="1.0728" height="1.3417" color-interpolation-filters="sRGB">
   <feGaussianBlur stdDeviation="3.6435068"/>
  </filter>
  <linearGradient id="dv" x1="35.601" x2="289.26" y1="726.39" y2="726.39" gradientUnits="userSpaceOnUse">
   <stop stop-color="#fff" offset="0"/>
   <stop stop-color="#fff" stop-opacity="0" offset="1"/>
  </linearGradient>
  <radialGradient id="ci" cx="353.67" cy="631.38" r="19.305" gradientTransform="matrix(1 0 0 .66275 0 208.72)" gradientUnits="userSpaceOnUse">
   <stop stop-color="#fff" offset="0"/>
   <stop stop-color="#fff" stop-opacity="0" offset="1"/>
  </radialGradient>
  <linearGradient id="dw" x1="310.23" x2="425.78" y1="672.49" y2="672.49" gradientUnits="userSpaceOnUse">
   <stop stop-color="#fff" offset="0"/>
   <stop stop-color="#fff" stop-opacity="0" offset="1"/>
  </linearGradient>
  <filter id="cq" x="-.01989" y="-.03025" width="1.0398" height="1.0605" color-interpolation-filters="sRGB">
   <feGaussianBlur stdDeviation="0.95760565"/>
  </filter>
  <filter id="cr" x="-.011692" y="-.16049" width="1.0234" height="1.321" color-interpolation-filters="sRGB">
   <feGaussianBlur stdDeviation="1.3124162"/>
  </filter>
  <filter id="cs" x="-.013607" y="-.15227" width="1.0272" height="1.3045" color-interpolation-filters="sRGB">
   <feGaussianBlur stdDeviation="1.3124162"/>
  </filter>
  <linearGradient id="dx" x1="359.8" x2="397.85" y1="725.78" y2="754.27" gradientUnits="userSpaceOnUse">
   <stop stop-color="#1a1a1a" offset="0"/>
   <stop stop-color="#1a1a1a" stop-opacity="0" offset="1"/>
  </linearGradient>
  <linearGradient id="dy" x1="560.95" x2="591.56" y1="761.79" y2="761.79" gradientUnits="userSpaceOnUse">
   <stop stop-color="#696969" offset="0"/>
   <stop stop-color="#696969" stop-opacity="0" offset="1"/>
  </linearGradient>
  <linearGradient id="bz" x1="789.08" x2="819.69" y1="760.39" y2="760.39" gradientUnits="userSpaceOnUse">
   <stop stop-color="#696969" offset="0"/>
   <stop stop-color="#696969" stop-opacity="0" offset="1"/>
  </linearGradient>
  <linearGradient id="ca" x1="113.23" x2="111.76" y1="761.68" y2="773.45" gradientUnits="userSpaceOnUse">
   <stop stop-color="#ccc" offset="0"/>
   <stop stop-color="#ccc" stop-opacity="0" offset="1"/>
  </linearGradient>
  <filter id="ct" x="-.09917" y="-.043011" width="1.1983" height="1.086" color-interpolation-filters="sRGB">
   <feGaussianBlur stdDeviation="0.76984617"/>
  </filter>
  <filter id="cu" x="-.0076443" y="-.027894" width="1.0153" height="1.0558" color-interpolation-filters="sRGB">
   <feGaussianBlur stdDeviation="0.85460999"/>
  </filter>
  <filter id="cv" x="-.033667" y="-.0073012" width="1.0673" height="1.0146" color-interpolation-filters="sRGB">
   <feGaussianBlur stdDeviation="0.2136392"/>
  </filter>
  <filter id="cw" x="-.055034" y="-.069391" width="1.1101" height="1.1388" color-interpolation-filters="sRGB">
   <feGaussianBlur stdDeviation="0.56265405"/>
  </filter>
  <filter id="cx" x="-.06384" y="-.069391" width="1.1277" height="1.1388" color-interpolation-filters="sRGB">
   <feGaussianBlur stdDeviation="0.56265405"/>
  </filter>
  <filter id="cy" x="-.0665" y="-.046941" width="1.133" height="1.0939" color-interpolation-filters="sRGB">
   <feGaussianBlur stdDeviation="0.56265405"/>
  </filter>
  <filter id="cz" x="-.076" y="-.0399" width="1.152" height="1.0798" color-interpolation-filters="sRGB">
   <feGaussianBlur stdDeviation="0.56265405"/>
  </filter>
  <linearGradient id="cb" x1="1337.2" x2="1357.6" y1="120.81" y2="120.81" gradientUnits="userSpaceOnUse">
   <stop stop-color="#2b0000" offset="0"/>
   <stop stop-color="#2b0000" stop-opacity="0" offset="1"/>
  </linearGradient>
  <linearGradient id="cc" x1="1333.8" x2="1356.8" y1="143.65" y2="143.65" gradientUnits="userSpaceOnUse">
   <stop stop-color="#a40" offset="0"/>
   <stop stop-color="#a40" stop-opacity="0" offset="1"/>
  </linearGradient>
  <linearGradient id="cd" x1="1330.4" x2="1354.3" y1="164.38" y2="164.38" gradientUnits="userSpaceOnUse">
   <stop stop-color="#2b0000" offset="0"/>
   <stop stop-color="#2b0000" stop-opacity="0" offset="1"/>
  </linearGradient>
  <linearGradient id="ce" x1="1328.7" x2="1356" y1="180.46" y2="180.46" gradientUnits="userSpaceOnUse">
   <stop stop-color="#d40000" offset="0"/>
   <stop stop-color="#d40000" stop-opacity="0" offset="1"/>
  </linearGradient>
  <linearGradient id="cf" x1="1148.4" x2="1273.8" y1="893.67" y2="893.67" gradientUnits="userSpaceOnUse">
   <stop stop-color="#fff" offset="0"/>
   <stop stop-color="#fff" stop-opacity="0" offset="1"/>
  </linearGradient>
  <filter id="da" x="-.019184" y="-.032044" width="1.0384" height="1.0641" color-interpolation-filters="sRGB">
   <feGaussianBlur stdDeviation="1.0251836"/>
  </filter>
  <filter id="dc" x="-.032938" y="-.088444" width="1.0659" height="1.1769" color-interpolation-filters="sRGB">
   <feGaussianBlur stdDeviation="1.6700578"/>
  </filter>
  <filter id="de" x="-.03347" y="-.038944" width="1.0669" height="1.0779" color-interpolation-filters="sRGB">
   <feGaussianBlur stdDeviation="0.35605886"/>
  </filter>
  <linearGradient id="cg" x1="-28.555" x2="79.959" y1="877.13" y2="877.13" gradientUnits="userSpaceOnUse">
   <stop stop-color="#fff" offset="0"/>
   <stop stop-color="#fff" stop-opacity="0" offset="1"/>
  </linearGradient>
  <linearGradient id="ch" x1="-17.058" x2="10.182" y1="819.43" y2="819.43" gradientUnits="userSpaceOnUse">
   <stop stop-color="#1a1a1a" offset="0"/>
   <stop stop-color="#1a1a1a" stop-opacity="0" offset="1"/>
  </linearGradient>
  <filter id="df" x="-.04434" y="-.030301" width="1.0887" height="1.0606" color-interpolation-filters="sRGB">
   <feGaussianBlur stdDeviation="1.7928283"/>
  </filter>
  <filter id="dg" x="-.016163" y="-.046588" width="1.0323" height="1.0932" color-interpolation-filters="sRGB">
   <feGaussianBlur stdDeviation="0.3013172"/>
  </filter>
  <filter id="dh" x="-.023553" y="-.076345" width="1.0471" height="1.1527" color-interpolation-filters="sRGB">
   <feGaussianBlur stdDeviation="0.8423184"/>
  </filter>
  <filter id="di" x="-.14536" y="-.16832" width="1.2907" height="1.3366" color-interpolation-filters="sRGB">
   <feGaussianBlur stdDeviation="1.1254714"/>
  </filter>
  <filter id="dj" x="-.087762" y="-.033034" width="1.1755" height="1.0661" color-interpolation-filters="sRGB">
   <feGaussianBlur stdDeviation="1.3318242"/>
  </filter>
  <filter id="dk" x="-.054966" y="-.066048" width="1.1099" height="1.1321" color-interpolation-filters="sRGB">
   <feGaussianBlur stdDeviation="2.2811838"/>
  </filter>
  <filter id="dl" x="-.025246" y="-.48611" width="1.0505" height="1.9722" color-interpolation-filters="sRGB">
   <feGaussianBlur stdDeviation="12.823498"/>
  </filter>
  <filter id="dm" x="-.2304" y="-.026791" width="1.4608" height="1.0536" color-interpolation-filters="sRGB">
   <feGaussianBlur stdDeviation="2.3877959"/>
  </filter>
  <radialGradient id="cl" cx="690.54" cy="689.5" r="687.84" gradientTransform="matrix(.99996 .0092589 -.0039293 .42436 2.7388 445.26)" gradientUnits="userSpaceOnUse">
   <stop stop-color="#ff8080" offset="0"/>
   <stop stop-color="#ff8080" stop-opacity="0" offset="1"/>
  </radialGradient>
 </defs>
 <g transform="translate(-1.0621e-6 -502.36)">
  <rect x="-2.7027" y="501.01" width="1375.7" height="562.16" fill="url(#cl)" opacity=".54"/>
  <g transform="translate(34.757 -47.027)">
   <path d="m1070.8 1032.2h-741.74c-10.041 0-40.729 5.5567-49.065 0-6.7468-4.4979-10.518-12.784-17.317-17.317-12.271-8.1807-101.73 3.2439-112.56 8.6584-11.562 5.781-46.053-8.7837-54.837 0-7.1858 7.1858 23.606 6.9571 20.203 8.6585-4.5848 2.2924-59.849 12.305-51.951 20.203 1.5305 1.5305 131.96 0 144.31 0 17.989 0 111.56-4.8278 121.22 0 9.5225 4.7613 13.184 8.2429 23.089 11.545 19.791 6.5971 128.37 0 155.85 0h334.79c23.529 0 197.12-6.7844 210.69 0 30.021 15.01 61.863 8.6585 98.129 8.6585 16.117 0 32.198 7.7569 37.52-2.8862 0.599-1.198 7.651 1.0075 8.6585 0 11.726-11.726 49.01-5.7723 66.381-5.7723 5.7723 0 19.898 5.1629 17.317 0-2.0232-4.0464-5.1581-5.7723-28.862-5.7723-0.024 0 29.584-4.328 25.975-11.545-0.71-1.4198-15.205 0-17.317 0-8.5002 0-10.96-5.7723-20.203-5.7723-16.846 0-121.31 3.7842-126.99 0-22.908-15.272-18.252-8.6584-43.292-8.6584z" fill-rule="evenodd" filter="url(#dl)" opacity=".659" stroke="#000" stroke-width="1px"/>
   <g transform="translate(-146.12 780.97)" fill-rule="evenodd" shape-rendering="auto">
    <path d="m1027-132.06 5.4785 85.83 23.74-1.8262-1.8262-3.6523h-8.2177l-0.9131-23.74c0.1119-4.6296 6.8463-3.1825 21.539-2.9519 11.691-1.6555 23.382-7.8885 35.072-0.72546 9.1397 0.55551 16.082 10.671 22.827 25.591l21.514 0.35021-87.256-97.137-10.044-1.8262 7.3047 58.437c-6.7468 1.1923-11.809-1.8277-13.696-12.783l-2.7393-42.002z" color="#000000" color-rendering="auto" image-rendering="auto" solid-color="#000000" stroke="#000" stroke-width="1px" style="isolation:auto;mix-blend-mode:normal"/>
    <g transform="translate(84.415 -118.18)">
     <path d="m975.17 9.6223 60.263-0.91308 25.566 26.479-24.653-2.7392-58.437 2.7392z" color="#000000" color-rendering="auto" fill="#0f1013" filter="url(#dh)" image-rendering="auto" solid-color="#000000" stroke="#000" stroke-width="1px" style="isolation:auto;mix-blend-mode:normal"/>
     <path d="m1035.4 27.884-14.609-13.696h-30.132l0.91308 15.522z" color="#000000" color-rendering="auto" fill="#b1b2b4" filter="url(#dg)" image-rendering="auto" solid-color="#000000" stroke="#666" stroke-width="1px" style="isolation:auto;mix-blend-mode:normal"/>
     <path d="m989.78 24.232c12.783-3.6523 15.522-0.91307 15.522-0.91307l-14.609-2.7392z" color="#000000" color-rendering="auto" fill="#4d4d4d" image-rendering="auto" solid-color="#000000" stroke="#000" stroke-width="1px" style="isolation:auto;mix-blend-mode:normal"/>
     <path d="m1010.8 24.232h13.696l-1.8262-3.6523-14.609-1.8262z" color="#000000" color-rendering="auto" fill="#4d4d4d" image-rendering="auto" solid-color="#000000" style="isolation:auto;mix-blend-mode:normal"/>
    </g>
    <path d="m1019.6-126.82 18.779-15.309c10.99-2.6357 7.5615 6.3931 8.9485 13.757l8.5218 59.35c-1.3472 7.5725-5.2612 16.419-11.444 22.706l24.227 1.3383c4.5088-7.2857 1.7737-16.641 2.2521-25.078-2.4398-26.743-4.8963-53.487-9.5568-80.23-2.6881-9.5449-13.577-11.169-22.827-7.3046l-21.206 13.696z" color="#000000" color-rendering="auto" fill="#c0c3c8" image-rendering="auto" solid-color="#000000" stroke="#4d4d4d" stroke-width="1px" style="isolation:auto;mix-blend-mode:normal"/>
    <path d="m1055.7-71.121c4.9529 2.0728 9.9058 1.5714 14.859-0.24358 0.5916 8.8726 1.6517 17.817-1.8269 26.064l-24.237-1.3397c6.45-7.2397 11.519-14.983 11.205-24.48z" color="#000000" color-rendering="auto" image-rendering="auto" solid-color="#000000" style="isolation:auto;mix-blend-mode:normal"/>
    <g transform="translate(6,-2)">
     <path d="m1166.1-51.571c0.2816-7.079 0.5631-17 0.8446-26.184l-82.774-77.706c-7.8833-5.6979-20.834-7.443-28.718 2.5339l94.599 79.395c-1.4356 7.0525 1.9631 11.688-7.6017 22.805z" color="#000000" color-rendering="auto" fill="#c7cacd" image-rendering="auto" solid-color="#000000" stroke="#4d4d4d" stroke-width="1px" style="isolation:auto;mix-blend-mode:normal"/>
     <path d="m1150.1-72.686 17.737-4.5911v26.552h-22.805c3.2583-10.437 3.9617-15.839 5.0678-21.96z" color="#000000" color-rendering="auto" image-rendering="auto" solid-color="#000000" style="isolation:auto;mix-blend-mode:normal"/>
     <path d="m1160-76.56c0.2105-5.2916-17.064-12.192-14.525-15.795-21.949-19.362-53.163-42.455-71.823-61.817-5.8928-4.2592-14.098 1.0029-14.098 1.0029 25.5 21.183 47.136 53.095 83.382 64.416 10.401 15.209 7.4146 15.501 17.064 12.192z" color="#000000" color-rendering="auto" fill="#6c6d6f" filter="url(#dk)" image-rendering="auto" opacity=".67" solid-color="#000000" style="isolation:auto;mix-blend-mode:normal"/>
    </g>
    <path d="m1066.8-139.41 6.757-6.757-8.4463-10.98-8.4463 0.84463z" color="#000000" color-rendering="auto" filter="url(#di)" image-rendering="auto" solid-color="#000000" style="isolation:auto;mix-blend-mode:normal"/>
    <path d="m1022.2-131.22 14.849-12.011c7.207-2.2132 4.9586 5.3684 5.8682 11.552l14.035 51.526c-0.8834 6.3587 3.307 13.787-0.7475 19.066l0.684-0.5655c2.9567-6.1179 1.1631-13.974 1.4768-21.059-1.5999-22.457-3.2108-44.914-6.2669-67.37-1.7628-8.015-8.9036-9.3786-14.969-6.1338l-14.751 13.19z" color="#000000" color-rendering="auto" fill="#333" filter="url(#dj)" image-rendering="auto" opacity=".598" solid-color="#000000" style="isolation:auto;mix-blend-mode:normal"/>
   </g>
   <path d="m20.727 910.38-3.1091-20.727-26.946 6.2182 3.1091 23.837c13.356-9.6708 18.543-7.0875 26.946-9.3273z" color="#000000" color-rendering="auto" fill="#333" fill-rule="evenodd" image-rendering="auto" shape-rendering="auto" solid-color="#000000" stroke="#000" stroke-width="1px" style="isolation:auto;mix-blend-mode:normal"/>
   <path d="m-5.1819 868.92 16.582 3.1091 3.1091-12.436-2.0727-23.836s0-3.1091-4.1455-1.0364c-9.2513 2.3318 7.7384 24.715-4.1455 25.909-10.364 1.0364-17.618 3.1091-17.618 3.1091z" color="#000000" color-rendering="auto" fill="#1a1a1a" fill-rule="evenodd" image-rendering="auto" shape-rendering="auto" solid-color="#000000" stroke="#000" stroke-width="1px" style="isolation:auto;mix-blend-mode:normal"/>
   <path d="m15.546 810.89c3.8685 4.6296-4.1455 17.618-4.1455 17.618s-18.358-5.1844-18.655 1.0364c-1.3124 27.513-3.122 23.893 1.0364 87.055 1.0353 15.725 23.172 18.973 42.491 20.727l50.782-3.1091 2.0677 19.691-63.214-1.0364c-26.268-3.8533-37.114-9.064-45.6-23.836-6.2485-23.76-13.727-77.254-4.2432-116.07 2.3833-9.7551 31.03-12.185 39.48-2.0727z" color="#000000" color-rendering="auto" fill="#4d4d4d" fill-rule="evenodd" image-rendering="auto" shape-rendering="auto" solid-color="#000000" style="isolation:auto;mix-blend-mode:normal"/>
   <path d="m-15.533 813.15c-2.1635 0.38287 1.6034 17.086 1.5533 17.086-0.51776 0 1.1872 0.36612 1.5533 0 4.0685-4.0685-2.81-1.8498 1.5533-6.2132 0.50473-0.50473 5.7935-2.2672 7.7665-6.2132 0.083158-0.16631 10.873-5.6287 10.873-3.1066 0 1.7608 1.6923-6.0742 1.5533-6.2132-0.35476-0.35475-14.69 2.1191-24.853 4.6599z" fill="url(#ch)" fill-rule="evenodd" filter="url(#de)" opacity=".645"/>
   <path d="m7.7665 895.48c-4.7486 25.146 23.612 42.312 35.726 45.046 6.2473 1.4097 45.046-3.1066 45.046-3.1066l40.386-7.7665-91.644-34.172z" color="#000000" color-rendering="auto" fill-rule="evenodd" filter="url(#dc)" image-rendering="auto" shape-rendering="auto" solid-color="#000000" style="isolation:auto;mix-blend-mode:normal"/>
   <path d="m289.66 889.33 14.245 63.313 617.3 6.3313 6.3313-42.736z" color="#000000" color-rendering="auto" fill-rule="evenodd" image-rendering="auto" shape-rendering="auto" solid-color="#000000" style="isolation:auto;mix-blend-mode:normal"/>
   <path d="m809.87 733.26 24.259-128.76-134.36-7.4643-89.571-1.8661-111.96 14.929-156.75 80.241 14.929 37.321 7.4643 27.991 70.911-9.3303-13.062-44.786 22.393-14.929c11.818 10.231 23.637-9.0531 35.455-22.393 44.598-19.846 96.486-17.822 145.55-24.259l162.35 1.8661v95.169z" color="#000000" color-rendering="auto" fill="#333" fill-rule="evenodd" image-rendering="auto" shape-rendering="auto" solid-color="#000000" stroke="#000" stroke-width="1px" style="isolation:auto;mix-blend-mode:normal"/>
   <path d="m788.6 593.02c25.263-16.241 42.406-30.677 42.406-30.677 6.1566-3.5545 6.7669 2.7068 6.7669 2.7068-22.105 17.594-33.383 24.361-33.383 24.361l3.1579 5.8646-4.6229-0.40564-2.5916-5.0536-6.479 4.017z" stroke="#696969" stroke-width="1.1281px"/>
   <path d="m432.93 703.41 22.393 39.187" color="#000000" color-rendering="auto" fill="none" image-rendering="auto" shape-rendering="auto" solid-color="#000000" stroke="#000" stroke-linecap="round" stroke-width="5.2" style="isolation:auto;mix-blend-mode:normal"/>
   <path d="m595.82 726.36c-199.89 4.2429-212.63 2.4957-212.63 2.4957-63.664-0.8384 12.165-52.249 30.09-64.601 35.721-24.48 68.444-38.219 68.444-38.219 49.21-15.238 130.14-14.488 130.14-14.488 6.8838 2.123 4.7462 7.4939 4.7462 7.4939l-14.738 96.672c-0.2498 10.741-6.0534 10.647-6.0534 10.647z" fill="#0ff" opacity=".293" stroke="#000" stroke-width="4.528"/>
   <path transform="translate(1.0621e-6 560.68)" d="m679.91 29.375c-29.626 0.05913-47.793 1.0684-47.793 1.0684-50.42 1.9772-97.873 6.2617-97.873 6.2617-49.101 6.2612-63.271 13.84-63.271 13.84-86.669 40.533-146.32 88.646-146.32 88.646l-15.158 5.2734c-34.272-1.6477-42.51 1.6465-42.51 1.6465-191.05 11.271-243.34 44.613-243.34 44.613-7.6617 14.657-4.1816 20.744-4.1816 20.744-9.5663 22.611-11.742 33.482-11.742 33.482-10.001 6.9573-5.6523 22.178-5.6523 22.178l1.7402 52.178c-8.8844 19.525 8.6749 39.994 27.395 41.311 15.219 1.7393 31.307 6.5215 31.307 6.5215 23.481 9.1314 29.135 7.8281 29.135 7.8281 6.666-1.809 4.3477-10.438 4.3477-10.438 0-55.223 26.959-79.139 26.959-79.139 32.395-34.134 84.357-31.742 84.357-31.742 60.007-2.1742 86.096 29.133 86.096 29.133 23.916 27.394 33.047 80.01 33.047 80.01 1.3827 5.719 3.4746 9.2129 3.4746 9.2129 8.0082 6.8642 35.85 2.0996 35.85 2.0996 45.056-0.97172 153.87-2.2891 153.87-2.2891 271.14 4.0041 300.88 6.8652 300.88 6.8652 33.177 2.2881 44.617 2.8594 44.617 2.8594 8.0082 0.57201 24.025-2.2871 24.025-2.2871l-34.893-4.0059c15.774-87.82 21.685-162 17.758-165.93 9.6294-82.647 0.75586-126.94 0.75586-126.94-2.7892-11.173-6.8164-24.91-6.8164-24.91-9.175-16.317-29.217-19.451-29.217-19.451-61.727-7.2293-118.76-8.7245-156.85-8.6484zm-25.596 19.863 143.01 5.623s17.942 8.33e-4 21.156 12.32c0 0 4.2866 47.671-6.1582 75.256 0 0-4.0187 13.391-33.746 17.943l-134.17 4.5527s-5.3577 0.80304-7.2324-6.1602l7.7676-103.38s0.80299-6.1602 9.373-6.1602zm-48.021 1.4883c2.3092-0.0093 3.5742 2e-3 3.5742 2e-3 6.8838 2.123 4.7461 7.4941 4.7461 7.4941l-14.738 96.67c-0.2498 10.741-6.0527 10.648-6.0527 10.648-199.89 4.2429-212.63 2.4961-212.63 2.4961-63.664-0.83834 12.163-52.25 30.088-64.602 35.721-24.48 68.445-38.219 68.445-38.219 43.059-13.333 110.41-14.425 126.57-14.49z" fill="#747570" stroke="#4d4d4d" stroke-width="2.2561"/>
   <path d="m325.3 920.86s-8.9322-70.522-49.5-95.658c0 0-64.916-41.248-143.67 4.5122 0 0-42.803 32.967-36.704 102.92 139.7 11.083 229.87-11.773 229.87-11.773z" stroke="#000" stroke-width="2.2561"/>
   <path d="m347.17 873.69c8.1527-9.0017 20.111-8.3814 20.111-8.3814 6.2526-2.3699 29.861-8.5286 29.861-8.5286l218.61 0.15813c-0.40559 9.3286 0.8112 19.468 0.8112 19.468l-259.58-0.40559c-4.0559 0-9.8122-2.311-9.8122-2.311z" fill="#babbb6" filter="url(#cr)" opacity=".71"/>
   <path d="m878.54 727.24 390.19 3.2734c10.153 0.65468 12.11 7.3655 12.11 7.3655l-403.21-1.0792z" stroke="#333" stroke-width="2.2561"/>
   <g transform="translate(-69.535 653.49)" fill-rule="evenodd" shape-rendering="auto" stroke="#000" stroke-width="1px">
    <path d="m1164.5 298.39 70.588-13.235h29.412l5.8823 5.8824 25-1.4706 7.353-1.4706 11.765-2.9412 2.9411 5.8824h5.8824l1.4706 10.294 7.3529-5.8824-4.4117-4.4118h4.4117l-2.9411-11.765h17.647l5.8824 16.176c16.138 6.9062 22.09 1.5899 27.135-4.8146 6.4266-10.469 3.8288-16.426 1.4706-22.502l-10.959 2.3167s1.3805 12.193-2.9412 14.706c-2.2873 1.3298-7.5342-2.498-7.5342-2.498l-2.3166-15.109-10.737-2.9815v5.8824l-19.118-5.8824 5.2578-2.0548 53.566-2.357c7.5645-3.9216 5.9312-7.8431 0-11.765l-17.426 0.18128 2.76-18.231c1.9523-12.896-20.063-21.788-25.04 0.40289v4.4118l7.353 5.8824v4.4118l-230.88 8.8235z" color="#000000" color-rendering="auto" filter="url(#cu)" image-rendering="auto" solid-color="#000000" style="isolation:auto;mix-blend-mode:normal"/>
    <path d="m1178.6 278.18 10.153 70.226h5.0766l-8.461-69.38z" color="#000000" color-rendering="auto" filter="url(#cv)" image-rendering="auto" solid-color="#000000" style="isolation:auto;mix-blend-mode:normal"/>
   </g>
   <path d="m875.64 736.58c-5.6316 37.506-19.814 199.76-19.814 199.76l32.99 3.1926c9.6046-78.146 45.229-95.246 45.229-95.246 78.751-45.761 143.67-4.5123 143.67-4.5123 40.567 25.136 38.843 90.97 38.843 90.97 2.4831 10.642 11.174 7.7246 11.174 7.7246l25.541-11.706c102.66-13.138 104.05-14.066 104.05-14.066 15.699-7.2807 26.075-43.413 27.353-61.66 9.2723-60.269-5.0997-113.12-5.0997-113.12z" fill="#747570" stroke="#4d4d4d" stroke-width="2.2561"/>
   <path d="m1117.9 930.97s1.724-65.833-38.843-90.97c0 0-64.916-41.248-143.67 4.5122 0 0-35.624 17.101-45.229 95.246 210.88-2.1307 227.74-8.7888 227.74-8.7888z" stroke="#000" stroke-width="2.2561"/>
   <path d="m1153.6 926.22-25.541 11.706s-8.6911 2.9177-11.174-7.7246c0 0 1.724-65.833-38.843-90.97 0 0-64.916-41.248-143.67 4.5122 0 0-35.624 17.101-45.229 95.246l-31.407 1.5558c7.7938-35.725 12.672-71.786 12.672-71.786 8.4496-37.775 39.763-56.165 39.763-56.165 53.139-42.419 167.1-46.193 213.23 14.911 26.248 37.466 30.197 98.714 30.197 98.714z" fill="#747570" stroke="#4d4d4d" stroke-width="2.2561"/>
   <path d="m1283.7 854.39c-25.662 2.8946-31.601 5.5957-22.052-34.915l8.5756-38.59c6.738-17.151 14.701-18.989 14.701-18.989 7.3504 5.2066 5.8191 28.789 5.8191 28.789 0 2.7564-2.7564 6.738-2.7564 6.738 0.3062 7.0442 2.4501 8.5756 2.4501 8.5756 0.3063 35.221-2.7564 40.121-2.7564 40.121z" fill="#800000" stroke="#4d4d4d" stroke-width="1.6921"/>
   <path d="m1143.8 855.31c10.107-9.1881 17.151-8.8818 17.151-8.8818l46.553-3.0627c26.033-4.2878 32.771-15.007 32.771-15.007 19.601-42.878 19.601-45.941 19.601-45.941 2.144-5.2066 8.882 4.2878 8.882 4.2878l-9.8008 30.627c-10.72 35.221-17.457 34.915-17.457 34.915-17.764 15.007-98.007 16.845-98.007 16.845-2.4501-7.3505-4.9003-11.945-4.9003-11.945z" fill="url(#dp)" filter="url(#cm)" opacity=".424"/>
   <path d="m631.23 603.79c-130.84 0.66714-158.43 18.76-158.43 18.76-117.63 55.292-125.9 91.585-125.9 91.585-11.802 39.582-10.185 120.02-10.185 120.02-0.80842 83.267 27.082 78.417 27.082 78.417l258.69 1.8198c-11.682-121.96-6.0519-161.37-6.0519-161.37 14.478-139.95 14.798-149.23 14.798-149.23z" fill="none" stroke="#4d4d4d" stroke-width="2.2561"/>
   <path d="m612.53 611.26c6.1597 3.2138 3.7494 8.5701 3.7494 8.5701l-15.265 100.97c1.6069 5.0885 17.676 3.2138 17.676 3.2138l12.319-114.36z" fill="#696969" stroke="#000" stroke-width="1.1281px"/>
   <path d="m630.48 609.92 16.604 0.26781-9.1057 113.02-18.211 0.53563z" fill="#696969" stroke="#000" stroke-width="1.1281px"/>
   <path transform="translate(-.0063024 -.001092)" d="m358.55 694.29c-5.9924 60.896-44.754 87.691 0 90.126 52.072 2.8341 149.01-4.8717 198.62-2.4358 49.611 2.4358 146.04-2.4359 203.09-2.4359s96.966 26.794 104.41 2.4358c7.4417-24.358 2.3911-153.46-0.0895-175.38-2.4806-21.923-7.4417-17.051-24.806-17.051-17.364 0-66.975-2.4358-49.611 7.3075 17.364 9.7434 49.744 83.128 14.883 97.434-32.802 13.461-51.793 12.412-168.68 19.487-18.315 1.1085 17.188-103.06 2.4806-102.31-12.386 0.63524-24.806-19.487-29.767 19.487-4.9611 38.974 19.72 93.801-17.489 98.672s-242.14 14.208-237.76-0.0159l14.634-47.504 104.18-70.64c-83.316 40.31-76.156 55.236-114.11 82.819z" color="#000000" color-rendering="auto" fill="url(#cj)" fill-rule="evenodd" filter="url(#db)" image-rendering="auto" shape-rendering="auto" solid-color="#000000" style="isolation:auto;mix-blend-mode:normal"/>
   <path d="m848.39 767.27s-6.0632 77.608-21.827 122.07c0 0-2.021 29.507-37.996 27.082l-166.1-1.6809c-11.436-121.76-5.8061-161.17-5.8061-161.17 14.478-139.95 14.798-149.8 14.798-149.8 143.86 2.2664 153.28 3.2584 153.28 3.2584 30.678 2.4049 41.212 3.1114 41.212 3.1114 21.546 6.6643 19.868 23.461 19.868 23.461 6.8556 45.951 2.5642 133.67 2.5642 133.67z" fill="none" stroke="#4d4d4d" stroke-width="2.2561"/>
   <ellipse cx="804.39" cy="760.39" rx="14.462" ry="13.996" fill="url(#bz)" stroke="#4d4d4d" stroke-opacity=".99608" stroke-width="1.6921"/>
   <ellipse cx="576.26" cy="761.79" rx="14.462" ry="13.996" fill="url(#dy)" stroke="#4d4d4d" stroke-opacity=".99608" stroke-width="1.6921"/>
   <path d="m552.44 757.55c-7.4537 2.5801 0.90979 7.0798 0.90979 7.0798 23.97 2.921 41.418 1.7994 41.418 1.7994l-0.12463-9.8452c-36.639-0.99699-42.203 0.96603-42.203 0.96603z" fill="#ccc" stroke="#4d4d4d" stroke-width="2.2561"/>
   <path d="m594.72 756.34 0.18862 9.997c19.607 3e-3 16.026-10.04-0.18862-9.997z" fill="#f5f5f5" opacity=".667" stroke="#4d4d4d" stroke-width="2.2561"/>
   <path d="m780.26 756.28c-7.4537 2.5801 0.90978 7.0798 0.90978 7.0798 23.97 2.921 41.418 1.7994 41.418 1.7994l-0.12463-9.8452c-36.639-0.99699-42.203 0.96603-42.203 0.96603z" fill="#b3b3b3" stroke="#4d4d4d" stroke-width="2.2561"/>
   <path d="m822.54 755.07 0.18863 9.997c19.607 3e-3 16.026-10.04-0.18863-9.997z" fill="#f5f5f5" opacity=".663" stroke="#4d4d4d" stroke-width="2.2561"/>
   <path d="m619.8 856.94c0.40559 10.951 1.2168 19.063 1.2168 19.063l207.66 1.6224c12.197-20.868 39.971-8.8408 7.1375-18.97z" fill="#babbb6" filter="url(#cs)" opacity=".71"/>
   <path d="m595.82 726.36c-199.89 4.2429-212.63 2.4957-212.63 2.4957-63.664-0.8384 12.165-52.249 30.09-64.601 35.721-24.48 68.444-38.219 68.444-38.219 49.21-15.238 130.14-14.488 130.14-14.488 6.8838 2.123 4.7462 7.4939 4.7462 7.4939l-14.738 96.672c-0.2498 10.741-6.0534 10.647-6.0534 10.647z" fill="none" stroke="#333" stroke-width="4.528"/>
   <path d="m371.96 705.72c-8.7591-6.7037-7.9141 13.341-7.9141 11.08 0-1.0552 1.0552-3.1656 0-3.1656-2.368 0-4.9167 7.7458-3.1656 9.4969 2.8812 2.8812 8.9731 5.8075 12.663 9.4969 1.5612 1.5612 2.0121 5.1778 3.1656 6.3313 4.9071 4.9071 20.577 3.261 20.577 7.9141 0 2.6958 0.14524-6.2586 0-6.3313-2.6082-1.3041-4.4498-1.2842-6.3313-3.1656-0.74614-0.74615-0.4719-2.2218 0-3.1656 0.9753-1.9506 3.7732 3.5334 4.7485 1.5828 0.70786-1.4157-1.5828-4.7485 0-4.7485 3.1656 0-7.2585 2.2384-9.4969 0-0.74615-0.74615 0.74614-2.4195 0-3.1656-2.5407-2.5407-6.4446 2.939-7.9141 0-0.94381-1.8876 1.8876-5.3875 0-6.3313-9.0515-4.5257-6.3313-1.1702-6.3313-15.828z" fill="url(#dx)" fill-rule="evenodd"/>
   <g transform="matrix(.18715 -1.1124 1.1124 .18715 -393.36 976.85)">
    <path d="m337.97 648.38-3.5973-6.1154c-0.31843-14.409 11.382-30.353 31.178-27.573 8.0551 1.7953 8.9576 25.588 5.5585 29.423-2.966 2.0169-7.1185 2.1356-7.1185 2.1356z" fill="#696969" stroke="#4d4d4d" stroke-width="1px"/>
    <path d="m337.97 639.96-3.5973-4.6015c-0.31843-10.842 11.382-22.839 31.178-20.747 8.0551 1.3508 8.9576 19.254 5.5585 22.139-2.966 1.5176-7.1185 1.6069-7.1185 1.6069z" fill="url(#ci)" opacity=".576"/>
    <path d="m334.33 642.22c24.322-7.1185 38.321-2.6101 38.321-2.6101" fill="#696969" stroke="#4d4d4d" stroke-width="1px"/>
   </g>
   <path d="m39.793 743.86c-2.8824 9.1713 8.6472 8.3852 8.6472 8.3852-16.246 6.813-30.396 49.263-30.396 49.263l-10.219 3.6685 11.268-32.755c-1.6596-13.767 4.7167-20.963 4.7167-20.963 5.7542-3.4532 15.984-7.5991 15.984-7.5991z" fill="#4d4d4d" stroke="#4d4d4d" stroke-width="1.1281px"/>
   <path d="m366.26 935.21s-27.843 4.7657-35.851-2.0985c0 0-2.0906-3.495-3.4734-9.214 0 0-9.1314-52.614-33.047-80.009 0 0-26.09-31.308-86.096-29.134 0 0-51.962-2.3916-84.357 31.743 0 0-26.959 23.916-26.959 79.139 0 0 2.3177 8.6269-4.3483 10.436 0 0-5.6528 1.3045-29.134-7.8269-7.7818-29.094 4.7915-66.39 4.7915-66.39 13.804-48.785 62.232-67.773 62.232-67.773 46.027-25.558 99.316-17.902 99.316-17.902 57.97 3.8362 76.298 20.034 76.298 20.034 27.401 17.723 28.559 31.542 28.559 31.542 0 45.609 5.5412 61.38 5.5412 61.38 4.9116 24.922 23.444 23.87 23.444 23.87z" fill="#747570" stroke="#4d4d4d" stroke-width="2.2561"/>
   <path d="m18.044 800.99c5.4531-16.284 18.231-46.193 32.755-49.263 26.466-1.3102 60.269 0.52407 60.269 0.52407 24.894-1.5722 7.075 13.626 7.075 13.626-28.562 21.225-32.493 24.632-32.493 24.632-14.75 8.5159-19.391 7.5991-19.391 7.5991z" fill="#606569" opacity=".522" stroke="#000" stroke-width="1.1281px"/>
   <path d="m297.53 709.68c-18.329 8.0987-48.166 8.9512-48.166 8.9512-140.24 14.066-179.88 33.247-179.88 33.247" fill="none" stroke="#4d4d4d" stroke-width="2.2561"/>
   <path d="m289.34 705.23c0.85249 9.8037 57.97 9.3775 57.97 9.3775" fill="none" stroke="#4d4d4d" stroke-width="2.2561"/>
   <g transform="translate(-285.95 628.87)">
    <circle cx="1295.5" cy="324.35" r="98.084" stroke="#1a1a1a" stroke-opacity=".99608" stroke-width="2.2561"/>
    <circle cx="1294.9" cy="324.22" r="68.547" fill="url(#bu)" filter="url(#bs)" opacity=".159"/>
    <circle cx="1294.9" cy="323.69" r="59.014" fill="#898e92" stroke="#696969" stroke-opacity=".99608" stroke-width="2.2561"/>
    <circle cx="1294.9" cy="323.69" r="53.362"/>
    <circle cx="1294.9" cy="323.69" r="24.563" fill="#92959a"/>
    <g transform="translate(219.6 14.259)" fill="#808080" fill-rule="evenodd" filter="url(#an)" shape-rendering="auto">
     <path d="m1025.2 333.96 97.916-54.456-5.2361-5.7598-96.869 54.456z" color="#000000" color-rendering="auto" image-rendering="auto" solid-color="#000000" style="isolation:auto;mix-blend-mode:normal"/>
     <path d="m1035.7 348.62 97.916-54.456-5.2361-5.7598-96.869 54.456z" color="#000000" color-rendering="auto" image-rendering="auto" solid-color="#000000" style="isolation:auto;mix-blend-mode:normal"/>
     <g transform="matrix(.53566 .84443 -.84443 .53566 763.02 -765.24)">
      <path d="m1025.2 333.96 97.916-54.456-5.2361-5.7598-96.869 54.456z" color="#000000" color-rendering="auto" image-rendering="auto" solid-color="#000000" style="isolation:auto;mix-blend-mode:normal"/>
      <path d="m1035.7 348.62 97.916-54.456-5.2361-5.7598-96.869 54.456z" color="#000000" color-rendering="auto" image-rendering="auto" solid-color="#000000" style="isolation:auto;mix-blend-mode:normal"/>
     </g>
     <g transform="matrix(-.50119 .86534 -.86534 -.50119 1886.4 -464.86)">
      <path d="m1025.2 333.96 97.916-54.456-5.2361-5.7598-96.869 54.456z" color="#000000" color-rendering="auto" image-rendering="auto" solid-color="#000000" style="isolation:auto;mix-blend-mode:normal"/>
      <path d="m1035.7 348.62 97.916-54.456-5.2361-5.7598-96.869 54.456z" color="#000000" color-rendering="auto" image-rendering="auto" solid-color="#000000" style="isolation:auto;mix-blend-mode:normal"/>
     </g>
    </g>
    <g transform="translate(217.6 12.259)" fill="#898e92" fill-rule="evenodd" shape-rendering="auto">
     <path d="m1025.2 333.96 97.916-54.456-5.2361-5.7598-96.869 54.456z" color="#000000" color-rendering="auto" image-rendering="auto" solid-color="#000000" style="isolation:auto;mix-blend-mode:normal"/>
     <path d="m1035.7 348.62 97.916-54.456-5.2361-5.7598-96.869 54.456z" color="#000000" color-rendering="auto" image-rendering="auto" solid-color="#000000" style="isolation:auto;mix-blend-mode:normal"/>
     <g transform="matrix(.53566 .84443 -.84443 .53566 763.02 -765.24)">
      <path d="m1025.2 333.96 97.916-54.456-5.2361-5.7598-96.869 54.456z" color="#000000" color-rendering="auto" image-rendering="auto" solid-color="#000000" style="isolation:auto;mix-blend-mode:normal"/>
      <path d="m1035.7 348.62 97.916-54.456-5.2361-5.7598-96.869 54.456z" color="#000000" color-rendering="auto" image-rendering="auto" solid-color="#000000" style="isolation:auto;mix-blend-mode:normal"/>
     </g>
     <g transform="matrix(-.50119 .86534 -.86534 -.50119 1886.4 -464.86)">
      <path d="m1025.2 333.96 97.916-54.456-5.2361-5.7598-96.869 54.456z" color="#000000" color-rendering="auto" image-rendering="auto" solid-color="#000000" style="isolation:auto;mix-blend-mode:normal"/>
      <path d="m1035.7 348.62 97.916-54.456-5.2361-5.7598-96.869 54.456z" color="#000000" color-rendering="auto" image-rendering="auto" solid-color="#000000" style="isolation:auto;mix-blend-mode:normal"/>
     </g>
    </g>
    <g transform="translate(217.6 12.259)" fill="url(#by)" fill-rule="evenodd" shape-rendering="auto">
     <path d="m1025.2 333.96 97.916-54.456-5.2361-5.7598-96.869 54.456z" color="#000000" color-rendering="auto" image-rendering="auto" solid-color="#000000" style="isolation:auto;mix-blend-mode:normal"/>
     <path d="m1035.7 348.62 97.916-54.456-5.2361-5.7598-96.869 54.456z" color="#000000" color-rendering="auto" image-rendering="auto" solid-color="#000000" style="isolation:auto;mix-blend-mode:normal"/>
     <g transform="matrix(.53566 .84443 -.84443 .53566 763.02 -765.24)">
      <path d="m1025.2 333.96 97.916-54.456-5.2361-5.7598-96.869 54.456z" color="#000000" color-rendering="auto" image-rendering="auto" solid-color="#000000" style="isolation:auto;mix-blend-mode:normal"/>
      <path d="m1035.7 348.62 97.916-54.456-5.2361-5.7598-96.869 54.456z" color="#000000" color-rendering="auto" image-rendering="auto" solid-color="#000000" style="isolation:auto;mix-blend-mode:normal"/>
     </g>
     <g transform="matrix(-.50119 .86534 -.86534 -.50119 1886.4 -464.86)">
      <path d="m1025.2 333.96 97.916-54.456-5.2361-5.7598-96.869 54.456z" color="#000000" color-rendering="auto" image-rendering="auto" solid-color="#000000" style="isolation:auto;mix-blend-mode:normal"/>
      <path d="m1035.7 348.62 97.916-54.456-5.2361-5.7598-96.869 54.456z" color="#000000" color-rendering="auto" image-rendering="auto" solid-color="#000000" style="isolation:auto;mix-blend-mode:normal"/>
     </g>
    </g>
    <g transform="translate(218.35 13.614)" fill="#4d4d4d" filter="url(#am)" opacity=".862">
     <g fill="#4d4d4d" fill-rule="evenodd">
      <path d="m1072.9 297.83c0.6857-2.4723-5.2016-4.7817-4.1889-6.807 0.1561-0.31222 0.6981 0 1.0472 0 0.4614 0 1.5709-1.2724 1.5709-1.0472 0 1.8206 1.2372 1.7608 2.618 3.1417 0.276 0.27597 0.3491 1.3963 0.5236 1.0472 0.6324-1.2647 5.0721-4.271 5.2362-4.1889 0.2776 0.13879 1.9104 5.0521 3.6653 6.807 0.5236 0.52361 2.0944 0 2.6181 0.52361 0.7854 0.78542 1.309 1.8326 2.0944 2.6181 1.3632 1.3632 4.0355-0.33854 5.7598 0.52362 5.5056 2.7528-3.1417 4.7671-3.1417 5.2361 0 0.96637 0.6662 4.0463 0 4.7125-1.1962 1.1962-1.1103 0.52361-1.0472 0.52361 1.0177 0 0.6605 2.1629 1.5708 2.6181 2.1613 1.0806 5.2361-0.34575 5.2361 3.1417 0 0.34907 0.3123 0.89111 0 1.0472-0.9913 0.49566-3.7498-0.96267-5.2361 0.52361-0.2618 0.26181 0.2618 1.309 0 1.5708-1.7485 1.7485 0.7386 4.605-1.5708 5.7598-1.4167 0.70833-3.7605-5.141-5.2362-3.6653-1.3816 1.3816-5.0566 0.35907-3.6653 3.1417 0.1294 0.25872 1.638 4.7125 1.0472 4.7125-2.6792 0-2.8334-1.8939-3.6653-3.1417-0.3061-0.45924-1.324-0.0299-1.5708-0.52362-0.1561-0.31222 0.2468-0.80039 0-1.0472-0.2468-0.24684-0.7568 0.19363-1.0472 0-0.4593-0.30616-0.03-1.324-0.5236-1.5708-4.4235-2.2117-1.199 8.7497-4.189 5.7598-2.3601-2.3601 0.346-7.5082-0.5236-8.3778-2.1679-2.1679-1.815 1.9548-2.0944 2.0945-1.3551 0.67756-6.4161 1.9617-6.807 1.5708-1.0604-1.0603 1.3694-3.7861 1.5708-4.1889 0.1397-0.27926 1.9549 0.27926 2.0945 0 0.1561-0.31223-0.3491-1.0472 0-1.0472s0 1.3963 0 1.0472v-2.0945c0-0.37843-2.5145-1.9909-3.1417-2.6181-0.2276-0.22755-3.1417 0.15021-3.1417 0 0-0.91569-0.2412-6.0421 0-6.2834 0.9846-0.9846 0.594-2.2352 1.0472-3.1417 0.1562-0.31222 0.8912 0.31223 1.0473 0 0.7863-1.5726 1.3958-3.6653 1.5708-3.6653 0.3491 0 0.8004 0.24684 1.0472 0 0.3491-0.34907-0.349-1.7454 0-2.0944 0.4469-0.4469 2.0945-1.0705 2.0945-1.0472 0 0.63253-0.335-1.7595 0-2.0945 1.2-1.2-0.089 1.226 1.0472-1.0472 0.216-0.43197 5.0505 0.74889 6.2834 1.5708z"/>
      <path d="m1062.9 302.55c-2.0581-0.64069-6.0682-4.9277-6.807-4.1889-1.8208 1.8208 1.8446 5.7836 2.0945 6.2834 0.2518 0.50354-0.5795-0.57949 1.0472 1.0472 0.276 0.27597 1.3232 0.24764 1.0473 0.52361-1.0182 1.0181 1.1458-2.1931 2.618-3.6653z"/>
     </g>
    </g>
    <path d="m1310.6 323.69a15.662 15.662 0 0 1 -15.662 15.662 15.662 15.662 0 0 1 -15.662 -15.662 15.662 15.662 0 0 1 15.662 -15.662 15.662 15.662 0 0 1 15.662 15.662z" fill="#5b5e63"/>
    <circle cx="1294.9" cy="323.69" r="10.687" fill="#9fa2a7"/>
    <ellipse cx="1294.9" cy="323.69" rx="12.258" ry="10.687" fill="url(#bv)" opacity=".576"/>
    <path d="m1296.2 240.24c-45.836-6.9e-4 -82.994 37.156-82.994 82.992-7e-4 45.837 37.157 82.995 82.994 82.994 45.836-3.6e-4 82.993-37.158 82.992-82.994-4e-4 -45.835-37.157-82.992-82.992-82.992zm1.0469 8.9023c41.064-1.5e-4 76.971 32.241 76.972 73.304 1e-4 41.064-35.907 75.401-76.972 75.401-41.064 2.1e-4 -78.543-35.384-78.542-76.448 9e-4 -41.064 37.479-72.257 78.542-72.257z" fill="url(#bw)" filter="url(#br)" opacity=".101"/>
    <ellipse transform="matrix(-1 0 0 1 228.45 13.09)" cx="-1076.6" cy="311.38" rx="72.706" ry="74.542" fill="none" filter="url(#bt)" opacity=".377" stroke="url(#bx)" stroke-linecap="round" stroke-linejoin="round" stroke-width=".538"/>
   </g>
   <g transform="translate(-1079.1 631.4)">
    <circle cx="1295.5" cy="324.35" r="98.084" stroke="#1a1a1a" stroke-opacity=".99608" stroke-width="2.2561"/>
    <circle cx="1294.9" cy="324.22" r="68.547" fill="url(#bu)" filter="url(#bs)" opacity=".159"/>
    <circle cx="1294.9" cy="323.69" r="59.014" fill="#898e92" stroke="#696969" stroke-opacity=".99608" stroke-width="2.2561"/>
    <circle cx="1294.9" cy="323.69" r="53.362"/>
    <circle cx="1294.9" cy="323.69" r="24.563" fill="#92959a"/>
    <g transform="translate(219.6 14.259)" fill="#808080" fill-rule="evenodd" filter="url(#an)" shape-rendering="auto">
     <path d="m1025.2 333.96 97.916-54.456-5.2361-5.7598-96.869 54.456z" color="#000000" color-rendering="auto" image-rendering="auto" solid-color="#000000" style="isolation:auto;mix-blend-mode:normal"/>
     <path d="m1035.7 348.62 97.916-54.456-5.2361-5.7598-96.869 54.456z" color="#000000" color-rendering="auto" image-rendering="auto" solid-color="#000000" style="isolation:auto;mix-blend-mode:normal"/>
     <g transform="matrix(.53566 .84443 -.84443 .53566 763.02 -765.24)">
      <path d="m1025.2 333.96 97.916-54.456-5.2361-5.7598-96.869 54.456z" color="#000000" color-rendering="auto" image-rendering="auto" solid-color="#000000" style="isolation:auto;mix-blend-mode:normal"/>
      <path d="m1035.7 348.62 97.916-54.456-5.2361-5.7598-96.869 54.456z" color="#000000" color-rendering="auto" image-rendering="auto" solid-color="#000000" style="isolation:auto;mix-blend-mode:normal"/>
     </g>
     <g transform="matrix(-.50119 .86534 -.86534 -.50119 1886.4 -464.86)">
      <path d="m1025.2 333.96 97.916-54.456-5.2361-5.7598-96.869 54.456z" color="#000000" color-rendering="auto" image-rendering="auto" solid-color="#000000" style="isolation:auto;mix-blend-mode:normal"/>
      <path d="m1035.7 348.62 97.916-54.456-5.2361-5.7598-96.869 54.456z" color="#000000" color-rendering="auto" image-rendering="auto" solid-color="#000000" style="isolation:auto;mix-blend-mode:normal"/>
     </g>
    </g>
    <g transform="translate(217.6 12.259)" fill="#898e92" fill-rule="evenodd" shape-rendering="auto">
     <path d="m1025.2 333.96 97.916-54.456-5.2361-5.7598-96.869 54.456z" color="#000000" color-rendering="auto" image-rendering="auto" solid-color="#000000" style="isolation:auto;mix-blend-mode:normal"/>
     <path d="m1035.7 348.62 97.916-54.456-5.2361-5.7598-96.869 54.456z" color="#000000" color-rendering="auto" image-rendering="auto" solid-color="#000000" style="isolation:auto;mix-blend-mode:normal"/>
     <g transform="matrix(.53566 .84443 -.84443 .53566 763.02 -765.24)">
      <path d="m1025.2 333.96 97.916-54.456-5.2361-5.7598-96.869 54.456z" color="#000000" color-rendering="auto" image-rendering="auto" solid-color="#000000" style="isolation:auto;mix-blend-mode:normal"/>
      <path d="m1035.7 348.62 97.916-54.456-5.2361-5.7598-96.869 54.456z" color="#000000" color-rendering="auto" image-rendering="auto" solid-color="#000000" style="isolation:auto;mix-blend-mode:normal"/>
     </g>
     <g transform="matrix(-.50119 .86534 -.86534 -.50119 1886.4 -464.86)">
      <path d="m1025.2 333.96 97.916-54.456-5.2361-5.7598-96.869 54.456z" color="#000000" color-rendering="auto" image-rendering="auto" solid-color="#000000" style="isolation:auto;mix-blend-mode:normal"/>
      <path d="m1035.7 348.62 97.916-54.456-5.2361-5.7598-96.869 54.456z" color="#000000" color-rendering="auto" image-rendering="auto" solid-color="#000000" style="isolation:auto;mix-blend-mode:normal"/>
     </g>
    </g>
    <g transform="translate(217.6 12.259)" fill="url(#by)" fill-rule="evenodd" shape-rendering="auto">
     <path d="m1025.2 333.96 97.916-54.456-5.2361-5.7598-96.869 54.456z" color="#000000" color-rendering="auto" image-rendering="auto" solid-color="#000000" style="isolation:auto;mix-blend-mode:normal"/>
     <path d="m1035.7 348.62 97.916-54.456-5.2361-5.7598-96.869 54.456z" color="#000000" color-rendering="auto" image-rendering="auto" solid-color="#000000" style="isolation:auto;mix-blend-mode:normal"/>
     <g transform="matrix(.53566 .84443 -.84443 .53566 763.02 -765.24)">
      <path d="m1025.2 333.96 97.916-54.456-5.2361-5.7598-96.869 54.456z" color="#000000" color-rendering="auto" image-rendering="auto" solid-color="#000000" style="isolation:auto;mix-blend-mode:normal"/>
      <path d="m1035.7 348.62 97.916-54.456-5.2361-5.7598-96.869 54.456z" color="#000000" color-rendering="auto" image-rendering="auto" solid-color="#000000" style="isolation:auto;mix-blend-mode:normal"/>
     </g>
     <g transform="matrix(-.50119 .86534 -.86534 -.50119 1886.4 -464.86)">
      <path d="m1025.2 333.96 97.916-54.456-5.2361-5.7598-96.869 54.456z" color="#000000" color-rendering="auto" image-rendering="auto" solid-color="#000000" style="isolation:auto;mix-blend-mode:normal"/>
      <path d="m1035.7 348.62 97.916-54.456-5.2361-5.7598-96.869 54.456z" color="#000000" color-rendering="auto" image-rendering="auto" solid-color="#000000" style="isolation:auto;mix-blend-mode:normal"/>
     </g>
    </g>
    <g transform="translate(218.35 13.614)" fill="#4d4d4d" filter="url(#am)" opacity=".862">
     <g fill="#4d4d4d" fill-rule="evenodd">
      <path d="m1072.9 297.83c0.6857-2.4723-5.2016-4.7817-4.1889-6.807 0.1561-0.31222 0.6981 0 1.0472 0 0.4614 0 1.5709-1.2724 1.5709-1.0472 0 1.8206 1.2372 1.7608 2.618 3.1417 0.276 0.27597 0.3491 1.3963 0.5236 1.0472 0.6324-1.2647 5.0721-4.271 5.2362-4.1889 0.2776 0.13879 1.9104 5.0521 3.6653 6.807 0.5236 0.52361 2.0944 0 2.6181 0.52361 0.7854 0.78542 1.309 1.8326 2.0944 2.6181 1.3632 1.3632 4.0355-0.33854 5.7598 0.52362 5.5056 2.7528-3.1417 4.7671-3.1417 5.2361 0 0.96637 0.6662 4.0463 0 4.7125-1.1962 1.1962-1.1103 0.52361-1.0472 0.52361 1.0177 0 0.6605 2.1629 1.5708 2.6181 2.1613 1.0806 5.2361-0.34575 5.2361 3.1417 0 0.34907 0.3123 0.89111 0 1.0472-0.9913 0.49566-3.7498-0.96267-5.2361 0.52361-0.2618 0.26181 0.2618 1.309 0 1.5708-1.7485 1.7485 0.7386 4.605-1.5708 5.7598-1.4167 0.70833-3.7605-5.141-5.2362-3.6653-1.3816 1.3816-5.0566 0.35907-3.6653 3.1417 0.1294 0.25872 1.638 4.7125 1.0472 4.7125-2.6792 0-2.8334-1.8939-3.6653-3.1417-0.3061-0.45924-1.324-0.0299-1.5708-0.52362-0.1561-0.31222 0.2468-0.80039 0-1.0472-0.2468-0.24684-0.7568 0.19363-1.0472 0-0.4593-0.30616-0.03-1.324-0.5236-1.5708-4.4235-2.2117-1.199 8.7497-4.189 5.7598-2.3601-2.3601 0.346-7.5082-0.5236-8.3778-2.1679-2.1679-1.815 1.9548-2.0944 2.0945-1.3551 0.67756-6.4161 1.9617-6.807 1.5708-1.0604-1.0603 1.3694-3.7861 1.5708-4.1889 0.1397-0.27926 1.9549 0.27926 2.0945 0 0.1561-0.31223-0.3491-1.0472 0-1.0472s0 1.3963 0 1.0472v-2.0945c0-0.37843-2.5145-1.9909-3.1417-2.6181-0.2276-0.22755-3.1417 0.15021-3.1417 0 0-0.91569-0.2412-6.0421 0-6.2834 0.9846-0.9846 0.594-2.2352 1.0472-3.1417 0.1562-0.31222 0.8912 0.31223 1.0473 0 0.7863-1.5726 1.3958-3.6653 1.5708-3.6653 0.3491 0 0.8004 0.24684 1.0472 0 0.3491-0.34907-0.349-1.7454 0-2.0944 0.4469-0.4469 2.0945-1.0705 2.0945-1.0472 0 0.63253-0.335-1.7595 0-2.0945 1.2-1.2-0.089 1.226 1.0472-1.0472 0.216-0.43197 5.0505 0.74889 6.2834 1.5708z"/>
      <path d="m1062.9 302.55c-2.0581-0.64069-6.0682-4.9277-6.807-4.1889-1.8208 1.8208 1.8446 5.7836 2.0945 6.2834 0.2518 0.50354-0.5795-0.57949 1.0472 1.0472 0.276 0.27597 1.3232 0.24764 1.0473 0.52361-1.0182 1.0181 1.1458-2.1931 2.618-3.6653z"/>
     </g>
    </g>
    <path d="m1310.6 323.69a15.662 15.662 0 0 1 -15.662 15.662 15.662 15.662 0 0 1 -15.662 -15.662 15.662 15.662 0 0 1 15.662 -15.662 15.662 15.662 0 0 1 15.662 15.662z" fill="#5b5e63"/>
    <circle cx="1294.9" cy="323.69" r="10.687" fill="#9fa2a7"/>
    <ellipse cx="1294.9" cy="323.69" rx="12.258" ry="10.687" fill="url(#bv)" opacity=".576"/>
    <path d="m1296.2 240.24c-45.836-6.9e-4 -82.994 37.156-82.994 82.992-7e-4 45.837 37.157 82.995 82.994 82.994 45.836-3.6e-4 82.993-37.158 82.992-82.994-4e-4 -45.835-37.157-82.992-82.992-82.992zm1.0469 8.9023c41.064-1.5e-4 76.971 32.241 76.972 73.304 1e-4 41.064-35.907 75.401-76.972 75.401-41.064 2.1e-4 -78.543-35.384-78.542-76.448 9e-4 -41.064 37.479-72.257 78.542-72.257z" fill="url(#bw)" filter="url(#br)" opacity=".101"/>
    <ellipse transform="matrix(-1 0 0 1 228.45 13.09)" cx="-1076.6" cy="311.38" rx="72.706" ry="74.542" fill="none" filter="url(#bt)" opacity=".377" stroke="url(#bx)" stroke-linecap="round" stroke-linejoin="round" stroke-width=".538"/>
   </g>
   <path d="m656.18 610.06c-8.5701 0-9.3735 6.1597-9.3735 6.1597l-7.7666 103.38c1.8747 6.9632 7.231 6.1597 7.231 6.1597l134.18-4.5528c29.727-4.5529 33.745-17.944 33.745-17.944 10.445-27.585 6.1597-75.256 6.1597-75.256-3.2138-12.319-21.157-12.319-21.157-12.319z" fill="#0ff" opacity=".315" stroke="#000" stroke-width="4.428"/>
   <path d="m656.18 612.06c-8.5701 0-9.3735 6.1597-9.3735 6.1597l-7.7666 103.38c1.8747 6.9632 7.231 6.1597 7.231 6.1597l134.18-4.5528c29.727-4.5529 33.745-17.944 33.745-17.944 10.445-27.585 6.1597-75.256 6.1597-75.256-3.2138-12.319-21.157-12.319-21.157-12.319z" fill="none" stroke="#333" stroke-width="4.428"/>
   <path d="m884.21 738.14s372.68-14.615 384.86 0c12.179 14.615 2.4359 19.487 2.4359 19.487l-387.3 7.3075z" color="#000000" color-rendering="auto" fill="url(#ck)" fill-rule="evenodd" filter="url(#dd)" image-rendering="auto" opacity=".529" shape-rendering="auto" solid-color="#000000" style="isolation:auto;mix-blend-mode:normal"/>
   <path d="m881.69 825.45c65.994-47.804 133.66-77.173 231.41-21.923-20.985-17.378-20.373-34.275-48.712-40.625-31.669-7.0958-70.642-6.0651-104.69 0.79682-47.935 9.6615-52.865 30.83-78.006 61.751z" color="#000000" color-rendering="auto" fill="url(#dn)" fill-rule="evenodd" filter="url(#bp)" image-rendering="auto" opacity=".275" shape-rendering="auto" solid-color="#000000" style="isolation:auto;mix-blend-mode:normal"/>
   <path d="m1118.3 818.22c-16.737-14.634-31.161-18.904-51.406-31.707-26.746-16.914-116.27-2.1623-161.39 29.268-13.885 9.671-39.451 42.683-26.301 43.902 13.15 1.2195 13.006 4.878 23.766-13.415 10.759-18.293 14.49-10.976 26.445-20.732 75.124-39.984 143.55-25.515 188.89-7.3171z" color="#000000" color-rendering="auto" fill="url(#do)" fill-rule="evenodd" filter="url(#bq)" image-rendering="auto" opacity=".591" shape-rendering="auto" solid-color="#000000" style="isolation:auto;mix-blend-mode:normal"/>
   <path transform="matrix(1.002 0 0 .90062 -1.1991 85.692)" d="m350.39 877.17 13.779 39.369 488.18-9.8423 11.811-39.369z" color="#000000" color-rendering="auto" fill="url(#dq)" fill-rule="evenodd" filter="url(#cn)" image-rendering="auto" opacity=".246" shape-rendering="auto" solid-color="#000000" style="isolation:auto;mix-blend-mode:normal"/>
   <path d="m69.118 759.72c-7.7717 13.555 0.48161 7.8346 4.4118 11.765 0.69324 0.69324-0.69324 2.2479 0 2.9412 3.9825 3.9825 8.1986 4.191 10.294 0 0.29411-0.58824 4.1176 0.58823 4.4118 0 2.0936-4.1872 1.1567-10.294 1.4706-10.294 1.0216 0-0.44903-1.4706-4.4118-1.4706-0.52794 0-6.7455 1.2149-7.353 0-0.81803-1.6361 0.0361-2.9412-8.8235-2.9412z" fill="#4d4d4d" fill-rule="evenodd"/>
   <path d="m47.059 771.48c-8.6875 4.9158-10.489 8.9212-16.176 11.765-6.8341 3.417 22.159 18.917 29.412 4.4118 0.12443-0.24887 12.998 0.75831 10.294-7.3529-2.0246-6.0738-15.452 11.37-23.529-8.8235z" fill="#414649" fill-rule="evenodd"/>
   <path transform="matrix(1.0065 0 0 .80178 -796.01 153.77)" d="m1120.2 830.49c-16.737-14.634-33.117-31.18-53.362-43.983-26.746-16.914-115.13-6.5489-161.39 29.268-18.863 14.603-51.185 67.234-38.035 68.454 23.454-17.78 45.324-45.643 61.945-58.698 75.124-39.984 145.51-13.239 190.84 4.9586z" color="#000000" color-rendering="auto" fill="url(#dr)" fill-rule="evenodd" filter="url(#bq)" image-rendering="auto" opacity=".518" shape-rendering="auto" solid-color="#000000" style="isolation:auto;mix-blend-mode:normal"/>
   <path d="m34.096 884.16c-13.689-38.816-18.981-69.735 5.2856-72.854l61.545-8.7876c-15.91 7.6981-43.73 13.038-58.838 23.143-6.0725 13.82-5.398 38.884-7.9931 58.499z" color="#000000" color-rendering="auto" fill="url(#ds)" fill-rule="evenodd" filter="url(#co)" image-rendering="auto" opacity=".388" shape-rendering="auto" solid-color="#000000" style="isolation:auto;mix-blend-mode:normal"/>
   <path d="m87.348 818.78c65.994-47.804 149.24-70.498 246.98-15.248-20.985-17.378-35.948-40.95-64.288-47.3-31.669-7.0958-70.642-6.0651-104.69 0.79682-47.935 9.6615-52.865 30.83-78.006 61.751z" color="#000000" color-rendering="auto" fill="url(#dt)" fill-rule="evenodd" filter="url(#bp)" image-rendering="auto" opacity=".275" shape-rendering="auto" solid-color="#000000" style="isolation:auto;mix-blend-mode:normal"/>
   <path d="m342.66 709.71-4.4501 51.176c-61.151-27.26-169.44-16.859-235.85-17.8 0 0 159.42-22.796 240.3-33.376z" color="#000000" color-rendering="auto" fill="url(#du)" fill-rule="evenodd" filter="url(#cp)" image-rendering="auto" opacity=".315" shape-rendering="auto" solid-color="#000000" style="isolation:auto;mix-blend-mode:normal"/>
   <path d="m289.26 707.48-253.65 37.826c88.108-26.832 171.42-34.503 253.65-37.826z" color="#000000" color-rendering="auto" fill="url(#dv)" fill-rule="evenodd" image-rendering="auto" opacity=".446" shape-rendering="auto" solid-color="#000000" style="isolation:auto;mix-blend-mode:normal"/>
   <path d="m310.23 708.89 17.411-4.7485 98.135-69.644-82.307 75.975z" color="#000000" color-rendering="auto" fill="url(#dw)" fill-rule="evenodd" filter="url(#cq)" image-rendering="auto" opacity=".326" shape-rendering="auto" solid-color="#000000" style="isolation:auto;mix-blend-mode:normal"/>
   <g transform="matrix(1.0314 .014583 -.015053 .99915 -90.583 641.31)" fill-rule="evenodd" shape-rendering="auto">
    <path d="m430.46 305.23c-4.3186-17.225-0.44386-8.5996 3.2353-14.2h83.889l3.1656 7.9141h50.65l1.5828-6.3313 172.53-1.5828v3.1656h64.896l6.3313-9.4969 96.552 1.5828 17.411 6.3313v11.08z" color="#000000" color-rendering="auto" fill="#898e92" image-rendering="auto" solid-color="#000000" stroke="#4d4d4d" stroke-width="1px" style="isolation:auto;mix-blend-mode:normal"/>
    <path d="m930.7 295.77-352.97-1.5828 352.97 9.4969z" color="#000000" color-rendering="auto" fill="#4d4d4d" image-rendering="auto" solid-color="#000000" style="isolation:auto;mix-blend-mode:normal"/>
   </g>
   <path d="m751.3 657.88c-15.846-0.93083-31.101 7.5572-43.393 13.703-10.683 5.3416-20.91 0.35519-31.974 11.419-3.1177 3.1177-17.11 14.863-15.987 15.987 1.0844 1.0844 22.284 0.55399 22.838 0 12.025-12.025 48.751-41.109 68.515-41.109z" fill="#fff" fill-rule="evenodd" opacity=".594"/>
   <path d="m570 667.44c-25.469 6.7536-53.909 10.785-70.143 24.703-4.8569 4.1644-9.7296 12.432-12.904 15.154-7.0272 6.0254-12.126 4.3126-17.955 14.032" fill="#fff" fill-rule="evenodd" opacity=".638"/>
   <path d="m83.05 754.83c-30.417-0.39561-47.797 12.137-56.58 35.766l52.941 1.4707 32.354-33.824c-10.659-2.1782-20.198-3.3013-28.715-3.4121zm-1.6426 7.9102c9.7252-2e-3 18.592 2.8555 18.592 2.8555l-26.471 16.176-36.764 5.8828c6.3909-11.875 10.469-8.4028 27.941-20.588 4.7225-3.2935 10.866-4.325 16.701-4.3262z" color="#000000" color-rendering="auto" fill="#949494" fill-rule="evenodd" image-rendering="auto" opacity=".522" shape-rendering="auto" solid-color="#000000" style="isolation:auto;mix-blend-mode:normal"/>
   <path d="m83.05 754.83c-30.417-0.39561-47.797 12.137-56.58 35.766l52.941 1.4707 32.354-33.824c-10.659-2.1782-20.198-3.3013-28.715-3.4121zm-1.6426 7.9102c9.7252-2e-3 18.592 2.8555 18.592 2.8555l-26.471 16.176-36.764 5.8828c6.3909-11.875 10.469-8.4028 27.941-20.588 4.7225-3.2935 10.866-4.325 16.701-4.3262z" color="#000000" color-rendering="auto" fill="url(#ca)" fill-rule="evenodd" image-rendering="auto" opacity=".522" shape-rendering="auto" solid-color="#000000" style="isolation:auto;mix-blend-mode:normal"/>
   <path d="m27.412 759.72c-11.465-1.6196 5.2755-7.6097 4.4118-5.8824-1.0961 2.1922-4.4118 3.4314-4.4118 5.8824 0 4.1882 8.1578 9.8917 4.4118 11.765-4.0343 2.0171-1.8481 2.3946-5.8824 4.4118-1.6763 0.83818 2.1936 4.7856 0 5.8824-8.1902 4.0951-6.1339 11.89-11.765 14.706" fill="none" filter="url(#ct)" stroke="#808080" stroke-width="1px"/>
   <g transform="translate(-67.688 663.34)" fill-rule="evenodd" shape-rendering="auto">
    <path d="m1338.5 127.58 9.307-21.998 5.0766-1.6922 3.3844 33.844z" color="#000000" color-rendering="auto" fill="url(#cb)" filter="url(#cz)" image-rendering="auto" solid-color="#000000" style="isolation:auto;mix-blend-mode:normal"/>
    <path d="m1337.7 129.27-2.5383 27.921 20.306 0.8461v-24.537z" color="#000000" color-rendering="auto" fill="url(#cc)" filter="url(#cy)" image-rendering="auto" solid-color="#000000" style="isolation:auto;mix-blend-mode:normal"/>
    <path d="m1331.8 157.19v16.922l21.152-3.3844v-16.076z" color="#000000" color-rendering="auto" fill="url(#cd)" filter="url(#cx)" image-rendering="auto" solid-color="#000000" style="isolation:auto;mix-blend-mode:normal"/>
    <path d="m1333.4 173.27-3.3844 15.23 21.998 1.6922 2.5383-19.46z" color="#000000" color-rendering="auto" fill="url(#ce)" filter="url(#cw)" image-rendering="auto" solid-color="#000000" style="isolation:auto;mix-blend-mode:normal"/>
   </g>
   <path d="m1145.5 880.39 11.659 52.467 107.85-14.574 8.7445-52.467c-11.442-28.294-50.995 13.982-128.25 14.574z" color="#000000" color-rendering="auto" fill="url(#cf)" fill-rule="evenodd" filter="url(#da)" image-rendering="auto" opacity=".145" shape-rendering="auto" solid-color="#000000" style="isolation:auto;mix-blend-mode:normal"/>
   <path d="m69.956 760.88c40.2-20.737 55.148 22.059 0 0z" fill="#fff" fill-rule="evenodd" opacity=".438"/>
   <path d="m-7.0688 806.13c-12.959 3.5344-18.85-2.3563-14.138 24.741s1.1781 34.166 2.3563 50.66 5.3183 32.594 7.0688 44.769c3.5344 24.582 86.004 22.353 86.004 21.206" color="#000000" color-rendering="auto" fill="none" filter="url(#df)" image-rendering="auto" shape-rendering="auto" solid-color="#000000" stroke="url(#cg)" stroke-width="3" style="isolation:auto;mix-blend-mode:normal"/>
   <path d="m770.44 653.36c-2.7212 1.05-17.5 11.147-18.136 13.058-0.15294 0.45882 0.34198 1.1089 0 1.4509-0.34199 0.34199-1.0362-0.24883-1.4509 0-2.3598 1.4159-3.8884 6.297-5.8037 7.2546-3.7176 1.8588-7.4419 6.9855-10.882 8.7055-0.22733 0.11367-2.0506 3.5015-2.9018 4.3528-0.7647 0.7647 2.1371-0.68622 2.9018-1.4509 0.85496-0.85496 1.0949-3.4426 2.1764-2.9018 0.48364 0.24182-1.2662 1.4509-0.72545 1.4509 3.5304 0 8.7055-9.1921 8.7055-11.607 0-0.22084 0.25258-6.0562 0.72546-6.5291 0.36273-0.36273 1.7411 0.29019 2.1764 0 1.4642-0.9761 6.5401-3.6382 7.2546-4.3528 1.5993-1.5993 1.3381-1.2252 2.1764-2.9018 0.15057-0.30113 1.9232 0.25323 2.1764 0 0.76241-0.76241 3.3114-2.9018 3.6273-2.9018 0.88959 0 7.932 0.24019 7.98 0 0.23712-1.1856 0-2.4182 0-3.6273z" fill="#fff" fill-rule="evenodd" opacity=".627"/>
   <path d="m598.5 663.52c-12.654 7.152-26.352 14.5-34.097 26.117" fill="#fff" fill-rule="evenodd" opacity=".652"/>
   <path d="m878.01 727.77-24.873 213.91" color="#000000" color-rendering="auto" fill="none" filter="url(#dm)" image-rendering="auto" shape-rendering="auto" solid-color="#000000" stroke="#000" stroke-width="2" style="isolation:auto;mix-blend-mode:normal"/>
  </g>
 </g>
</svg>
