<?xml version="1.0" encoding="UTF-8"?>
<svg enable-background="new 0 0 542.67 232.217" viewBox="0 0 542.67 232.217" xmlns="http://www.w3.org/2000/svg">
 <defs>
  <linearGradient id="i" x1="109.92" x2="111.31" y1="205.49" y2="197.61" gradientUnits="userSpaceOnUse">
   <stop stop-color="#fff" offset="0"/>
   <stop stop-color="#f6f6f7" offset=".0082"/>
   <stop stop-color="#ced0d1" offset=".0691"/>
   <stop stop-color="#aaacaf" offset=".1351"/>
   <stop stop-color="#8d8f92" offset=".2047"/>
   <stop stop-color="#76777a" offset=".279"/>
   <stop stop-color="#616365" offset=".3594"/>
   <stop stop-color="#505153" offset=".4481"/>
   <stop stop-color="#444345" offset=".5497"/>
   <stop stop-color="#383839" offset=".6752"/>
   <stop stop-color="#333334" offset=".897"/>
  </linearGradient>
  <linearGradient id="h" x1="24.529" x2="30.612" gradientUnits="userSpaceOnUse">
   <stop stop-color="#808080" offset="0"/>
   <stop stop-color="#8d8d8d" offset=".0746"/>
   <stop stop-color="#b2b2b2" offset=".2153"/>
   <stop stop-color="#ededed" offset=".4058"/>
   <stop stop-color="#fff" offset=".4606"/>
   <stop stop-color="#d2d2d2" offset=".6336"/>
   <stop stop-color="#979797" offset=".8772"/>
   <stop stop-color="#808080" offset=".9939"/>
  </linearGradient>
  <linearGradient id="g" x1="196.26" x2="196.46" y1="132.7" y2="121.4" gradientUnits="userSpaceOnUse">
   <stop stop-color="#808080" offset="0"/>
   <stop stop-color="#8d8d8d" offset=".0746"/>
   <stop stop-color="#b2b2b2" offset=".2153"/>
   <stop stop-color="#ededed" offset=".4058"/>
   <stop stop-color="#fff" offset=".4606"/>
   <stop stop-color="#d2d2d2" offset=".6336"/>
   <stop stop-color="#979797" offset=".8772"/>
   <stop stop-color="#808080" offset=".9939"/>
  </linearGradient>
  <linearGradient id="f" x2="0" y1="192.55" y2="182.05" gradientUnits="userSpaceOnUse">
   <stop stop-color="#808080" offset="0"/>
   <stop stop-color="#8d8d8d" offset=".0746"/>
   <stop stop-color="#b2b2b2" offset=".2153"/>
   <stop stop-color="#ededed" offset=".4058"/>
   <stop stop-color="#fff" offset=".4606"/>
   <stop stop-color="#d2d2d2" offset=".6336"/>
   <stop stop-color="#979797" offset=".8772"/>
   <stop stop-color="#808080" offset=".9939"/>
  </linearGradient>
  <linearGradient id="e" x1="237.56" x2="237.68" y1="11.103" y2="4.3087" gradientUnits="userSpaceOnUse">
   <stop stop-color="#808080" offset="0"/>
   <stop stop-color="#8d8d8d" offset=".0746"/>
   <stop stop-color="#b2b2b2" offset=".2153"/>
   <stop stop-color="#ededed" offset=".4058"/>
   <stop stop-color="#fff" offset=".4606"/>
   <stop stop-color="#d2d2d2" offset=".6336"/>
   <stop stop-color="#979797" offset=".8772"/>
   <stop stop-color="#808080" offset=".9939"/>
  </linearGradient>
  <linearGradient id="d" x1="361.78" x2="369.78" gradientUnits="userSpaceOnUse">
   <stop stop-color="#808080" offset="0"/>
   <stop stop-color="#8d8d8d" offset=".0746"/>
   <stop stop-color="#b2b2b2" offset=".2153"/>
   <stop stop-color="#ededed" offset=".4058"/>
   <stop stop-color="#fff" offset=".4606"/>
   <stop stop-color="#d2d2d2" offset=".6336"/>
   <stop stop-color="#979797" offset=".8772"/>
   <stop stop-color="#808080" offset=".9939"/>
  </linearGradient>
  <linearGradient id="c" x2="0" y1="206.05" y2="195.55" gradientUnits="userSpaceOnUse">
   <stop stop-color="#808080" offset="0"/>
   <stop stop-color="#8d8d8d" offset=".0746"/>
   <stop stop-color="#b2b2b2" offset=".2153"/>
   <stop stop-color="#ededed" offset=".4058"/>
   <stop stop-color="#fff" offset=".4606"/>
   <stop stop-color="#d2d2d2" offset=".6336"/>
   <stop stop-color="#979797" offset=".8772"/>
   <stop stop-color="#808080" offset=".9939"/>
  </linearGradient>
  <linearGradient id="b" x2="0" y1="45.217" y2="40.884" gradientUnits="userSpaceOnUse">
   <stop stop-color="#fff" offset="0"/>
   <stop stop-color="#c3c5c7" offset=".2002"/>
   <stop stop-color="#8f9193" offset=".4152"/>
   <stop stop-color="#67686b" offset=".6107"/>
   <stop stop-color="#464648" offset=".7794"/>
   <stop stop-color="#1e1e1e" offset=".9149"/>
   <stop offset="1"/>
  </linearGradient>
  <linearGradient id="a" x1="439.11" x2="443.78" gradientUnits="userSpaceOnUse">
   <stop stop-color="#fff" offset="0"/>
   <stop offset="1"/>
  </linearGradient>
 </defs>
 <path d="m108.59 198.33 5.601-2.571s11.374-8.174 13.432-9.146 5.544-1.486 5.544-1.486l-1.315 8.459s-5.258 1.601-7.202 3.315-12.003 8.116-12.003 8.116l-4.057-6.687z" fill="#616264" stroke="#000"/>
 <path d="m114.61 201.55a4 4 0 1 0 -8 0 4 4 0 1 0 8 0" fill="url(#i)" stroke="#000"/>
 <path d="m113.78 193.72 2 4.667 10-10.334s11.349-20.713 31.667-19.666c32.333 1.666 31.667 35.333 31.667 35.333l10.333-10.333-13-34.334-28-10.333-39 11-5.667 34z" stroke="#000"/>
 <path d="m532.279,169.05 .334,20.5-9.834-3.666-4.666-.167-.5,11.333-10.667,1.834c0,0 .501-5.334-3.833-6.167s-4.486.116-4.486.116-4.288-24.37-32.042-23.919c-33.965.552-33.508,38.812-33.508,38.812l-9.631-1.676 14.5-42 22.5-14 25.5.167 15.334,13.333 4.833,3.834 23,.5 3.166,1.166z" stroke="#000"/>
 <path d="m23.68 6.417s-0.591-3.55 1.184-4.733 5.325-1.184 5.325-1.184l402.96 6.509s8.189 1.933 9.965 3.708 52.865 98.433 52.865 98.433l-0.472 52.903s-9.108-7.938-23.896-8.299c-24.261-0.592-34.911 20.71-34.911 20.71l-11.835 33.136-229.58-2.958 0.592-10.651s-3.55-37.869-39.645-37.277c-37.277 0.611-40.828 39.053-40.828 39.053l-91.716-1.775v-187.58z" fill="#fff" stroke="#000"/>
 <path d="m492.971,101.844 3.771,6.952-.412,53.907c0,0 .178.133 2.545,3.092s3.184,4.457 3.184,4.457l35.019-.255 .127-4.967-1.146-.382 .127-5.857-1.273-.637-.171-32.509c0,0 .118-1.826-.707-3.476-.868-1.735-2.592-2.592-2.592-2.592l-38.472-17.733z" fill="#fff" stroke="#000"/>
 <path d="m542.17,171.525v19.737c0,0-.316,1.725-.521,1.906-.188.168-1.518.513-1.518.513h-9.041v-23.685h9.041c0,0 1.345.077 1.597.282 .225.182.442,1.247.442,1.247z" fill="#fff" stroke="#000"/>
 <path d="m497.61 201.22a30.5 30.5 0 1 0 -61 0 30.5 30.5 0 1 0 61 0" stroke="#000"/>
 <path d="m186.95 201.22a30.5 30.5 0 1 0 -61 0 30.5 30.5 0 1 0 61 0" stroke="#000"/>
 <path d="m29.862,193.3-5.25-.083-.083-186.084 6.083.167z" fill="url(#h)"/>
 <path d="m362.36 134.8-332-5v-10.5l332 5z" fill="url(#g)"/>
 <path d="m41.612,182.05 70.25.75v9.75l-70.5-.75z" fill="url(#f)"/>
 <path d="m442.61 11.384c1.502 1.353 2 3.333 2 3.333l-414-7.417v-6.083l402.33 6.5s7.944 2.116 9.666 3.667z" fill="url(#e)"/>
 <path d="m366.78 205.88h-5l1.5-191.67 6.5-0.167z" fill="url(#d)"/>
 <path d="m196.28 195.55-0.334 8.167 165.17 2.333-0.166-8.666z" fill="url(#c)"/>
 <path d="m450.612,45.217-81-.667 .167-3.666 81,1z" fill="url(#b)" stroke="#000"/>
 <path d="m369.612,44.55 77.833,1-1.833,88.833-23.5,66.667-55.5.833z" fill="none" stroke="#000"/>
 <path d="m442.592,96.05c-.139,4.971-4.28,9-9.251,9h-51.667c-4.971,0-8.888-4.029-8.749-9l1.039-37.167c.139-4.971 4.28-9 9.251-9h51.667c4.971,0 8.888,4.029 8.749,9l-1.039,37.167z" fill="#6dcff6" stroke="#000"/>
 <path d="m458.612,43.884-8-.167-1.167,64.667 26.5-.167 14.167-4.667z" fill="#6dcff6" stroke="#000"/>
 <path d="m439.11 108.05h4.666v19.5h-4.666z" fill="url(#a)" stroke="#000" stroke-width=".5"/>
 <path d="m36.445 12.05h13v5.667h-13z" fill="#ed1c24" stroke="#000"/>
 <path d="m41.445 177.72h8.667v3h-8.667z" fill="#ed1c24" stroke="#000"/>
 <path d="m529.13 162.79a3 3 0 1 0 -6 0 3 3 0 1 0 6 0" fill="#fff200" stroke="#000"/>
 <path d="m529.13 156.04a3 3 0 1 0 -6 0 3 3 0 1 0 6 0" fill="#ed1c24" stroke="#000"/>
 <path d="m23.612,195.05-23.112.019v-1.276l.876-.039 .04-5.854h-.804v-1.85h23z" fill="#d5d7d8" stroke="#000"/>
 <path d="m1.934 187.86h21.147v5.814h-21.147z" fill="#9d9fa2"/>
 <path d="m23.553,7.091 7.059.209 .02-6.752" fill="none" stroke="#000"/>
 <path d="m175.11 201.55a18.5 18.5 0 1 0 -37 0 18.5 18.5 0 1 0 37 0" fill="#fff"/>
 <path d="m485.61 201.55a18.5 18.5 0 1 0 -37 0 18.5 18.5 0 1 0 37 0" fill="#fff"/>
</svg>
